%TF.GenerationSoftware,KiCad,Pcbnew,5.1.10*%
%TF.CreationDate,2021-09-20T11:14:50+10:00*%
%TF.ProjectId,MCB1,4d434231-2e6b-4696-9361-645f70636258,rev?*%
%TF.SameCoordinates,Original*%
%TF.FileFunction,Copper,L2,Bot*%
%TF.FilePolarity,Positive*%
%FSLAX46Y46*%
G04 Gerber Fmt 4.6, Leading zero omitted, Abs format (unit mm)*
G04 Created by KiCad (PCBNEW 5.1.10) date 2021-09-20 11:14:50*
%MOMM*%
%LPD*%
G01*
G04 APERTURE LIST*
%TA.AperFunction,ComponentPad*%
%ADD10C,1.600000*%
%TD*%
%TA.AperFunction,ComponentPad*%
%ADD11O,1.400000X1.400000*%
%TD*%
%TA.AperFunction,ComponentPad*%
%ADD12C,1.400000*%
%TD*%
%TA.AperFunction,ComponentPad*%
%ADD13C,2.100000*%
%TD*%
%TA.AperFunction,ComponentPad*%
%ADD14R,2.100000X2.100000*%
%TD*%
%TA.AperFunction,ComponentPad*%
%ADD15R,1.600000X1.600000*%
%TD*%
%TA.AperFunction,ComponentPad*%
%ADD16O,1.600000X1.600000*%
%TD*%
%TA.AperFunction,ComponentPad*%
%ADD17R,1.700000X1.700000*%
%TD*%
%TA.AperFunction,ComponentPad*%
%ADD18O,1.700000X1.700000*%
%TD*%
%TA.AperFunction,ComponentPad*%
%ADD19C,0.800000*%
%TD*%
%TA.AperFunction,ComponentPad*%
%ADD20C,6.400000*%
%TD*%
%TA.AperFunction,ComponentPad*%
%ADD21C,3.000000*%
%TD*%
%TA.AperFunction,ViaPad*%
%ADD22C,0.800000*%
%TD*%
%TA.AperFunction,Conductor*%
%ADD23C,0.250000*%
%TD*%
%TA.AperFunction,Conductor*%
%ADD24C,0.800000*%
%TD*%
%TA.AperFunction,Conductor*%
%ADD25C,0.254000*%
%TD*%
%TA.AperFunction,Conductor*%
%ADD26C,0.100000*%
%TD*%
G04 APERTURE END LIST*
D10*
%TO.P,C1,2*%
%TO.N,GND*%
X171386500Y-95647500D03*
%TO.P,C1,1*%
%TO.N,+5V*%
X171386500Y-100647500D03*
%TD*%
%TO.P,C2,1*%
%TO.N,+5V*%
X239395000Y-99060000D03*
%TO.P,C2,2*%
%TO.N,GND*%
X239395000Y-94060000D03*
%TD*%
D11*
%TO.P,R1,2*%
%TO.N,+5V*%
X166687500Y-89027000D03*
D12*
%TO.P,R1,1*%
%TO.N,Net-(J2-Pad4)*%
X164147500Y-89027000D03*
%TD*%
%TO.P,R2,1*%
%TO.N,Net-(R2-Pad1)*%
X179832000Y-89090500D03*
D11*
%TO.P,R2,2*%
%TO.N,Net-(J2-Pad5)*%
X177292000Y-89090500D03*
%TD*%
D12*
%TO.P,R3,1*%
%TO.N,Net-(R3-Pad1)*%
X136017000Y-91440000D03*
D11*
%TO.P,R3,2*%
%TO.N,Net-(J1-Pad1)*%
X136017000Y-88900000D03*
%TD*%
%TO.P,R4,2*%
%TO.N,Net-(J1-Pad5)*%
X140589000Y-88900000D03*
D12*
%TO.P,R4,1*%
%TO.N,Net-(R10-Pad2)*%
X140589000Y-91440000D03*
%TD*%
%TO.P,R5,1*%
%TO.N,Net-(D1-Pad1)*%
X231140000Y-88836500D03*
D11*
%TO.P,R5,2*%
%TO.N,Net-(J3-Pad4)*%
X228600000Y-88836500D03*
%TD*%
D12*
%TO.P,R6,1*%
%TO.N,Net-(R11-Pad2)*%
X145161000Y-91440000D03*
D11*
%TO.P,R6,2*%
%TO.N,Net-(J1-Pad3)*%
X145161000Y-88900000D03*
%TD*%
D12*
%TO.P,R7,1*%
%TO.N,Net-(J4-Pad4)*%
X185420000Y-89281000D03*
D11*
%TO.P,R7,2*%
%TO.N,+5V*%
X187960000Y-89281000D03*
%TD*%
%TO.P,R8,2*%
%TO.N,Net-(J4-Pad5)*%
X198755000Y-89154000D03*
D12*
%TO.P,R8,1*%
%TO.N,Net-(R8-Pad1)*%
X201295000Y-89154000D03*
%TD*%
D11*
%TO.P,R9,2*%
%TO.N,Net-(R3-Pad1)*%
X133731000Y-91567000D03*
D12*
%TO.P,R9,1*%
%TO.N,+5V*%
X133731000Y-89027000D03*
%TD*%
%TO.P,R10,1*%
%TO.N,+5V*%
X138303000Y-89027000D03*
D11*
%TO.P,R10,2*%
%TO.N,Net-(R10-Pad2)*%
X138303000Y-91567000D03*
%TD*%
%TO.P,R11,2*%
%TO.N,Net-(R11-Pad2)*%
X142875000Y-91567000D03*
D12*
%TO.P,R11,1*%
%TO.N,+5V*%
X142875000Y-89027000D03*
%TD*%
%TO.P,R12,1*%
%TO.N,Net-(J5-Pad4)*%
X206692500Y-89090500D03*
D11*
%TO.P,R12,2*%
%TO.N,+5V*%
X209232500Y-89090500D03*
%TD*%
%TO.P,R13,2*%
%TO.N,Net-(J5-Pad5)*%
X219773500Y-89344500D03*
D12*
%TO.P,R13,1*%
%TO.N,Net-(R13-Pad1)*%
X222313500Y-89344500D03*
%TD*%
D11*
%TO.P,R15,2*%
%TO.N,+5V*%
X228219000Y-96520000D03*
D12*
%TO.P,R15,1*%
%TO.N,/MIDI_RX*%
X228219000Y-99060000D03*
%TD*%
D13*
%TO.P,J1,G1*%
%TO.N,N/C*%
X143470000Y-73740000D03*
%TO.P,J1,G2*%
X138470000Y-73740000D03*
%TO.P,J1,2*%
%TO.N,GND*%
X140970000Y-83750000D03*
%TO.P,J1,3*%
%TO.N,Net-(J1-Pad3)*%
X148475000Y-83750000D03*
D14*
%TO.P,J1,1*%
%TO.N,Net-(J1-Pad1)*%
X133465000Y-83750000D03*
D13*
%TO.P,J1,5*%
%TO.N,Net-(J1-Pad5)*%
X145975000Y-86240000D03*
%TO.P,J1,4*%
%TO.N,N/C*%
X135965000Y-86240000D03*
%TD*%
%TO.P,J2,G1*%
%TO.N,N/C*%
X173950000Y-73740000D03*
%TO.P,J2,G2*%
X168950000Y-73740000D03*
%TO.P,J2,2*%
%TO.N,GND*%
X171450000Y-83750000D03*
%TO.P,J2,3*%
%TO.N,N/C*%
X178955000Y-83750000D03*
D14*
%TO.P,J2,1*%
X163945000Y-83750000D03*
D13*
%TO.P,J2,5*%
%TO.N,Net-(J2-Pad5)*%
X176455000Y-86240000D03*
%TO.P,J2,4*%
%TO.N,Net-(J2-Pad4)*%
X166445000Y-86240000D03*
%TD*%
%TO.P,J3,4*%
%TO.N,Net-(J3-Pad4)*%
X231215000Y-86246500D03*
%TO.P,J3,5*%
%TO.N,Net-(D1-Pad2)*%
X241225000Y-86246500D03*
D14*
%TO.P,J3,1*%
%TO.N,N/C*%
X228715000Y-83756500D03*
D13*
%TO.P,J3,3*%
X243725000Y-83756500D03*
%TO.P,J3,2*%
X236220000Y-83756500D03*
%TO.P,J3,G2*%
X233720000Y-73746500D03*
%TO.P,J3,G1*%
X238720000Y-73746500D03*
%TD*%
%TO.P,J4,4*%
%TO.N,Net-(J4-Pad4)*%
X188035000Y-86240000D03*
%TO.P,J4,5*%
%TO.N,Net-(J4-Pad5)*%
X198045000Y-86240000D03*
D14*
%TO.P,J4,1*%
%TO.N,N/C*%
X185535000Y-83750000D03*
D13*
%TO.P,J4,3*%
X200545000Y-83750000D03*
%TO.P,J4,2*%
%TO.N,GND*%
X193040000Y-83750000D03*
%TO.P,J4,G2*%
%TO.N,N/C*%
X190540000Y-73740000D03*
%TO.P,J4,G1*%
X195540000Y-73740000D03*
%TD*%
%TO.P,J5,G1*%
%TO.N,N/C*%
X217130000Y-73740000D03*
%TO.P,J5,G2*%
X212130000Y-73740000D03*
%TO.P,J5,2*%
%TO.N,GND*%
X214630000Y-83750000D03*
%TO.P,J5,3*%
%TO.N,N/C*%
X222135000Y-83750000D03*
D14*
%TO.P,J5,1*%
X207125000Y-83750000D03*
D13*
%TO.P,J5,5*%
%TO.N,Net-(J5-Pad5)*%
X219635000Y-86240000D03*
%TO.P,J5,4*%
%TO.N,Net-(J5-Pad4)*%
X209625000Y-86240000D03*
%TD*%
D15*
%TO.P,U1,1*%
%TO.N,/MIDI_TX*%
X167957500Y-93027500D03*
D16*
%TO.P,U1,8*%
%TO.N,Net-(R3-Pad1)*%
X152717500Y-100647500D03*
%TO.P,U1,2*%
%TO.N,Net-(R2-Pad1)*%
X165417500Y-93027500D03*
%TO.P,U1,9*%
%TO.N,/START*%
X155257500Y-100647500D03*
%TO.P,U1,3*%
%TO.N,/MIDI_TX*%
X162877500Y-93027500D03*
%TO.P,U1,10*%
%TO.N,Net-(R10-Pad2)*%
X157797500Y-100647500D03*
%TO.P,U1,4*%
%TO.N,Net-(R8-Pad1)*%
X160337500Y-93027500D03*
%TO.P,U1,11*%
%TO.N,/CONTINUE*%
X160337500Y-100647500D03*
%TO.P,U1,5*%
%TO.N,/MIDI_TX*%
X157797500Y-93027500D03*
%TO.P,U1,12*%
%TO.N,Net-(R11-Pad2)*%
X162877500Y-100647500D03*
%TO.P,U1,6*%
%TO.N,Net-(R13-Pad1)*%
X155257500Y-93027500D03*
%TO.P,U1,13*%
%TO.N,/CLOCK*%
X165417500Y-100647500D03*
%TO.P,U1,7*%
%TO.N,GND*%
X152717500Y-93027500D03*
%TO.P,U1,14*%
%TO.N,+5V*%
X167957500Y-100647500D03*
%TD*%
D17*
%TO.P,J10,1*%
%TO.N,+5V*%
X146050000Y-100457000D03*
D18*
%TO.P,J10,2*%
X146050000Y-102997000D03*
%TO.P,J10,3*%
%TO.N,/MIDI_RX*%
X143510000Y-100457000D03*
%TO.P,J10,4*%
%TO.N,/MIDI_TX*%
X143510000Y-102997000D03*
%TO.P,J10,5*%
%TO.N,/START*%
X140970000Y-100457000D03*
%TO.P,J10,6*%
%TO.N,/CONTINUE*%
X140970000Y-102997000D03*
%TO.P,J10,7*%
%TO.N,/CLOCK*%
X138430000Y-100457000D03*
%TO.P,J10,8*%
%TO.N,/TAPE_IN*%
X138430000Y-102997000D03*
%TO.P,J10,9*%
%TO.N,/TAPE_OUT*%
X135890000Y-100457000D03*
%TO.P,J10,10*%
%TO.N,/METRONOME*%
X135890000Y-102997000D03*
%TO.P,J10,11*%
%TO.N,GND*%
X133350000Y-100457000D03*
%TO.P,J10,12*%
X133350000Y-102997000D03*
%TD*%
D19*
%TO.P,H1,1*%
%TO.N,GND*%
X66467056Y-74502944D03*
X64770000Y-73800000D03*
X63072944Y-74502944D03*
X62370000Y-76200000D03*
X63072944Y-77897056D03*
X64770000Y-78600000D03*
X66467056Y-77897056D03*
X67170000Y-76200000D03*
D20*
X64770000Y-76200000D03*
%TD*%
%TO.P,H2,1*%
%TO.N,GND*%
X64770000Y-101600000D03*
D19*
X67170000Y-101600000D03*
X66467056Y-103297056D03*
X64770000Y-104000000D03*
X63072944Y-103297056D03*
X62370000Y-101600000D03*
X63072944Y-99902944D03*
X64770000Y-99200000D03*
X66467056Y-99902944D03*
%TD*%
%TO.P,H3,1*%
%TO.N,GND*%
X157907056Y-74502944D03*
X156210000Y-73800000D03*
X154512944Y-74502944D03*
X153810000Y-76200000D03*
X154512944Y-77897056D03*
X156210000Y-78600000D03*
X157907056Y-77897056D03*
X158610000Y-76200000D03*
D20*
X156210000Y-76200000D03*
%TD*%
%TO.P,H4,1*%
%TO.N,GND*%
X184150000Y-101600000D03*
D19*
X186550000Y-101600000D03*
X185847056Y-103297056D03*
X184150000Y-104000000D03*
X182452944Y-103297056D03*
X181750000Y-101600000D03*
X182452944Y-99902944D03*
X184150000Y-99200000D03*
X185847056Y-99902944D03*
%TD*%
%TO.P,H5,1*%
%TO.N,GND*%
X251887056Y-74502944D03*
X250190000Y-73800000D03*
X248492944Y-74502944D03*
X247790000Y-76200000D03*
X248492944Y-77897056D03*
X250190000Y-78600000D03*
X251887056Y-77897056D03*
X252590000Y-76200000D03*
D20*
X250190000Y-76200000D03*
%TD*%
%TO.P,H6,1*%
%TO.N,GND*%
X250190000Y-101600000D03*
D19*
X252590000Y-101600000D03*
X251887056Y-103297056D03*
X250190000Y-104000000D03*
X248492944Y-103297056D03*
X247790000Y-101600000D03*
X248492944Y-99902944D03*
X250190000Y-99200000D03*
X251887056Y-99902944D03*
%TD*%
D21*
%TO.P,J6,S*%
%TO.N,GND*%
X110363000Y-74168000D03*
%TO.P,J6,T*%
%TO.N,/TAPE_IN*%
X110363000Y-86868000D03*
%TO.P,J6,SN*%
%TO.N,Net-(J6-PadSN)*%
X126593000Y-74168000D03*
%TO.P,J6,TN*%
X126593000Y-86868000D03*
%TD*%
%TO.P,J7,TN*%
%TO.N,N/C*%
X106273000Y-86868000D03*
%TO.P,J7,SN*%
X106273000Y-74168000D03*
%TO.P,J7,T*%
%TO.N,/TAPE_OUT*%
X90043000Y-86868000D03*
%TO.P,J7,S*%
%TO.N,GND*%
X90043000Y-74168000D03*
%TD*%
%TO.P,J8,S*%
%TO.N,GND*%
X69723000Y-74168000D03*
%TO.P,J8,T*%
%TO.N,/METRONOME*%
X69723000Y-86868000D03*
%TO.P,J8,SN*%
%TO.N,N/C*%
X85953000Y-74168000D03*
%TO.P,J8,TN*%
X85953000Y-86868000D03*
%TD*%
D15*
%TO.P,U3,1*%
%TO.N,Net-(D1-Pad1)*%
X236093000Y-91440000D03*
D16*
%TO.P,U3,4*%
%TO.N,/MIDI_RX*%
X231013000Y-99060000D03*
%TO.P,U3,2*%
%TO.N,Net-(D1-Pad2)*%
X233553000Y-91440000D03*
%TO.P,U3,5*%
%TO.N,GND*%
X233553000Y-99060000D03*
%TO.P,U3,3*%
%TO.N,N/C*%
X231013000Y-91440000D03*
%TO.P,U3,6*%
%TO.N,+5V*%
X236093000Y-99060000D03*
%TD*%
D15*
%TO.P,D1,1*%
%TO.N,Net-(D1-Pad1)*%
X237490000Y-88836500D03*
D16*
%TO.P,D1,2*%
%TO.N,Net-(D1-Pad2)*%
X233680000Y-88836500D03*
%TD*%
D22*
%TO.N,GND*%
X201422000Y-86360000D03*
X205994000Y-86360000D03*
X196088000Y-88646000D03*
X220980000Y-92710000D03*
X219710000Y-92710000D03*
X218440000Y-92710000D03*
X217170000Y-92710000D03*
X215900000Y-92710000D03*
X209550000Y-92710000D03*
X208280000Y-92710000D03*
X207010000Y-92710000D03*
X205740000Y-92710000D03*
X204470000Y-92710000D03*
X203200000Y-92710000D03*
X186690000Y-92710000D03*
X185420000Y-93980000D03*
X184150000Y-95250000D03*
X182880000Y-96520000D03*
X182880000Y-92710000D03*
X181610000Y-93980000D03*
X180340000Y-95250000D03*
X179070000Y-96520000D03*
X177800000Y-97790000D03*
X179070000Y-92710000D03*
X177800000Y-93980000D03*
X176530000Y-95250000D03*
X135890000Y-105410000D03*
X139700000Y-105410000D03*
X127000000Y-105410000D03*
X125730000Y-105410000D03*
X124460000Y-105410000D03*
X130810000Y-104140000D03*
X129540000Y-102870000D03*
X128270000Y-101600000D03*
X127000000Y-100330000D03*
X132080000Y-97790000D03*
X130810000Y-96520000D03*
X129540000Y-95250000D03*
X127000000Y-95250000D03*
X138430000Y-97790000D03*
X139700000Y-97790000D03*
X140970000Y-97790000D03*
X81280000Y-99060000D03*
X83820000Y-99060000D03*
X86360000Y-99060000D03*
X88900000Y-99060000D03*
X104140000Y-99060000D03*
X106680000Y-99060000D03*
X109220000Y-99060000D03*
X104140000Y-96520000D03*
X106680000Y-96520000D03*
X109220000Y-96520000D03*
X104140000Y-104140000D03*
X106680000Y-104140000D03*
X109220000Y-104140000D03*
X119380000Y-91440000D03*
X124460000Y-91440000D03*
X129540000Y-91440000D03*
%TO.N,+5V*%
X149758400Y-99060000D03*
%TO.N,/MIDI_TX*%
X149098000Y-91897200D03*
%TD*%
D23*
%TO.N,+5V*%
X137404999Y-89925001D02*
X138303000Y-89027000D01*
X134629001Y-89925001D02*
X137404999Y-89925001D01*
X133731000Y-89027000D02*
X134629001Y-89925001D01*
X141976999Y-89925001D02*
X142875000Y-89027000D01*
X139201001Y-89925001D02*
X141976999Y-89925001D01*
X138303000Y-89027000D02*
X139201001Y-89925001D01*
X165662499Y-90052001D02*
X166687500Y-89027000D01*
X143900001Y-90052001D02*
X165662499Y-90052001D01*
X142875000Y-89027000D02*
X143900001Y-90052001D01*
D24*
X167489502Y-100647500D02*
X167957500Y-100647500D01*
X165902002Y-99060000D02*
X167489502Y-100647500D01*
X176593500Y-100647500D02*
X187960000Y-89281000D01*
X171386500Y-100647500D02*
X176593500Y-100647500D01*
X149758400Y-99060000D02*
X165902002Y-99060000D01*
X233553000Y-96520000D02*
X236093000Y-99060000D01*
X228219000Y-96520000D02*
X233553000Y-96520000D01*
X236093000Y-99060000D02*
X239395000Y-99060000D01*
X209232500Y-89090500D02*
X214031990Y-93889990D01*
X214031990Y-93889990D02*
X225588990Y-93889990D01*
X225588990Y-93889990D02*
X228219000Y-96520000D01*
D23*
%TO.N,Net-(D1-Pad2)*%
X233553000Y-88963500D02*
X233680000Y-88836500D01*
X233553000Y-91440000D02*
X233553000Y-88963500D01*
%TO.N,/MIDI_TX*%
X144685001Y-96310199D02*
X149098000Y-91897200D01*
X144685001Y-101821999D02*
X144685001Y-96310199D01*
X143510000Y-102997000D02*
X144685001Y-101821999D01*
%TO.N,Net-(J6-PadSN)*%
X126593000Y-86868000D02*
X126593000Y-74168000D01*
%TD*%
D25*
%TO.N,GND*%
X254610000Y-106020000D02*
X60350000Y-106020000D01*
X60350000Y-100310740D01*
X134405000Y-100310740D01*
X134405000Y-100603260D01*
X134462068Y-100890158D01*
X134574010Y-101160411D01*
X134736525Y-101403632D01*
X134943368Y-101610475D01*
X135117760Y-101727000D01*
X134943368Y-101843525D01*
X134736525Y-102050368D01*
X134574010Y-102293589D01*
X134462068Y-102563842D01*
X134405000Y-102850740D01*
X134405000Y-103143260D01*
X134462068Y-103430158D01*
X134574010Y-103700411D01*
X134736525Y-103943632D01*
X134943368Y-104150475D01*
X135186589Y-104312990D01*
X135456842Y-104424932D01*
X135743740Y-104482000D01*
X136036260Y-104482000D01*
X136323158Y-104424932D01*
X136593411Y-104312990D01*
X136836632Y-104150475D01*
X137043475Y-103943632D01*
X137160000Y-103769240D01*
X137276525Y-103943632D01*
X137483368Y-104150475D01*
X137726589Y-104312990D01*
X137996842Y-104424932D01*
X138283740Y-104482000D01*
X138576260Y-104482000D01*
X138863158Y-104424932D01*
X139133411Y-104312990D01*
X139376632Y-104150475D01*
X139583475Y-103943632D01*
X139700000Y-103769240D01*
X139816525Y-103943632D01*
X140023368Y-104150475D01*
X140266589Y-104312990D01*
X140536842Y-104424932D01*
X140823740Y-104482000D01*
X141116260Y-104482000D01*
X141403158Y-104424932D01*
X141673411Y-104312990D01*
X141916632Y-104150475D01*
X142123475Y-103943632D01*
X142240000Y-103769240D01*
X142356525Y-103943632D01*
X142563368Y-104150475D01*
X142806589Y-104312990D01*
X143076842Y-104424932D01*
X143363740Y-104482000D01*
X143656260Y-104482000D01*
X143943158Y-104424932D01*
X144213411Y-104312990D01*
X144456632Y-104150475D01*
X144663475Y-103943632D01*
X144780000Y-103769240D01*
X144896525Y-103943632D01*
X145103368Y-104150475D01*
X145346589Y-104312990D01*
X145616842Y-104424932D01*
X145903740Y-104482000D01*
X146196260Y-104482000D01*
X146483158Y-104424932D01*
X146753411Y-104312990D01*
X146996632Y-104150475D01*
X147203475Y-103943632D01*
X147365990Y-103700411D01*
X147477932Y-103430158D01*
X147535000Y-103143260D01*
X147535000Y-102850740D01*
X147477932Y-102563842D01*
X147365990Y-102293589D01*
X147203475Y-102050368D01*
X147071620Y-101918513D01*
X147144180Y-101896502D01*
X147254494Y-101837537D01*
X147351185Y-101758185D01*
X147430537Y-101661494D01*
X147489502Y-101551180D01*
X147525812Y-101431482D01*
X147538072Y-101307000D01*
X147538072Y-99607000D01*
X147525812Y-99482518D01*
X147489502Y-99362820D01*
X147430537Y-99252506D01*
X147351185Y-99155815D01*
X147254494Y-99076463D01*
X147223695Y-99060000D01*
X148718393Y-99060000D01*
X148723400Y-99110838D01*
X148723400Y-99161939D01*
X148733369Y-99212057D01*
X148738376Y-99262895D01*
X148753204Y-99311777D01*
X148763174Y-99361898D01*
X148782731Y-99409113D01*
X148797559Y-99457993D01*
X148821638Y-99503042D01*
X148841195Y-99550256D01*
X148869586Y-99592746D01*
X148893666Y-99637797D01*
X148926072Y-99677284D01*
X148954463Y-99719774D01*
X148990596Y-99755907D01*
X149023004Y-99795396D01*
X149062492Y-99827803D01*
X149098626Y-99863937D01*
X149141116Y-99892328D01*
X149180603Y-99924734D01*
X149225654Y-99948814D01*
X149268144Y-99977205D01*
X149315358Y-99996762D01*
X149360407Y-100020841D01*
X149409287Y-100035669D01*
X149456502Y-100055226D01*
X149506623Y-100065196D01*
X149555505Y-100080024D01*
X149606343Y-100085031D01*
X149656461Y-100095000D01*
X151393121Y-100095000D01*
X151337647Y-100228926D01*
X151282500Y-100506165D01*
X151282500Y-100788835D01*
X151337647Y-101066074D01*
X151445820Y-101327227D01*
X151602863Y-101562259D01*
X151802741Y-101762137D01*
X152037773Y-101919180D01*
X152298926Y-102027353D01*
X152576165Y-102082500D01*
X152858835Y-102082500D01*
X153136074Y-102027353D01*
X153397227Y-101919180D01*
X153632259Y-101762137D01*
X153832137Y-101562259D01*
X153987500Y-101329741D01*
X154142863Y-101562259D01*
X154342741Y-101762137D01*
X154577773Y-101919180D01*
X154838926Y-102027353D01*
X155116165Y-102082500D01*
X155398835Y-102082500D01*
X155676074Y-102027353D01*
X155937227Y-101919180D01*
X156172259Y-101762137D01*
X156372137Y-101562259D01*
X156527500Y-101329741D01*
X156682863Y-101562259D01*
X156882741Y-101762137D01*
X157117773Y-101919180D01*
X157378926Y-102027353D01*
X157656165Y-102082500D01*
X157938835Y-102082500D01*
X158216074Y-102027353D01*
X158477227Y-101919180D01*
X158712259Y-101762137D01*
X158912137Y-101562259D01*
X159067500Y-101329741D01*
X159222863Y-101562259D01*
X159422741Y-101762137D01*
X159657773Y-101919180D01*
X159918926Y-102027353D01*
X160196165Y-102082500D01*
X160478835Y-102082500D01*
X160756074Y-102027353D01*
X161017227Y-101919180D01*
X161252259Y-101762137D01*
X161452137Y-101562259D01*
X161607500Y-101329741D01*
X161762863Y-101562259D01*
X161962741Y-101762137D01*
X162197773Y-101919180D01*
X162458926Y-102027353D01*
X162736165Y-102082500D01*
X163018835Y-102082500D01*
X163296074Y-102027353D01*
X163557227Y-101919180D01*
X163792259Y-101762137D01*
X163992137Y-101562259D01*
X164147500Y-101329741D01*
X164302863Y-101562259D01*
X164502741Y-101762137D01*
X164737773Y-101919180D01*
X164998926Y-102027353D01*
X165276165Y-102082500D01*
X165558835Y-102082500D01*
X165836074Y-102027353D01*
X166097227Y-101919180D01*
X166332259Y-101762137D01*
X166532137Y-101562259D01*
X166687500Y-101329741D01*
X166842863Y-101562259D01*
X167042741Y-101762137D01*
X167277773Y-101919180D01*
X167538926Y-102027353D01*
X167816165Y-102082500D01*
X168098835Y-102082500D01*
X168376074Y-102027353D01*
X168637227Y-101919180D01*
X168872259Y-101762137D01*
X169072137Y-101562259D01*
X169229180Y-101327227D01*
X169337353Y-101066074D01*
X169392500Y-100788835D01*
X169392500Y-100506165D01*
X169951500Y-100506165D01*
X169951500Y-100788835D01*
X170006647Y-101066074D01*
X170114820Y-101327227D01*
X170271863Y-101562259D01*
X170471741Y-101762137D01*
X170706773Y-101919180D01*
X170967926Y-102027353D01*
X171245165Y-102082500D01*
X171527835Y-102082500D01*
X171805074Y-102027353D01*
X172066227Y-101919180D01*
X172301259Y-101762137D01*
X172380896Y-101682500D01*
X176542672Y-101682500D01*
X176593500Y-101687506D01*
X176644328Y-101682500D01*
X176644338Y-101682500D01*
X176796395Y-101667524D01*
X176991493Y-101608341D01*
X177171297Y-101512234D01*
X177328896Y-101382896D01*
X177361307Y-101343403D01*
X188088711Y-90616000D01*
X188091486Y-90616000D01*
X188349405Y-90564696D01*
X188592359Y-90464061D01*
X188811013Y-90317962D01*
X188996962Y-90132013D01*
X189143061Y-89913359D01*
X189243696Y-89670405D01*
X189295000Y-89412486D01*
X189295000Y-89149514D01*
X189243696Y-88891595D01*
X189143061Y-88648641D01*
X188996962Y-88429987D01*
X188811013Y-88244038D01*
X188592359Y-88097939D01*
X188349405Y-87997304D01*
X188091486Y-87946000D01*
X187828514Y-87946000D01*
X187570595Y-87997304D01*
X187327641Y-88097939D01*
X187108987Y-88244038D01*
X186923038Y-88429987D01*
X186776939Y-88648641D01*
X186690000Y-88858530D01*
X186603061Y-88648641D01*
X186456962Y-88429987D01*
X186271013Y-88244038D01*
X186052359Y-88097939D01*
X185809405Y-87997304D01*
X185551486Y-87946000D01*
X185288514Y-87946000D01*
X185030595Y-87997304D01*
X184787641Y-88097939D01*
X184568987Y-88244038D01*
X184383038Y-88429987D01*
X184236939Y-88648641D01*
X184136304Y-88891595D01*
X184085000Y-89149514D01*
X184085000Y-89412486D01*
X184136304Y-89670405D01*
X184236939Y-89913359D01*
X184383038Y-90132013D01*
X184568987Y-90317962D01*
X184787641Y-90464061D01*
X185030595Y-90564696D01*
X185182397Y-90594892D01*
X176164790Y-99612500D01*
X172380896Y-99612500D01*
X172301259Y-99532863D01*
X172066227Y-99375820D01*
X171805074Y-99267647D01*
X171527835Y-99212500D01*
X171245165Y-99212500D01*
X170967926Y-99267647D01*
X170706773Y-99375820D01*
X170471741Y-99532863D01*
X170271863Y-99732741D01*
X170114820Y-99967773D01*
X170006647Y-100228926D01*
X169951500Y-100506165D01*
X169392500Y-100506165D01*
X169337353Y-100228926D01*
X169229180Y-99967773D01*
X169072137Y-99732741D01*
X168872259Y-99532863D01*
X168637227Y-99375820D01*
X168376074Y-99267647D01*
X168098835Y-99212500D01*
X167816165Y-99212500D01*
X167567647Y-99261934D01*
X166669809Y-98364097D01*
X166637398Y-98324604D01*
X166479799Y-98195266D01*
X166299995Y-98099159D01*
X166104897Y-98039976D01*
X165952840Y-98025000D01*
X165952830Y-98025000D01*
X165902002Y-98019994D01*
X165851174Y-98025000D01*
X149656461Y-98025000D01*
X149606343Y-98034969D01*
X149555505Y-98039976D01*
X149506623Y-98054804D01*
X149456502Y-98064774D01*
X149409287Y-98084331D01*
X149360407Y-98099159D01*
X149315358Y-98123238D01*
X149268144Y-98142795D01*
X149225654Y-98171186D01*
X149180603Y-98195266D01*
X149141116Y-98227672D01*
X149098626Y-98256063D01*
X149062492Y-98292197D01*
X149023004Y-98324604D01*
X148990597Y-98364092D01*
X148954463Y-98400226D01*
X148926072Y-98442716D01*
X148893666Y-98482203D01*
X148869586Y-98527254D01*
X148841195Y-98569744D01*
X148821638Y-98616958D01*
X148797559Y-98662007D01*
X148782731Y-98710887D01*
X148763174Y-98758102D01*
X148753204Y-98808223D01*
X148738376Y-98857105D01*
X148733369Y-98907943D01*
X148723400Y-98958061D01*
X148723400Y-99009162D01*
X148718393Y-99060000D01*
X147223695Y-99060000D01*
X147144180Y-99017498D01*
X147024482Y-98981188D01*
X146900000Y-98968928D01*
X145445001Y-98968928D01*
X145445001Y-96625000D01*
X149137802Y-92932200D01*
X149199939Y-92932200D01*
X149399898Y-92892426D01*
X149415013Y-92886165D01*
X153822500Y-92886165D01*
X153822500Y-93168835D01*
X153877647Y-93446074D01*
X153985820Y-93707227D01*
X154142863Y-93942259D01*
X154342741Y-94142137D01*
X154577773Y-94299180D01*
X154838926Y-94407353D01*
X155116165Y-94462500D01*
X155398835Y-94462500D01*
X155676074Y-94407353D01*
X155937227Y-94299180D01*
X156172259Y-94142137D01*
X156372137Y-93942259D01*
X156527500Y-93709741D01*
X156682863Y-93942259D01*
X156882741Y-94142137D01*
X157117773Y-94299180D01*
X157378926Y-94407353D01*
X157656165Y-94462500D01*
X157938835Y-94462500D01*
X158216074Y-94407353D01*
X158477227Y-94299180D01*
X158712259Y-94142137D01*
X158912137Y-93942259D01*
X159067500Y-93709741D01*
X159222863Y-93942259D01*
X159422741Y-94142137D01*
X159657773Y-94299180D01*
X159918926Y-94407353D01*
X160196165Y-94462500D01*
X160478835Y-94462500D01*
X160756074Y-94407353D01*
X161017227Y-94299180D01*
X161252259Y-94142137D01*
X161452137Y-93942259D01*
X161607500Y-93709741D01*
X161762863Y-93942259D01*
X161962741Y-94142137D01*
X162197773Y-94299180D01*
X162458926Y-94407353D01*
X162736165Y-94462500D01*
X163018835Y-94462500D01*
X163296074Y-94407353D01*
X163557227Y-94299180D01*
X163792259Y-94142137D01*
X163992137Y-93942259D01*
X164147500Y-93709741D01*
X164302863Y-93942259D01*
X164502741Y-94142137D01*
X164737773Y-94299180D01*
X164998926Y-94407353D01*
X165276165Y-94462500D01*
X165558835Y-94462500D01*
X165836074Y-94407353D01*
X166097227Y-94299180D01*
X166332259Y-94142137D01*
X166530857Y-93943539D01*
X166531688Y-93951982D01*
X166567998Y-94071680D01*
X166626963Y-94181994D01*
X166706315Y-94278685D01*
X166803006Y-94358037D01*
X166913320Y-94417002D01*
X167033018Y-94453312D01*
X167157500Y-94465572D01*
X168757500Y-94465572D01*
X168881982Y-94453312D01*
X169001680Y-94417002D01*
X169111994Y-94358037D01*
X169208685Y-94278685D01*
X169288037Y-94181994D01*
X169347002Y-94071680D01*
X169383312Y-93951982D01*
X169395572Y-93827500D01*
X169395572Y-92227500D01*
X169383312Y-92103018D01*
X169347002Y-91983320D01*
X169288037Y-91873006D01*
X169208685Y-91776315D01*
X169111994Y-91696963D01*
X169001680Y-91637998D01*
X168881982Y-91601688D01*
X168757500Y-91589428D01*
X167157500Y-91589428D01*
X167033018Y-91601688D01*
X166913320Y-91637998D01*
X166803006Y-91696963D01*
X166706315Y-91776315D01*
X166626963Y-91873006D01*
X166567998Y-91983320D01*
X166531688Y-92103018D01*
X166530857Y-92111461D01*
X166332259Y-91912863D01*
X166097227Y-91755820D01*
X165836074Y-91647647D01*
X165558835Y-91592500D01*
X165276165Y-91592500D01*
X164998926Y-91647647D01*
X164737773Y-91755820D01*
X164502741Y-91912863D01*
X164302863Y-92112741D01*
X164147500Y-92345259D01*
X163992137Y-92112741D01*
X163792259Y-91912863D01*
X163557227Y-91755820D01*
X163296074Y-91647647D01*
X163018835Y-91592500D01*
X162736165Y-91592500D01*
X162458926Y-91647647D01*
X162197773Y-91755820D01*
X161962741Y-91912863D01*
X161762863Y-92112741D01*
X161607500Y-92345259D01*
X161452137Y-92112741D01*
X161252259Y-91912863D01*
X161017227Y-91755820D01*
X160756074Y-91647647D01*
X160478835Y-91592500D01*
X160196165Y-91592500D01*
X159918926Y-91647647D01*
X159657773Y-91755820D01*
X159422741Y-91912863D01*
X159222863Y-92112741D01*
X159067500Y-92345259D01*
X158912137Y-92112741D01*
X158712259Y-91912863D01*
X158477227Y-91755820D01*
X158216074Y-91647647D01*
X157938835Y-91592500D01*
X157656165Y-91592500D01*
X157378926Y-91647647D01*
X157117773Y-91755820D01*
X156882741Y-91912863D01*
X156682863Y-92112741D01*
X156527500Y-92345259D01*
X156372137Y-92112741D01*
X156172259Y-91912863D01*
X155937227Y-91755820D01*
X155676074Y-91647647D01*
X155398835Y-91592500D01*
X155116165Y-91592500D01*
X154838926Y-91647647D01*
X154577773Y-91755820D01*
X154342741Y-91912863D01*
X154142863Y-92112741D01*
X153985820Y-92347773D01*
X153877647Y-92608926D01*
X153822500Y-92886165D01*
X149415013Y-92886165D01*
X149588256Y-92814405D01*
X149757774Y-92701137D01*
X149901937Y-92556974D01*
X150015205Y-92387456D01*
X150093226Y-92199098D01*
X150133000Y-91999139D01*
X150133000Y-91795261D01*
X150093226Y-91595302D01*
X150015205Y-91406944D01*
X149901937Y-91237426D01*
X149757774Y-91093263D01*
X149588256Y-90979995D01*
X149399898Y-90901974D01*
X149199939Y-90862200D01*
X148996061Y-90862200D01*
X148796102Y-90901974D01*
X148607744Y-90979995D01*
X148438226Y-91093263D01*
X148294063Y-91237426D01*
X148180795Y-91406944D01*
X148102774Y-91595302D01*
X148063000Y-91795261D01*
X148063000Y-91857398D01*
X144173999Y-95746400D01*
X144145001Y-95770198D01*
X144121203Y-95799196D01*
X144121202Y-95799197D01*
X144050027Y-95885923D01*
X143979455Y-96017953D01*
X143935999Y-96161214D01*
X143921325Y-96310199D01*
X143925002Y-96347531D01*
X143925002Y-99025456D01*
X143656260Y-98972000D01*
X143363740Y-98972000D01*
X143076842Y-99029068D01*
X142806589Y-99141010D01*
X142563368Y-99303525D01*
X142356525Y-99510368D01*
X142240000Y-99684760D01*
X142123475Y-99510368D01*
X141916632Y-99303525D01*
X141673411Y-99141010D01*
X141403158Y-99029068D01*
X141116260Y-98972000D01*
X140823740Y-98972000D01*
X140536842Y-99029068D01*
X140266589Y-99141010D01*
X140023368Y-99303525D01*
X139816525Y-99510368D01*
X139700000Y-99684760D01*
X139583475Y-99510368D01*
X139376632Y-99303525D01*
X139133411Y-99141010D01*
X138863158Y-99029068D01*
X138576260Y-98972000D01*
X138283740Y-98972000D01*
X137996842Y-99029068D01*
X137726589Y-99141010D01*
X137483368Y-99303525D01*
X137276525Y-99510368D01*
X137160000Y-99684760D01*
X137043475Y-99510368D01*
X136836632Y-99303525D01*
X136593411Y-99141010D01*
X136323158Y-99029068D01*
X136036260Y-98972000D01*
X135743740Y-98972000D01*
X135456842Y-99029068D01*
X135186589Y-99141010D01*
X134943368Y-99303525D01*
X134736525Y-99510368D01*
X134574010Y-99753589D01*
X134462068Y-100023842D01*
X134405000Y-100310740D01*
X60350000Y-100310740D01*
X60350000Y-86657721D01*
X67588000Y-86657721D01*
X67588000Y-87078279D01*
X67670047Y-87490756D01*
X67830988Y-87879302D01*
X68064637Y-88228983D01*
X68362017Y-88526363D01*
X68711698Y-88760012D01*
X69100244Y-88920953D01*
X69512721Y-89003000D01*
X69933279Y-89003000D01*
X70345756Y-88920953D01*
X70734302Y-88760012D01*
X71083983Y-88526363D01*
X71381363Y-88228983D01*
X71615012Y-87879302D01*
X71775953Y-87490756D01*
X71858000Y-87078279D01*
X71858000Y-86657721D01*
X83818000Y-86657721D01*
X83818000Y-87078279D01*
X83900047Y-87490756D01*
X84060988Y-87879302D01*
X84294637Y-88228983D01*
X84592017Y-88526363D01*
X84941698Y-88760012D01*
X85330244Y-88920953D01*
X85742721Y-89003000D01*
X86163279Y-89003000D01*
X86575756Y-88920953D01*
X86964302Y-88760012D01*
X87313983Y-88526363D01*
X87611363Y-88228983D01*
X87845012Y-87879302D01*
X87998000Y-87509956D01*
X88150988Y-87879302D01*
X88384637Y-88228983D01*
X88682017Y-88526363D01*
X89031698Y-88760012D01*
X89420244Y-88920953D01*
X89832721Y-89003000D01*
X90253279Y-89003000D01*
X90665756Y-88920953D01*
X91054302Y-88760012D01*
X91403983Y-88526363D01*
X91701363Y-88228983D01*
X91935012Y-87879302D01*
X92095953Y-87490756D01*
X92178000Y-87078279D01*
X92178000Y-86657721D01*
X104138000Y-86657721D01*
X104138000Y-87078279D01*
X104220047Y-87490756D01*
X104380988Y-87879302D01*
X104614637Y-88228983D01*
X104912017Y-88526363D01*
X105261698Y-88760012D01*
X105650244Y-88920953D01*
X106062721Y-89003000D01*
X106483279Y-89003000D01*
X106895756Y-88920953D01*
X107284302Y-88760012D01*
X107633983Y-88526363D01*
X107931363Y-88228983D01*
X108165012Y-87879302D01*
X108318000Y-87509956D01*
X108470988Y-87879302D01*
X108704637Y-88228983D01*
X109002017Y-88526363D01*
X109351698Y-88760012D01*
X109740244Y-88920953D01*
X110152721Y-89003000D01*
X110573279Y-89003000D01*
X110985756Y-88920953D01*
X111374302Y-88760012D01*
X111723983Y-88526363D01*
X112021363Y-88228983D01*
X112255012Y-87879302D01*
X112415953Y-87490756D01*
X112498000Y-87078279D01*
X112498000Y-86657721D01*
X112415953Y-86245244D01*
X112255012Y-85856698D01*
X112021363Y-85507017D01*
X111723983Y-85209637D01*
X111374302Y-84975988D01*
X110985756Y-84815047D01*
X110573279Y-84733000D01*
X110152721Y-84733000D01*
X109740244Y-84815047D01*
X109351698Y-84975988D01*
X109002017Y-85209637D01*
X108704637Y-85507017D01*
X108470988Y-85856698D01*
X108318000Y-86226044D01*
X108165012Y-85856698D01*
X107931363Y-85507017D01*
X107633983Y-85209637D01*
X107284302Y-84975988D01*
X106895756Y-84815047D01*
X106483279Y-84733000D01*
X106062721Y-84733000D01*
X105650244Y-84815047D01*
X105261698Y-84975988D01*
X104912017Y-85209637D01*
X104614637Y-85507017D01*
X104380988Y-85856698D01*
X104220047Y-86245244D01*
X104138000Y-86657721D01*
X92178000Y-86657721D01*
X92095953Y-86245244D01*
X91935012Y-85856698D01*
X91701363Y-85507017D01*
X91403983Y-85209637D01*
X91054302Y-84975988D01*
X90665756Y-84815047D01*
X90253279Y-84733000D01*
X89832721Y-84733000D01*
X89420244Y-84815047D01*
X89031698Y-84975988D01*
X88682017Y-85209637D01*
X88384637Y-85507017D01*
X88150988Y-85856698D01*
X87998000Y-86226044D01*
X87845012Y-85856698D01*
X87611363Y-85507017D01*
X87313983Y-85209637D01*
X86964302Y-84975988D01*
X86575756Y-84815047D01*
X86163279Y-84733000D01*
X85742721Y-84733000D01*
X85330244Y-84815047D01*
X84941698Y-84975988D01*
X84592017Y-85209637D01*
X84294637Y-85507017D01*
X84060988Y-85856698D01*
X83900047Y-86245244D01*
X83818000Y-86657721D01*
X71858000Y-86657721D01*
X71775953Y-86245244D01*
X71615012Y-85856698D01*
X71381363Y-85507017D01*
X71083983Y-85209637D01*
X70734302Y-84975988D01*
X70345756Y-84815047D01*
X69933279Y-84733000D01*
X69512721Y-84733000D01*
X69100244Y-84815047D01*
X68711698Y-84975988D01*
X68362017Y-85209637D01*
X68064637Y-85507017D01*
X67830988Y-85856698D01*
X67670047Y-86245244D01*
X67588000Y-86657721D01*
X60350000Y-86657721D01*
X60350000Y-73957721D01*
X83818000Y-73957721D01*
X83818000Y-74378279D01*
X83900047Y-74790756D01*
X84060988Y-75179302D01*
X84294637Y-75528983D01*
X84592017Y-75826363D01*
X84941698Y-76060012D01*
X85330244Y-76220953D01*
X85742721Y-76303000D01*
X86163279Y-76303000D01*
X86575756Y-76220953D01*
X86964302Y-76060012D01*
X87313983Y-75826363D01*
X87611363Y-75528983D01*
X87845012Y-75179302D01*
X88005953Y-74790756D01*
X88088000Y-74378279D01*
X88088000Y-73957721D01*
X104138000Y-73957721D01*
X104138000Y-74378279D01*
X104220047Y-74790756D01*
X104380988Y-75179302D01*
X104614637Y-75528983D01*
X104912017Y-75826363D01*
X105261698Y-76060012D01*
X105650244Y-76220953D01*
X106062721Y-76303000D01*
X106483279Y-76303000D01*
X106895756Y-76220953D01*
X107284302Y-76060012D01*
X107633983Y-75826363D01*
X107931363Y-75528983D01*
X108165012Y-75179302D01*
X108325953Y-74790756D01*
X108408000Y-74378279D01*
X108408000Y-73957721D01*
X124458000Y-73957721D01*
X124458000Y-74378279D01*
X124540047Y-74790756D01*
X124700988Y-75179302D01*
X124934637Y-75528983D01*
X125232017Y-75826363D01*
X125581698Y-76060012D01*
X125833001Y-76164105D01*
X125833000Y-84871895D01*
X125581698Y-84975988D01*
X125232017Y-85209637D01*
X124934637Y-85507017D01*
X124700988Y-85856698D01*
X124540047Y-86245244D01*
X124458000Y-86657721D01*
X124458000Y-87078279D01*
X124540047Y-87490756D01*
X124700988Y-87879302D01*
X124934637Y-88228983D01*
X125232017Y-88526363D01*
X125581698Y-88760012D01*
X125970244Y-88920953D01*
X126382721Y-89003000D01*
X126803279Y-89003000D01*
X127215756Y-88920953D01*
X127604302Y-88760012D01*
X127953983Y-88526363D01*
X128251363Y-88228983D01*
X128485012Y-87879302D01*
X128645953Y-87490756D01*
X128728000Y-87078279D01*
X128728000Y-86657721D01*
X128645953Y-86245244D01*
X128485012Y-85856698D01*
X128251363Y-85507017D01*
X127953983Y-85209637D01*
X127604302Y-84975988D01*
X127353000Y-84871895D01*
X127353000Y-82700000D01*
X131776928Y-82700000D01*
X131776928Y-84800000D01*
X131789188Y-84924482D01*
X131825498Y-85044180D01*
X131884463Y-85154494D01*
X131963815Y-85251185D01*
X132060506Y-85330537D01*
X132170820Y-85389502D01*
X132290518Y-85425812D01*
X132415000Y-85438072D01*
X134474298Y-85438072D01*
X134471772Y-85441853D01*
X134344754Y-85748504D01*
X134280000Y-86074042D01*
X134280000Y-86405958D01*
X134344754Y-86731496D01*
X134471772Y-87038147D01*
X134656175Y-87314125D01*
X134890875Y-87548825D01*
X135166853Y-87733228D01*
X135286248Y-87782683D01*
X135165987Y-87863038D01*
X134980038Y-88048987D01*
X134833939Y-88267641D01*
X134832127Y-88272017D01*
X134767962Y-88175987D01*
X134582013Y-87990038D01*
X134363359Y-87843939D01*
X134120405Y-87743304D01*
X133862486Y-87692000D01*
X133599514Y-87692000D01*
X133341595Y-87743304D01*
X133098641Y-87843939D01*
X132879987Y-87990038D01*
X132694038Y-88175987D01*
X132547939Y-88394641D01*
X132447304Y-88637595D01*
X132396000Y-88895514D01*
X132396000Y-89158486D01*
X132447304Y-89416405D01*
X132547939Y-89659359D01*
X132694038Y-89878013D01*
X132879987Y-90063962D01*
X133098641Y-90210061D01*
X133308530Y-90297000D01*
X133098641Y-90383939D01*
X132879987Y-90530038D01*
X132694038Y-90715987D01*
X132547939Y-90934641D01*
X132447304Y-91177595D01*
X132396000Y-91435514D01*
X132396000Y-91698486D01*
X132447304Y-91956405D01*
X132547939Y-92199359D01*
X132694038Y-92418013D01*
X132879987Y-92603962D01*
X133098641Y-92750061D01*
X133341595Y-92850696D01*
X133599514Y-92902000D01*
X133862486Y-92902000D01*
X134120405Y-92850696D01*
X134363359Y-92750061D01*
X134582013Y-92603962D01*
X134767962Y-92418013D01*
X134914061Y-92199359D01*
X134915873Y-92194983D01*
X134980038Y-92291013D01*
X135165987Y-92476962D01*
X135384641Y-92623061D01*
X135627595Y-92723696D01*
X135885514Y-92775000D01*
X136148486Y-92775000D01*
X136406405Y-92723696D01*
X136649359Y-92623061D01*
X136868013Y-92476962D01*
X137053962Y-92291013D01*
X137118127Y-92194983D01*
X137119939Y-92199359D01*
X137266038Y-92418013D01*
X137451987Y-92603962D01*
X137670641Y-92750061D01*
X137913595Y-92850696D01*
X138171514Y-92902000D01*
X138434486Y-92902000D01*
X138692405Y-92850696D01*
X138935359Y-92750061D01*
X139154013Y-92603962D01*
X139339962Y-92418013D01*
X139486061Y-92199359D01*
X139487873Y-92194983D01*
X139552038Y-92291013D01*
X139737987Y-92476962D01*
X139956641Y-92623061D01*
X140199595Y-92723696D01*
X140457514Y-92775000D01*
X140720486Y-92775000D01*
X140978405Y-92723696D01*
X141221359Y-92623061D01*
X141440013Y-92476962D01*
X141625962Y-92291013D01*
X141690127Y-92194983D01*
X141691939Y-92199359D01*
X141838038Y-92418013D01*
X142023987Y-92603962D01*
X142242641Y-92750061D01*
X142485595Y-92850696D01*
X142743514Y-92902000D01*
X143006486Y-92902000D01*
X143264405Y-92850696D01*
X143507359Y-92750061D01*
X143726013Y-92603962D01*
X143911962Y-92418013D01*
X144058061Y-92199359D01*
X144059873Y-92194983D01*
X144124038Y-92291013D01*
X144309987Y-92476962D01*
X144528641Y-92623061D01*
X144771595Y-92723696D01*
X145029514Y-92775000D01*
X145292486Y-92775000D01*
X145550405Y-92723696D01*
X145793359Y-92623061D01*
X146012013Y-92476962D01*
X146197962Y-92291013D01*
X146344061Y-92072359D01*
X146444696Y-91829405D01*
X146496000Y-91571486D01*
X146496000Y-91308514D01*
X146444696Y-91050595D01*
X146345867Y-90812001D01*
X165625177Y-90812001D01*
X165662499Y-90815677D01*
X165699821Y-90812001D01*
X165699832Y-90812001D01*
X165811485Y-90801004D01*
X165954746Y-90757547D01*
X166086775Y-90686975D01*
X166202500Y-90592002D01*
X166226303Y-90562999D01*
X166448656Y-90340645D01*
X166556014Y-90362000D01*
X166818986Y-90362000D01*
X167076905Y-90310696D01*
X167319859Y-90210061D01*
X167538513Y-90063962D01*
X167724462Y-89878013D01*
X167870561Y-89659359D01*
X167971196Y-89416405D01*
X168022500Y-89158486D01*
X168022500Y-88895514D01*
X167971196Y-88637595D01*
X167870561Y-88394641D01*
X167724462Y-88175987D01*
X167538513Y-87990038D01*
X167319859Y-87843939D01*
X167147863Y-87772696D01*
X167243147Y-87733228D01*
X167519125Y-87548825D01*
X167753825Y-87314125D01*
X167938228Y-87038147D01*
X168065246Y-86731496D01*
X168130000Y-86405958D01*
X168130000Y-86074042D01*
X174770000Y-86074042D01*
X174770000Y-86405958D01*
X174834754Y-86731496D01*
X174961772Y-87038147D01*
X175146175Y-87314125D01*
X175380875Y-87548825D01*
X175656853Y-87733228D01*
X175963504Y-87860246D01*
X176289042Y-87925000D01*
X176620958Y-87925000D01*
X176638616Y-87921488D01*
X176440987Y-88053538D01*
X176255038Y-88239487D01*
X176108939Y-88458141D01*
X176008304Y-88701095D01*
X175957000Y-88959014D01*
X175957000Y-89221986D01*
X176008304Y-89479905D01*
X176108939Y-89722859D01*
X176255038Y-89941513D01*
X176440987Y-90127462D01*
X176659641Y-90273561D01*
X176902595Y-90374196D01*
X177160514Y-90425500D01*
X177423486Y-90425500D01*
X177681405Y-90374196D01*
X177924359Y-90273561D01*
X178143013Y-90127462D01*
X178328962Y-89941513D01*
X178475061Y-89722859D01*
X178562000Y-89512970D01*
X178648939Y-89722859D01*
X178795038Y-89941513D01*
X178980987Y-90127462D01*
X179199641Y-90273561D01*
X179442595Y-90374196D01*
X179700514Y-90425500D01*
X179963486Y-90425500D01*
X180221405Y-90374196D01*
X180464359Y-90273561D01*
X180683013Y-90127462D01*
X180868962Y-89941513D01*
X181015061Y-89722859D01*
X181115696Y-89479905D01*
X181167000Y-89221986D01*
X181167000Y-88959014D01*
X181115696Y-88701095D01*
X181015061Y-88458141D01*
X180868962Y-88239487D01*
X180683013Y-88053538D01*
X180464359Y-87907439D01*
X180221405Y-87806804D01*
X179963486Y-87755500D01*
X179700514Y-87755500D01*
X179442595Y-87806804D01*
X179199641Y-87907439D01*
X178980987Y-88053538D01*
X178795038Y-88239487D01*
X178648939Y-88458141D01*
X178562000Y-88668030D01*
X178475061Y-88458141D01*
X178328962Y-88239487D01*
X178143013Y-88053538D01*
X177924359Y-87907439D01*
X177681405Y-87806804D01*
X177423486Y-87755500D01*
X177199377Y-87755500D01*
X177253147Y-87733228D01*
X177529125Y-87548825D01*
X177763825Y-87314125D01*
X177948228Y-87038147D01*
X178075246Y-86731496D01*
X178140000Y-86405958D01*
X178140000Y-86074042D01*
X178075246Y-85748504D01*
X177948228Y-85441853D01*
X177763825Y-85165875D01*
X177529125Y-84931175D01*
X177253147Y-84746772D01*
X176946496Y-84619754D01*
X176620958Y-84555000D01*
X176289042Y-84555000D01*
X175963504Y-84619754D01*
X175656853Y-84746772D01*
X175380875Y-84931175D01*
X175146175Y-85165875D01*
X174961772Y-85441853D01*
X174834754Y-85748504D01*
X174770000Y-86074042D01*
X168130000Y-86074042D01*
X168065246Y-85748504D01*
X167938228Y-85441853D01*
X167753825Y-85165875D01*
X167519125Y-84931175D01*
X167243147Y-84746772D01*
X166936496Y-84619754D01*
X166610958Y-84555000D01*
X166279042Y-84555000D01*
X165953504Y-84619754D01*
X165646853Y-84746772D01*
X165633072Y-84755980D01*
X165633072Y-83584042D01*
X177270000Y-83584042D01*
X177270000Y-83915958D01*
X177334754Y-84241496D01*
X177461772Y-84548147D01*
X177646175Y-84824125D01*
X177880875Y-85058825D01*
X178156853Y-85243228D01*
X178463504Y-85370246D01*
X178789042Y-85435000D01*
X179120958Y-85435000D01*
X179446496Y-85370246D01*
X179753147Y-85243228D01*
X180029125Y-85058825D01*
X180263825Y-84824125D01*
X180448228Y-84548147D01*
X180575246Y-84241496D01*
X180640000Y-83915958D01*
X180640000Y-83584042D01*
X180575246Y-83258504D01*
X180448228Y-82951853D01*
X180279945Y-82700000D01*
X183846928Y-82700000D01*
X183846928Y-84800000D01*
X183859188Y-84924482D01*
X183895498Y-85044180D01*
X183954463Y-85154494D01*
X184033815Y-85251185D01*
X184130506Y-85330537D01*
X184240820Y-85389502D01*
X184360518Y-85425812D01*
X184485000Y-85438072D01*
X186544298Y-85438072D01*
X186541772Y-85441853D01*
X186414754Y-85748504D01*
X186350000Y-86074042D01*
X186350000Y-86405958D01*
X186414754Y-86731496D01*
X186541772Y-87038147D01*
X186726175Y-87314125D01*
X186960875Y-87548825D01*
X187236853Y-87733228D01*
X187543504Y-87860246D01*
X187869042Y-87925000D01*
X188200958Y-87925000D01*
X188526496Y-87860246D01*
X188833147Y-87733228D01*
X189109125Y-87548825D01*
X189343825Y-87314125D01*
X189528228Y-87038147D01*
X189655246Y-86731496D01*
X189720000Y-86405958D01*
X189720000Y-86074042D01*
X196360000Y-86074042D01*
X196360000Y-86405958D01*
X196424754Y-86731496D01*
X196551772Y-87038147D01*
X196736175Y-87314125D01*
X196970875Y-87548825D01*
X197246853Y-87733228D01*
X197553504Y-87860246D01*
X197879042Y-87925000D01*
X198210958Y-87925000D01*
X198254417Y-87916355D01*
X198122641Y-87970939D01*
X197903987Y-88117038D01*
X197718038Y-88302987D01*
X197571939Y-88521641D01*
X197471304Y-88764595D01*
X197420000Y-89022514D01*
X197420000Y-89285486D01*
X197471304Y-89543405D01*
X197571939Y-89786359D01*
X197718038Y-90005013D01*
X197903987Y-90190962D01*
X198122641Y-90337061D01*
X198365595Y-90437696D01*
X198623514Y-90489000D01*
X198886486Y-90489000D01*
X199144405Y-90437696D01*
X199387359Y-90337061D01*
X199606013Y-90190962D01*
X199791962Y-90005013D01*
X199938061Y-89786359D01*
X200025000Y-89576470D01*
X200111939Y-89786359D01*
X200258038Y-90005013D01*
X200443987Y-90190962D01*
X200662641Y-90337061D01*
X200905595Y-90437696D01*
X201163514Y-90489000D01*
X201426486Y-90489000D01*
X201684405Y-90437696D01*
X201927359Y-90337061D01*
X202146013Y-90190962D01*
X202331962Y-90005013D01*
X202478061Y-89786359D01*
X202578696Y-89543405D01*
X202630000Y-89285486D01*
X202630000Y-89022514D01*
X202617369Y-88959014D01*
X205357500Y-88959014D01*
X205357500Y-89221986D01*
X205408804Y-89479905D01*
X205509439Y-89722859D01*
X205655538Y-89941513D01*
X205841487Y-90127462D01*
X206060141Y-90273561D01*
X206303095Y-90374196D01*
X206561014Y-90425500D01*
X206823986Y-90425500D01*
X207081905Y-90374196D01*
X207324859Y-90273561D01*
X207543513Y-90127462D01*
X207729462Y-89941513D01*
X207875561Y-89722859D01*
X207962500Y-89512970D01*
X208049439Y-89722859D01*
X208195538Y-89941513D01*
X208381487Y-90127462D01*
X208600141Y-90273561D01*
X208843095Y-90374196D01*
X209101014Y-90425500D01*
X209103790Y-90425500D01*
X213264186Y-94585897D01*
X213296594Y-94625386D01*
X213336082Y-94657793D01*
X213454192Y-94754724D01*
X213550299Y-94806094D01*
X213633997Y-94850831D01*
X213829095Y-94910014D01*
X213981152Y-94924990D01*
X213981155Y-94924990D01*
X214031990Y-94929997D01*
X214082825Y-94924990D01*
X225160280Y-94924990D01*
X226884000Y-96648711D01*
X226884000Y-96651486D01*
X226935304Y-96909405D01*
X227035939Y-97152359D01*
X227182038Y-97371013D01*
X227367987Y-97556962D01*
X227586641Y-97703061D01*
X227796530Y-97790000D01*
X227586641Y-97876939D01*
X227367987Y-98023038D01*
X227182038Y-98208987D01*
X227035939Y-98427641D01*
X226935304Y-98670595D01*
X226884000Y-98928514D01*
X226884000Y-99191486D01*
X226935304Y-99449405D01*
X227035939Y-99692359D01*
X227182038Y-99911013D01*
X227367987Y-100096962D01*
X227586641Y-100243061D01*
X227829595Y-100343696D01*
X228087514Y-100395000D01*
X228350486Y-100395000D01*
X228608405Y-100343696D01*
X228851359Y-100243061D01*
X229070013Y-100096962D01*
X229255962Y-99911013D01*
X229402061Y-99692359D01*
X229502696Y-99449405D01*
X229554000Y-99191486D01*
X229554000Y-98928514D01*
X229552041Y-98918665D01*
X229578000Y-98918665D01*
X229578000Y-99201335D01*
X229633147Y-99478574D01*
X229741320Y-99739727D01*
X229898363Y-99974759D01*
X230098241Y-100174637D01*
X230333273Y-100331680D01*
X230594426Y-100439853D01*
X230871665Y-100495000D01*
X231154335Y-100495000D01*
X231431574Y-100439853D01*
X231692727Y-100331680D01*
X231927759Y-100174637D01*
X232127637Y-99974759D01*
X232284680Y-99739727D01*
X232392853Y-99478574D01*
X232448000Y-99201335D01*
X232448000Y-98918665D01*
X232392853Y-98641426D01*
X232284680Y-98380273D01*
X232127637Y-98145241D01*
X231927759Y-97945363D01*
X231692727Y-97788320D01*
X231431574Y-97680147D01*
X231154335Y-97625000D01*
X230871665Y-97625000D01*
X230594426Y-97680147D01*
X230333273Y-97788320D01*
X230098241Y-97945363D01*
X229898363Y-98145241D01*
X229741320Y-98380273D01*
X229633147Y-98641426D01*
X229578000Y-98918665D01*
X229552041Y-98918665D01*
X229502696Y-98670595D01*
X229402061Y-98427641D01*
X229255962Y-98208987D01*
X229070013Y-98023038D01*
X228851359Y-97876939D01*
X228641470Y-97790000D01*
X228851359Y-97703061D01*
X229070013Y-97556962D01*
X229071975Y-97555000D01*
X233124290Y-97555000D01*
X234658000Y-99088711D01*
X234658000Y-99201335D01*
X234713147Y-99478574D01*
X234821320Y-99739727D01*
X234978363Y-99974759D01*
X235178241Y-100174637D01*
X235413273Y-100331680D01*
X235674426Y-100439853D01*
X235951665Y-100495000D01*
X236234335Y-100495000D01*
X236511574Y-100439853D01*
X236772727Y-100331680D01*
X237007759Y-100174637D01*
X237087396Y-100095000D01*
X238400604Y-100095000D01*
X238480241Y-100174637D01*
X238715273Y-100331680D01*
X238976426Y-100439853D01*
X239253665Y-100495000D01*
X239536335Y-100495000D01*
X239813574Y-100439853D01*
X240074727Y-100331680D01*
X240309759Y-100174637D01*
X240509637Y-99974759D01*
X240666680Y-99739727D01*
X240774853Y-99478574D01*
X240830000Y-99201335D01*
X240830000Y-98918665D01*
X240774853Y-98641426D01*
X240666680Y-98380273D01*
X240509637Y-98145241D01*
X240309759Y-97945363D01*
X240074727Y-97788320D01*
X239813574Y-97680147D01*
X239536335Y-97625000D01*
X239253665Y-97625000D01*
X238976426Y-97680147D01*
X238715273Y-97788320D01*
X238480241Y-97945363D01*
X238400604Y-98025000D01*
X237087396Y-98025000D01*
X237007759Y-97945363D01*
X236772727Y-97788320D01*
X236511574Y-97680147D01*
X236234335Y-97625000D01*
X236121711Y-97625000D01*
X234320807Y-95824097D01*
X234288396Y-95784604D01*
X234130797Y-95655266D01*
X233950993Y-95559159D01*
X233755895Y-95499976D01*
X233603838Y-95485000D01*
X233603828Y-95485000D01*
X233553000Y-95479994D01*
X233502172Y-95485000D01*
X229071975Y-95485000D01*
X229070013Y-95483038D01*
X228851359Y-95336939D01*
X228608405Y-95236304D01*
X228350486Y-95185000D01*
X228347711Y-95185000D01*
X226356797Y-93194087D01*
X226324386Y-93154594D01*
X226166787Y-93025256D01*
X225986983Y-92929149D01*
X225791885Y-92869966D01*
X225639828Y-92854990D01*
X225639818Y-92854990D01*
X225588990Y-92849984D01*
X225538162Y-92854990D01*
X214460701Y-92854990D01*
X210818725Y-89213014D01*
X218438500Y-89213014D01*
X218438500Y-89475986D01*
X218489804Y-89733905D01*
X218590439Y-89976859D01*
X218736538Y-90195513D01*
X218922487Y-90381462D01*
X219141141Y-90527561D01*
X219384095Y-90628196D01*
X219642014Y-90679500D01*
X219904986Y-90679500D01*
X220162905Y-90628196D01*
X220405859Y-90527561D01*
X220624513Y-90381462D01*
X220810462Y-90195513D01*
X220956561Y-89976859D01*
X221043500Y-89766970D01*
X221130439Y-89976859D01*
X221276538Y-90195513D01*
X221462487Y-90381462D01*
X221681141Y-90527561D01*
X221924095Y-90628196D01*
X222182014Y-90679500D01*
X222444986Y-90679500D01*
X222702905Y-90628196D01*
X222945859Y-90527561D01*
X223164513Y-90381462D01*
X223350462Y-90195513D01*
X223496561Y-89976859D01*
X223597196Y-89733905D01*
X223648500Y-89475986D01*
X223648500Y-89213014D01*
X223597196Y-88955095D01*
X223496561Y-88712141D01*
X223350462Y-88493487D01*
X223164513Y-88307538D01*
X222945859Y-88161439D01*
X222702905Y-88060804D01*
X222444986Y-88009500D01*
X222182014Y-88009500D01*
X221924095Y-88060804D01*
X221681141Y-88161439D01*
X221462487Y-88307538D01*
X221276538Y-88493487D01*
X221130439Y-88712141D01*
X221043500Y-88922030D01*
X220956561Y-88712141D01*
X220810462Y-88493487D01*
X220624513Y-88307538D01*
X220405859Y-88161439D01*
X220162905Y-88060804D01*
X219904986Y-88009500D01*
X219642014Y-88009500D01*
X219384095Y-88060804D01*
X219141141Y-88161439D01*
X218922487Y-88307538D01*
X218736538Y-88493487D01*
X218590439Y-88712141D01*
X218489804Y-88955095D01*
X218438500Y-89213014D01*
X210818725Y-89213014D01*
X210567500Y-88961790D01*
X210567500Y-88959014D01*
X210516196Y-88701095D01*
X210415561Y-88458141D01*
X210269462Y-88239487D01*
X210083513Y-88053538D01*
X209868159Y-87909644D01*
X210116496Y-87860246D01*
X210423147Y-87733228D01*
X210699125Y-87548825D01*
X210933825Y-87314125D01*
X211118228Y-87038147D01*
X211245246Y-86731496D01*
X211310000Y-86405958D01*
X211310000Y-86074042D01*
X217950000Y-86074042D01*
X217950000Y-86405958D01*
X218014754Y-86731496D01*
X218141772Y-87038147D01*
X218326175Y-87314125D01*
X218560875Y-87548825D01*
X218836853Y-87733228D01*
X219143504Y-87860246D01*
X219469042Y-87925000D01*
X219800958Y-87925000D01*
X220126496Y-87860246D01*
X220433147Y-87733228D01*
X220709125Y-87548825D01*
X220943825Y-87314125D01*
X221128228Y-87038147D01*
X221255246Y-86731496D01*
X221320000Y-86405958D01*
X221320000Y-86074042D01*
X221255246Y-85748504D01*
X221128228Y-85441853D01*
X220943825Y-85165875D01*
X220709125Y-84931175D01*
X220433147Y-84746772D01*
X220126496Y-84619754D01*
X219800958Y-84555000D01*
X219469042Y-84555000D01*
X219143504Y-84619754D01*
X218836853Y-84746772D01*
X218560875Y-84931175D01*
X218326175Y-85165875D01*
X218141772Y-85441853D01*
X218014754Y-85748504D01*
X217950000Y-86074042D01*
X211310000Y-86074042D01*
X211245246Y-85748504D01*
X211118228Y-85441853D01*
X210933825Y-85165875D01*
X210699125Y-84931175D01*
X210423147Y-84746772D01*
X210116496Y-84619754D01*
X209790958Y-84555000D01*
X209459042Y-84555000D01*
X209133504Y-84619754D01*
X208826853Y-84746772D01*
X208813072Y-84755980D01*
X208813072Y-83584042D01*
X220450000Y-83584042D01*
X220450000Y-83915958D01*
X220514754Y-84241496D01*
X220641772Y-84548147D01*
X220826175Y-84824125D01*
X221060875Y-85058825D01*
X221336853Y-85243228D01*
X221643504Y-85370246D01*
X221969042Y-85435000D01*
X222300958Y-85435000D01*
X222626496Y-85370246D01*
X222933147Y-85243228D01*
X223209125Y-85058825D01*
X223443825Y-84824125D01*
X223628228Y-84548147D01*
X223755246Y-84241496D01*
X223820000Y-83915958D01*
X223820000Y-83584042D01*
X223755246Y-83258504D01*
X223628228Y-82951853D01*
X223464289Y-82706500D01*
X227026928Y-82706500D01*
X227026928Y-84806500D01*
X227039188Y-84930982D01*
X227075498Y-85050680D01*
X227134463Y-85160994D01*
X227213815Y-85257685D01*
X227310506Y-85337037D01*
X227420820Y-85396002D01*
X227540518Y-85432312D01*
X227665000Y-85444572D01*
X229724298Y-85444572D01*
X229721772Y-85448353D01*
X229594754Y-85755004D01*
X229530000Y-86080542D01*
X229530000Y-86412458D01*
X229594754Y-86737996D01*
X229721772Y-87044647D01*
X229906175Y-87320625D01*
X230140875Y-87555325D01*
X230397676Y-87726915D01*
X230288987Y-87799538D01*
X230103038Y-87985487D01*
X229956939Y-88204141D01*
X229870000Y-88414030D01*
X229783061Y-88204141D01*
X229636962Y-87985487D01*
X229451013Y-87799538D01*
X229232359Y-87653439D01*
X228989405Y-87552804D01*
X228731486Y-87501500D01*
X228468514Y-87501500D01*
X228210595Y-87552804D01*
X227967641Y-87653439D01*
X227748987Y-87799538D01*
X227563038Y-87985487D01*
X227416939Y-88204141D01*
X227316304Y-88447095D01*
X227265000Y-88705014D01*
X227265000Y-88967986D01*
X227316304Y-89225905D01*
X227416939Y-89468859D01*
X227563038Y-89687513D01*
X227748987Y-89873462D01*
X227967641Y-90019561D01*
X228210595Y-90120196D01*
X228468514Y-90171500D01*
X228731486Y-90171500D01*
X228989405Y-90120196D01*
X229232359Y-90019561D01*
X229451013Y-89873462D01*
X229636962Y-89687513D01*
X229783061Y-89468859D01*
X229870000Y-89258970D01*
X229956939Y-89468859D01*
X230103038Y-89687513D01*
X230288987Y-89873462D01*
X230507641Y-90019561D01*
X230601991Y-90058642D01*
X230594426Y-90060147D01*
X230333273Y-90168320D01*
X230098241Y-90325363D01*
X229898363Y-90525241D01*
X229741320Y-90760273D01*
X229633147Y-91021426D01*
X229578000Y-91298665D01*
X229578000Y-91581335D01*
X229633147Y-91858574D01*
X229741320Y-92119727D01*
X229898363Y-92354759D01*
X230098241Y-92554637D01*
X230333273Y-92711680D01*
X230594426Y-92819853D01*
X230871665Y-92875000D01*
X231154335Y-92875000D01*
X231431574Y-92819853D01*
X231692727Y-92711680D01*
X231927759Y-92554637D01*
X232127637Y-92354759D01*
X232283000Y-92122241D01*
X232438363Y-92354759D01*
X232638241Y-92554637D01*
X232873273Y-92711680D01*
X233134426Y-92819853D01*
X233411665Y-92875000D01*
X233694335Y-92875000D01*
X233971574Y-92819853D01*
X234232727Y-92711680D01*
X234467759Y-92554637D01*
X234666357Y-92356039D01*
X234667188Y-92364482D01*
X234703498Y-92484180D01*
X234762463Y-92594494D01*
X234841815Y-92691185D01*
X234938506Y-92770537D01*
X235048820Y-92829502D01*
X235168518Y-92865812D01*
X235293000Y-92878072D01*
X236893000Y-92878072D01*
X237017482Y-92865812D01*
X237137180Y-92829502D01*
X237247494Y-92770537D01*
X237344185Y-92691185D01*
X237423537Y-92594494D01*
X237482502Y-92484180D01*
X237518812Y-92364482D01*
X237531072Y-92240000D01*
X237531072Y-90640000D01*
X237518812Y-90515518D01*
X237482502Y-90395820D01*
X237423537Y-90285506D01*
X237414564Y-90274572D01*
X238290000Y-90274572D01*
X238414482Y-90262312D01*
X238534180Y-90226002D01*
X238644494Y-90167037D01*
X238741185Y-90087685D01*
X238820537Y-89990994D01*
X238879502Y-89880680D01*
X238915812Y-89760982D01*
X238928072Y-89636500D01*
X238928072Y-88036500D01*
X238915812Y-87912018D01*
X238879502Y-87792320D01*
X238820537Y-87682006D01*
X238741185Y-87585315D01*
X238644494Y-87505963D01*
X238534180Y-87446998D01*
X238414482Y-87410688D01*
X238290000Y-87398428D01*
X236690000Y-87398428D01*
X236565518Y-87410688D01*
X236445820Y-87446998D01*
X236335506Y-87505963D01*
X236238815Y-87585315D01*
X236159463Y-87682006D01*
X236100498Y-87792320D01*
X236064188Y-87912018D01*
X236051928Y-88036500D01*
X236051928Y-89636500D01*
X236064188Y-89760982D01*
X236100498Y-89880680D01*
X236159463Y-89990994D01*
X236168436Y-90001928D01*
X235293000Y-90001928D01*
X235168518Y-90014188D01*
X235048820Y-90050498D01*
X234938506Y-90109463D01*
X234841815Y-90188815D01*
X234762463Y-90285506D01*
X234703498Y-90395820D01*
X234667188Y-90515518D01*
X234666357Y-90523961D01*
X234467759Y-90325363D01*
X234313000Y-90221957D01*
X234313000Y-90127535D01*
X234359727Y-90108180D01*
X234594759Y-89951137D01*
X234794637Y-89751259D01*
X234951680Y-89516227D01*
X235059853Y-89255074D01*
X235115000Y-88977835D01*
X235115000Y-88695165D01*
X235059853Y-88417926D01*
X234951680Y-88156773D01*
X234794637Y-87921741D01*
X234594759Y-87721863D01*
X234359727Y-87564820D01*
X234098574Y-87456647D01*
X233821335Y-87401500D01*
X233538665Y-87401500D01*
X233261426Y-87456647D01*
X233000273Y-87564820D01*
X232765241Y-87721863D01*
X232565363Y-87921741D01*
X232408320Y-88156773D01*
X232355880Y-88283374D01*
X232323061Y-88204141D01*
X232176962Y-87985487D01*
X231991013Y-87799538D01*
X231944226Y-87768276D01*
X232013147Y-87739728D01*
X232289125Y-87555325D01*
X232523825Y-87320625D01*
X232708228Y-87044647D01*
X232835246Y-86737996D01*
X232900000Y-86412458D01*
X232900000Y-86080542D01*
X239540000Y-86080542D01*
X239540000Y-86412458D01*
X239604754Y-86737996D01*
X239731772Y-87044647D01*
X239916175Y-87320625D01*
X240150875Y-87555325D01*
X240426853Y-87739728D01*
X240733504Y-87866746D01*
X241059042Y-87931500D01*
X241390958Y-87931500D01*
X241716496Y-87866746D01*
X242023147Y-87739728D01*
X242299125Y-87555325D01*
X242533825Y-87320625D01*
X242718228Y-87044647D01*
X242845246Y-86737996D01*
X242910000Y-86412458D01*
X242910000Y-86080542D01*
X242845246Y-85755004D01*
X242718228Y-85448353D01*
X242533825Y-85172375D01*
X242299125Y-84937675D01*
X242023147Y-84753272D01*
X241716496Y-84626254D01*
X241390958Y-84561500D01*
X241059042Y-84561500D01*
X240733504Y-84626254D01*
X240426853Y-84753272D01*
X240150875Y-84937675D01*
X239916175Y-85172375D01*
X239731772Y-85448353D01*
X239604754Y-85755004D01*
X239540000Y-86080542D01*
X232900000Y-86080542D01*
X232835246Y-85755004D01*
X232708228Y-85448353D01*
X232523825Y-85172375D01*
X232289125Y-84937675D01*
X232013147Y-84753272D01*
X231706496Y-84626254D01*
X231380958Y-84561500D01*
X231049042Y-84561500D01*
X230723504Y-84626254D01*
X230416853Y-84753272D01*
X230403072Y-84762480D01*
X230403072Y-83590542D01*
X234535000Y-83590542D01*
X234535000Y-83922458D01*
X234599754Y-84247996D01*
X234726772Y-84554647D01*
X234911175Y-84830625D01*
X235145875Y-85065325D01*
X235421853Y-85249728D01*
X235728504Y-85376746D01*
X236054042Y-85441500D01*
X236385958Y-85441500D01*
X236711496Y-85376746D01*
X237018147Y-85249728D01*
X237294125Y-85065325D01*
X237528825Y-84830625D01*
X237713228Y-84554647D01*
X237840246Y-84247996D01*
X237905000Y-83922458D01*
X237905000Y-83590542D01*
X242040000Y-83590542D01*
X242040000Y-83922458D01*
X242104754Y-84247996D01*
X242231772Y-84554647D01*
X242416175Y-84830625D01*
X242650875Y-85065325D01*
X242926853Y-85249728D01*
X243233504Y-85376746D01*
X243559042Y-85441500D01*
X243890958Y-85441500D01*
X244216496Y-85376746D01*
X244523147Y-85249728D01*
X244799125Y-85065325D01*
X245033825Y-84830625D01*
X245218228Y-84554647D01*
X245345246Y-84247996D01*
X245410000Y-83922458D01*
X245410000Y-83590542D01*
X245345246Y-83265004D01*
X245218228Y-82958353D01*
X245033825Y-82682375D01*
X244799125Y-82447675D01*
X244523147Y-82263272D01*
X244216496Y-82136254D01*
X243890958Y-82071500D01*
X243559042Y-82071500D01*
X243233504Y-82136254D01*
X242926853Y-82263272D01*
X242650875Y-82447675D01*
X242416175Y-82682375D01*
X242231772Y-82958353D01*
X242104754Y-83265004D01*
X242040000Y-83590542D01*
X237905000Y-83590542D01*
X237840246Y-83265004D01*
X237713228Y-82958353D01*
X237528825Y-82682375D01*
X237294125Y-82447675D01*
X237018147Y-82263272D01*
X236711496Y-82136254D01*
X236385958Y-82071500D01*
X236054042Y-82071500D01*
X235728504Y-82136254D01*
X235421853Y-82263272D01*
X235145875Y-82447675D01*
X234911175Y-82682375D01*
X234726772Y-82958353D01*
X234599754Y-83265004D01*
X234535000Y-83590542D01*
X230403072Y-83590542D01*
X230403072Y-82706500D01*
X230390812Y-82582018D01*
X230354502Y-82462320D01*
X230295537Y-82352006D01*
X230216185Y-82255315D01*
X230119494Y-82175963D01*
X230009180Y-82116998D01*
X229889482Y-82080688D01*
X229765000Y-82068428D01*
X227665000Y-82068428D01*
X227540518Y-82080688D01*
X227420820Y-82116998D01*
X227310506Y-82175963D01*
X227213815Y-82255315D01*
X227134463Y-82352006D01*
X227075498Y-82462320D01*
X227039188Y-82582018D01*
X227026928Y-82706500D01*
X223464289Y-82706500D01*
X223443825Y-82675875D01*
X223209125Y-82441175D01*
X222933147Y-82256772D01*
X222626496Y-82129754D01*
X222300958Y-82065000D01*
X221969042Y-82065000D01*
X221643504Y-82129754D01*
X221336853Y-82256772D01*
X221060875Y-82441175D01*
X220826175Y-82675875D01*
X220641772Y-82951853D01*
X220514754Y-83258504D01*
X220450000Y-83584042D01*
X208813072Y-83584042D01*
X208813072Y-82700000D01*
X208800812Y-82575518D01*
X208764502Y-82455820D01*
X208705537Y-82345506D01*
X208626185Y-82248815D01*
X208529494Y-82169463D01*
X208419180Y-82110498D01*
X208299482Y-82074188D01*
X208175000Y-82061928D01*
X206075000Y-82061928D01*
X205950518Y-82074188D01*
X205830820Y-82110498D01*
X205720506Y-82169463D01*
X205623815Y-82248815D01*
X205544463Y-82345506D01*
X205485498Y-82455820D01*
X205449188Y-82575518D01*
X205436928Y-82700000D01*
X205436928Y-84800000D01*
X205449188Y-84924482D01*
X205485498Y-85044180D01*
X205544463Y-85154494D01*
X205623815Y-85251185D01*
X205720506Y-85330537D01*
X205830820Y-85389502D01*
X205950518Y-85425812D01*
X206075000Y-85438072D01*
X208134298Y-85438072D01*
X208131772Y-85441853D01*
X208004754Y-85748504D01*
X207940000Y-86074042D01*
X207940000Y-86405958D01*
X208004754Y-86731496D01*
X208131772Y-87038147D01*
X208316175Y-87314125D01*
X208550875Y-87548825D01*
X208826853Y-87733228D01*
X208952124Y-87785116D01*
X208843095Y-87806804D01*
X208600141Y-87907439D01*
X208381487Y-88053538D01*
X208195538Y-88239487D01*
X208049439Y-88458141D01*
X207962500Y-88668030D01*
X207875561Y-88458141D01*
X207729462Y-88239487D01*
X207543513Y-88053538D01*
X207324859Y-87907439D01*
X207081905Y-87806804D01*
X206823986Y-87755500D01*
X206561014Y-87755500D01*
X206303095Y-87806804D01*
X206060141Y-87907439D01*
X205841487Y-88053538D01*
X205655538Y-88239487D01*
X205509439Y-88458141D01*
X205408804Y-88701095D01*
X205357500Y-88959014D01*
X202617369Y-88959014D01*
X202578696Y-88764595D01*
X202478061Y-88521641D01*
X202331962Y-88302987D01*
X202146013Y-88117038D01*
X201927359Y-87970939D01*
X201684405Y-87870304D01*
X201426486Y-87819000D01*
X201163514Y-87819000D01*
X200905595Y-87870304D01*
X200662641Y-87970939D01*
X200443987Y-88117038D01*
X200258038Y-88302987D01*
X200111939Y-88521641D01*
X200025000Y-88731530D01*
X199938061Y-88521641D01*
X199791962Y-88302987D01*
X199606013Y-88117038D01*
X199387359Y-87970939D01*
X199144405Y-87870304D01*
X198886486Y-87819000D01*
X198636073Y-87819000D01*
X198843147Y-87733228D01*
X199119125Y-87548825D01*
X199353825Y-87314125D01*
X199538228Y-87038147D01*
X199665246Y-86731496D01*
X199730000Y-86405958D01*
X199730000Y-86074042D01*
X199665246Y-85748504D01*
X199538228Y-85441853D01*
X199353825Y-85165875D01*
X199119125Y-84931175D01*
X198843147Y-84746772D01*
X198536496Y-84619754D01*
X198210958Y-84555000D01*
X197879042Y-84555000D01*
X197553504Y-84619754D01*
X197246853Y-84746772D01*
X196970875Y-84931175D01*
X196736175Y-85165875D01*
X196551772Y-85441853D01*
X196424754Y-85748504D01*
X196360000Y-86074042D01*
X189720000Y-86074042D01*
X189655246Y-85748504D01*
X189528228Y-85441853D01*
X189343825Y-85165875D01*
X189109125Y-84931175D01*
X188833147Y-84746772D01*
X188526496Y-84619754D01*
X188200958Y-84555000D01*
X187869042Y-84555000D01*
X187543504Y-84619754D01*
X187236853Y-84746772D01*
X187223072Y-84755980D01*
X187223072Y-83584042D01*
X198860000Y-83584042D01*
X198860000Y-83915958D01*
X198924754Y-84241496D01*
X199051772Y-84548147D01*
X199236175Y-84824125D01*
X199470875Y-85058825D01*
X199746853Y-85243228D01*
X200053504Y-85370246D01*
X200379042Y-85435000D01*
X200710958Y-85435000D01*
X201036496Y-85370246D01*
X201343147Y-85243228D01*
X201619125Y-85058825D01*
X201853825Y-84824125D01*
X202038228Y-84548147D01*
X202165246Y-84241496D01*
X202230000Y-83915958D01*
X202230000Y-83584042D01*
X202165246Y-83258504D01*
X202038228Y-82951853D01*
X201853825Y-82675875D01*
X201619125Y-82441175D01*
X201343147Y-82256772D01*
X201036496Y-82129754D01*
X200710958Y-82065000D01*
X200379042Y-82065000D01*
X200053504Y-82129754D01*
X199746853Y-82256772D01*
X199470875Y-82441175D01*
X199236175Y-82675875D01*
X199051772Y-82951853D01*
X198924754Y-83258504D01*
X198860000Y-83584042D01*
X187223072Y-83584042D01*
X187223072Y-82700000D01*
X187210812Y-82575518D01*
X187174502Y-82455820D01*
X187115537Y-82345506D01*
X187036185Y-82248815D01*
X186939494Y-82169463D01*
X186829180Y-82110498D01*
X186709482Y-82074188D01*
X186585000Y-82061928D01*
X184485000Y-82061928D01*
X184360518Y-82074188D01*
X184240820Y-82110498D01*
X184130506Y-82169463D01*
X184033815Y-82248815D01*
X183954463Y-82345506D01*
X183895498Y-82455820D01*
X183859188Y-82575518D01*
X183846928Y-82700000D01*
X180279945Y-82700000D01*
X180263825Y-82675875D01*
X180029125Y-82441175D01*
X179753147Y-82256772D01*
X179446496Y-82129754D01*
X179120958Y-82065000D01*
X178789042Y-82065000D01*
X178463504Y-82129754D01*
X178156853Y-82256772D01*
X177880875Y-82441175D01*
X177646175Y-82675875D01*
X177461772Y-82951853D01*
X177334754Y-83258504D01*
X177270000Y-83584042D01*
X165633072Y-83584042D01*
X165633072Y-82700000D01*
X165620812Y-82575518D01*
X165584502Y-82455820D01*
X165525537Y-82345506D01*
X165446185Y-82248815D01*
X165349494Y-82169463D01*
X165239180Y-82110498D01*
X165119482Y-82074188D01*
X164995000Y-82061928D01*
X162895000Y-82061928D01*
X162770518Y-82074188D01*
X162650820Y-82110498D01*
X162540506Y-82169463D01*
X162443815Y-82248815D01*
X162364463Y-82345506D01*
X162305498Y-82455820D01*
X162269188Y-82575518D01*
X162256928Y-82700000D01*
X162256928Y-84800000D01*
X162269188Y-84924482D01*
X162305498Y-85044180D01*
X162364463Y-85154494D01*
X162443815Y-85251185D01*
X162540506Y-85330537D01*
X162650820Y-85389502D01*
X162770518Y-85425812D01*
X162895000Y-85438072D01*
X164954298Y-85438072D01*
X164951772Y-85441853D01*
X164824754Y-85748504D01*
X164760000Y-86074042D01*
X164760000Y-86405958D01*
X164824754Y-86731496D01*
X164951772Y-87038147D01*
X165136175Y-87314125D01*
X165370875Y-87548825D01*
X165646853Y-87733228D01*
X165953504Y-87860246D01*
X166013018Y-87872084D01*
X165836487Y-87990038D01*
X165650538Y-88175987D01*
X165504439Y-88394641D01*
X165417500Y-88604530D01*
X165330561Y-88394641D01*
X165184462Y-88175987D01*
X164998513Y-87990038D01*
X164779859Y-87843939D01*
X164536905Y-87743304D01*
X164278986Y-87692000D01*
X164016014Y-87692000D01*
X163758095Y-87743304D01*
X163515141Y-87843939D01*
X163296487Y-87990038D01*
X163110538Y-88175987D01*
X162964439Y-88394641D01*
X162863804Y-88637595D01*
X162812500Y-88895514D01*
X162812500Y-89158486D01*
X162839058Y-89292001D01*
X146443621Y-89292001D01*
X146444696Y-89289405D01*
X146496000Y-89031486D01*
X146496000Y-88768514D01*
X146444696Y-88510595D01*
X146344061Y-88267641D01*
X146197962Y-88048987D01*
X146073975Y-87925000D01*
X146140958Y-87925000D01*
X146466496Y-87860246D01*
X146773147Y-87733228D01*
X147049125Y-87548825D01*
X147283825Y-87314125D01*
X147468228Y-87038147D01*
X147595246Y-86731496D01*
X147660000Y-86405958D01*
X147660000Y-86074042D01*
X147595246Y-85748504D01*
X147468228Y-85441853D01*
X147283825Y-85165875D01*
X147049125Y-84931175D01*
X146773147Y-84746772D01*
X146466496Y-84619754D01*
X146140958Y-84555000D01*
X145809042Y-84555000D01*
X145483504Y-84619754D01*
X145176853Y-84746772D01*
X144900875Y-84931175D01*
X144666175Y-85165875D01*
X144481772Y-85441853D01*
X144354754Y-85748504D01*
X144290000Y-86074042D01*
X144290000Y-86405958D01*
X144354754Y-86731496D01*
X144481772Y-87038147D01*
X144666175Y-87314125D01*
X144900875Y-87548825D01*
X144949040Y-87581008D01*
X144771595Y-87616304D01*
X144528641Y-87716939D01*
X144309987Y-87863038D01*
X144124038Y-88048987D01*
X143977939Y-88267641D01*
X143976127Y-88272017D01*
X143911962Y-88175987D01*
X143726013Y-87990038D01*
X143507359Y-87843939D01*
X143264405Y-87743304D01*
X143006486Y-87692000D01*
X142743514Y-87692000D01*
X142485595Y-87743304D01*
X142242641Y-87843939D01*
X142023987Y-87990038D01*
X141838038Y-88175987D01*
X141773873Y-88272017D01*
X141772061Y-88267641D01*
X141625962Y-88048987D01*
X141440013Y-87863038D01*
X141221359Y-87716939D01*
X140978405Y-87616304D01*
X140720486Y-87565000D01*
X140457514Y-87565000D01*
X140199595Y-87616304D01*
X139956641Y-87716939D01*
X139737987Y-87863038D01*
X139552038Y-88048987D01*
X139405939Y-88267641D01*
X139404127Y-88272017D01*
X139339962Y-88175987D01*
X139154013Y-87990038D01*
X138935359Y-87843939D01*
X138692405Y-87743304D01*
X138434486Y-87692000D01*
X138171514Y-87692000D01*
X137913595Y-87743304D01*
X137670641Y-87843939D01*
X137451987Y-87990038D01*
X137266038Y-88175987D01*
X137201873Y-88272017D01*
X137200061Y-88267641D01*
X137053962Y-88048987D01*
X136868013Y-87863038D01*
X136707953Y-87756090D01*
X136763147Y-87733228D01*
X137039125Y-87548825D01*
X137273825Y-87314125D01*
X137458228Y-87038147D01*
X137585246Y-86731496D01*
X137650000Y-86405958D01*
X137650000Y-86074042D01*
X137585246Y-85748504D01*
X137458228Y-85441853D01*
X137273825Y-85165875D01*
X137039125Y-84931175D01*
X136763147Y-84746772D01*
X136456496Y-84619754D01*
X136130958Y-84555000D01*
X135799042Y-84555000D01*
X135473504Y-84619754D01*
X135166853Y-84746772D01*
X135153072Y-84755980D01*
X135153072Y-83584042D01*
X146790000Y-83584042D01*
X146790000Y-83915958D01*
X146854754Y-84241496D01*
X146981772Y-84548147D01*
X147166175Y-84824125D01*
X147400875Y-85058825D01*
X147676853Y-85243228D01*
X147983504Y-85370246D01*
X148309042Y-85435000D01*
X148640958Y-85435000D01*
X148966496Y-85370246D01*
X149273147Y-85243228D01*
X149549125Y-85058825D01*
X149783825Y-84824125D01*
X149968228Y-84548147D01*
X150095246Y-84241496D01*
X150160000Y-83915958D01*
X150160000Y-83584042D01*
X150095246Y-83258504D01*
X149968228Y-82951853D01*
X149783825Y-82675875D01*
X149549125Y-82441175D01*
X149273147Y-82256772D01*
X148966496Y-82129754D01*
X148640958Y-82065000D01*
X148309042Y-82065000D01*
X147983504Y-82129754D01*
X147676853Y-82256772D01*
X147400875Y-82441175D01*
X147166175Y-82675875D01*
X146981772Y-82951853D01*
X146854754Y-83258504D01*
X146790000Y-83584042D01*
X135153072Y-83584042D01*
X135153072Y-82700000D01*
X135140812Y-82575518D01*
X135104502Y-82455820D01*
X135045537Y-82345506D01*
X134966185Y-82248815D01*
X134869494Y-82169463D01*
X134759180Y-82110498D01*
X134639482Y-82074188D01*
X134515000Y-82061928D01*
X132415000Y-82061928D01*
X132290518Y-82074188D01*
X132170820Y-82110498D01*
X132060506Y-82169463D01*
X131963815Y-82248815D01*
X131884463Y-82345506D01*
X131825498Y-82455820D01*
X131789188Y-82575518D01*
X131776928Y-82700000D01*
X127353000Y-82700000D01*
X127353000Y-78559761D01*
X131635000Y-78559761D01*
X131635000Y-78920239D01*
X131705325Y-79273791D01*
X131843275Y-79606830D01*
X132043546Y-79906557D01*
X132298443Y-80161454D01*
X132598170Y-80361725D01*
X132931209Y-80499675D01*
X133284761Y-80570000D01*
X133645239Y-80570000D01*
X133998791Y-80499675D01*
X134331830Y-80361725D01*
X134631557Y-80161454D01*
X134886454Y-79906557D01*
X135086725Y-79606830D01*
X135224675Y-79273791D01*
X135295000Y-78920239D01*
X135295000Y-78559761D01*
X146645000Y-78559761D01*
X146645000Y-78920239D01*
X146715325Y-79273791D01*
X146853275Y-79606830D01*
X147053546Y-79906557D01*
X147308443Y-80161454D01*
X147608170Y-80361725D01*
X147941209Y-80499675D01*
X148294761Y-80570000D01*
X148655239Y-80570000D01*
X149008791Y-80499675D01*
X149341830Y-80361725D01*
X149641557Y-80161454D01*
X149896454Y-79906557D01*
X150096725Y-79606830D01*
X150234675Y-79273791D01*
X150305000Y-78920239D01*
X150305000Y-78559761D01*
X162115000Y-78559761D01*
X162115000Y-78920239D01*
X162185325Y-79273791D01*
X162323275Y-79606830D01*
X162523546Y-79906557D01*
X162778443Y-80161454D01*
X163078170Y-80361725D01*
X163411209Y-80499675D01*
X163764761Y-80570000D01*
X164125239Y-80570000D01*
X164478791Y-80499675D01*
X164811830Y-80361725D01*
X165111557Y-80161454D01*
X165366454Y-79906557D01*
X165566725Y-79606830D01*
X165704675Y-79273791D01*
X165775000Y-78920239D01*
X165775000Y-78559761D01*
X177125000Y-78559761D01*
X177125000Y-78920239D01*
X177195325Y-79273791D01*
X177333275Y-79606830D01*
X177533546Y-79906557D01*
X177788443Y-80161454D01*
X178088170Y-80361725D01*
X178421209Y-80499675D01*
X178774761Y-80570000D01*
X179135239Y-80570000D01*
X179488791Y-80499675D01*
X179821830Y-80361725D01*
X180121557Y-80161454D01*
X180376454Y-79906557D01*
X180576725Y-79606830D01*
X180714675Y-79273791D01*
X180785000Y-78920239D01*
X180785000Y-78559761D01*
X183705000Y-78559761D01*
X183705000Y-78920239D01*
X183775325Y-79273791D01*
X183913275Y-79606830D01*
X184113546Y-79906557D01*
X184368443Y-80161454D01*
X184668170Y-80361725D01*
X185001209Y-80499675D01*
X185354761Y-80570000D01*
X185715239Y-80570000D01*
X186068791Y-80499675D01*
X186401830Y-80361725D01*
X186701557Y-80161454D01*
X186956454Y-79906557D01*
X187156725Y-79606830D01*
X187294675Y-79273791D01*
X187365000Y-78920239D01*
X187365000Y-78559761D01*
X198715000Y-78559761D01*
X198715000Y-78920239D01*
X198785325Y-79273791D01*
X198923275Y-79606830D01*
X199123546Y-79906557D01*
X199378443Y-80161454D01*
X199678170Y-80361725D01*
X200011209Y-80499675D01*
X200364761Y-80570000D01*
X200725239Y-80570000D01*
X201078791Y-80499675D01*
X201411830Y-80361725D01*
X201711557Y-80161454D01*
X201966454Y-79906557D01*
X202166725Y-79606830D01*
X202304675Y-79273791D01*
X202375000Y-78920239D01*
X202375000Y-78559761D01*
X205295000Y-78559761D01*
X205295000Y-78920239D01*
X205365325Y-79273791D01*
X205503275Y-79606830D01*
X205703546Y-79906557D01*
X205958443Y-80161454D01*
X206258170Y-80361725D01*
X206591209Y-80499675D01*
X206944761Y-80570000D01*
X207305239Y-80570000D01*
X207658791Y-80499675D01*
X207991830Y-80361725D01*
X208291557Y-80161454D01*
X208546454Y-79906557D01*
X208746725Y-79606830D01*
X208884675Y-79273791D01*
X208955000Y-78920239D01*
X208955000Y-78559761D01*
X220305000Y-78559761D01*
X220305000Y-78920239D01*
X220375325Y-79273791D01*
X220513275Y-79606830D01*
X220713546Y-79906557D01*
X220968443Y-80161454D01*
X221268170Y-80361725D01*
X221601209Y-80499675D01*
X221954761Y-80570000D01*
X222315239Y-80570000D01*
X222668791Y-80499675D01*
X223001830Y-80361725D01*
X223301557Y-80161454D01*
X223556454Y-79906557D01*
X223756725Y-79606830D01*
X223894675Y-79273791D01*
X223965000Y-78920239D01*
X223965000Y-78566261D01*
X226885000Y-78566261D01*
X226885000Y-78926739D01*
X226955325Y-79280291D01*
X227093275Y-79613330D01*
X227293546Y-79913057D01*
X227548443Y-80167954D01*
X227848170Y-80368225D01*
X228181209Y-80506175D01*
X228534761Y-80576500D01*
X228895239Y-80576500D01*
X229248791Y-80506175D01*
X229581830Y-80368225D01*
X229881557Y-80167954D01*
X230136454Y-79913057D01*
X230336725Y-79613330D01*
X230474675Y-79280291D01*
X230545000Y-78926739D01*
X230545000Y-78566261D01*
X241895000Y-78566261D01*
X241895000Y-78926739D01*
X241965325Y-79280291D01*
X242103275Y-79613330D01*
X242303546Y-79913057D01*
X242558443Y-80167954D01*
X242858170Y-80368225D01*
X243191209Y-80506175D01*
X243544761Y-80576500D01*
X243905239Y-80576500D01*
X244258791Y-80506175D01*
X244591830Y-80368225D01*
X244891557Y-80167954D01*
X245146454Y-79913057D01*
X245346725Y-79613330D01*
X245484675Y-79280291D01*
X245555000Y-78926739D01*
X245555000Y-78566261D01*
X245484675Y-78212709D01*
X245346725Y-77879670D01*
X245146454Y-77579943D01*
X244891557Y-77325046D01*
X244591830Y-77124775D01*
X244258791Y-76986825D01*
X243905239Y-76916500D01*
X243544761Y-76916500D01*
X243191209Y-76986825D01*
X242858170Y-77124775D01*
X242558443Y-77325046D01*
X242303546Y-77579943D01*
X242103275Y-77879670D01*
X241965325Y-78212709D01*
X241895000Y-78566261D01*
X230545000Y-78566261D01*
X230474675Y-78212709D01*
X230336725Y-77879670D01*
X230136454Y-77579943D01*
X229881557Y-77325046D01*
X229581830Y-77124775D01*
X229248791Y-76986825D01*
X228895239Y-76916500D01*
X228534761Y-76916500D01*
X228181209Y-76986825D01*
X227848170Y-77124775D01*
X227548443Y-77325046D01*
X227293546Y-77579943D01*
X227093275Y-77879670D01*
X226955325Y-78212709D01*
X226885000Y-78566261D01*
X223965000Y-78566261D01*
X223965000Y-78559761D01*
X223894675Y-78206209D01*
X223756725Y-77873170D01*
X223556454Y-77573443D01*
X223301557Y-77318546D01*
X223001830Y-77118275D01*
X222668791Y-76980325D01*
X222315239Y-76910000D01*
X221954761Y-76910000D01*
X221601209Y-76980325D01*
X221268170Y-77118275D01*
X220968443Y-77318546D01*
X220713546Y-77573443D01*
X220513275Y-77873170D01*
X220375325Y-78206209D01*
X220305000Y-78559761D01*
X208955000Y-78559761D01*
X208884675Y-78206209D01*
X208746725Y-77873170D01*
X208546454Y-77573443D01*
X208291557Y-77318546D01*
X207991830Y-77118275D01*
X207658791Y-76980325D01*
X207305239Y-76910000D01*
X206944761Y-76910000D01*
X206591209Y-76980325D01*
X206258170Y-77118275D01*
X205958443Y-77318546D01*
X205703546Y-77573443D01*
X205503275Y-77873170D01*
X205365325Y-78206209D01*
X205295000Y-78559761D01*
X202375000Y-78559761D01*
X202304675Y-78206209D01*
X202166725Y-77873170D01*
X201966454Y-77573443D01*
X201711557Y-77318546D01*
X201411830Y-77118275D01*
X201078791Y-76980325D01*
X200725239Y-76910000D01*
X200364761Y-76910000D01*
X200011209Y-76980325D01*
X199678170Y-77118275D01*
X199378443Y-77318546D01*
X199123546Y-77573443D01*
X198923275Y-77873170D01*
X198785325Y-78206209D01*
X198715000Y-78559761D01*
X187365000Y-78559761D01*
X187294675Y-78206209D01*
X187156725Y-77873170D01*
X186956454Y-77573443D01*
X186701557Y-77318546D01*
X186401830Y-77118275D01*
X186068791Y-76980325D01*
X185715239Y-76910000D01*
X185354761Y-76910000D01*
X185001209Y-76980325D01*
X184668170Y-77118275D01*
X184368443Y-77318546D01*
X184113546Y-77573443D01*
X183913275Y-77873170D01*
X183775325Y-78206209D01*
X183705000Y-78559761D01*
X180785000Y-78559761D01*
X180714675Y-78206209D01*
X180576725Y-77873170D01*
X180376454Y-77573443D01*
X180121557Y-77318546D01*
X179821830Y-77118275D01*
X179488791Y-76980325D01*
X179135239Y-76910000D01*
X178774761Y-76910000D01*
X178421209Y-76980325D01*
X178088170Y-77118275D01*
X177788443Y-77318546D01*
X177533546Y-77573443D01*
X177333275Y-77873170D01*
X177195325Y-78206209D01*
X177125000Y-78559761D01*
X165775000Y-78559761D01*
X165704675Y-78206209D01*
X165566725Y-77873170D01*
X165366454Y-77573443D01*
X165111557Y-77318546D01*
X164811830Y-77118275D01*
X164478791Y-76980325D01*
X164125239Y-76910000D01*
X163764761Y-76910000D01*
X163411209Y-76980325D01*
X163078170Y-77118275D01*
X162778443Y-77318546D01*
X162523546Y-77573443D01*
X162323275Y-77873170D01*
X162185325Y-78206209D01*
X162115000Y-78559761D01*
X150305000Y-78559761D01*
X150234675Y-78206209D01*
X150096725Y-77873170D01*
X149896454Y-77573443D01*
X149641557Y-77318546D01*
X149341830Y-77118275D01*
X149008791Y-76980325D01*
X148655239Y-76910000D01*
X148294761Y-76910000D01*
X147941209Y-76980325D01*
X147608170Y-77118275D01*
X147308443Y-77318546D01*
X147053546Y-77573443D01*
X146853275Y-77873170D01*
X146715325Y-78206209D01*
X146645000Y-78559761D01*
X135295000Y-78559761D01*
X135224675Y-78206209D01*
X135086725Y-77873170D01*
X134886454Y-77573443D01*
X134631557Y-77318546D01*
X134331830Y-77118275D01*
X133998791Y-76980325D01*
X133645239Y-76910000D01*
X133284761Y-76910000D01*
X132931209Y-76980325D01*
X132598170Y-77118275D01*
X132298443Y-77318546D01*
X132043546Y-77573443D01*
X131843275Y-77873170D01*
X131705325Y-78206209D01*
X131635000Y-78559761D01*
X127353000Y-78559761D01*
X127353000Y-76164105D01*
X127604302Y-76060012D01*
X127953983Y-75826363D01*
X128251363Y-75528983D01*
X128485012Y-75179302D01*
X128645953Y-74790756D01*
X128728000Y-74378279D01*
X128728000Y-73957721D01*
X128651682Y-73574042D01*
X136785000Y-73574042D01*
X136785000Y-73905958D01*
X136849754Y-74231496D01*
X136976772Y-74538147D01*
X137161175Y-74814125D01*
X137395875Y-75048825D01*
X137671853Y-75233228D01*
X137978504Y-75360246D01*
X138304042Y-75425000D01*
X138635958Y-75425000D01*
X138961496Y-75360246D01*
X139268147Y-75233228D01*
X139544125Y-75048825D01*
X139778825Y-74814125D01*
X139963228Y-74538147D01*
X140090246Y-74231496D01*
X140155000Y-73905958D01*
X140155000Y-73574042D01*
X141785000Y-73574042D01*
X141785000Y-73905958D01*
X141849754Y-74231496D01*
X141976772Y-74538147D01*
X142161175Y-74814125D01*
X142395875Y-75048825D01*
X142671853Y-75233228D01*
X142978504Y-75360246D01*
X143304042Y-75425000D01*
X143635958Y-75425000D01*
X143961496Y-75360246D01*
X144268147Y-75233228D01*
X144544125Y-75048825D01*
X144778825Y-74814125D01*
X144963228Y-74538147D01*
X145090246Y-74231496D01*
X145155000Y-73905958D01*
X145155000Y-73574042D01*
X167265000Y-73574042D01*
X167265000Y-73905958D01*
X167329754Y-74231496D01*
X167456772Y-74538147D01*
X167641175Y-74814125D01*
X167875875Y-75048825D01*
X168151853Y-75233228D01*
X168458504Y-75360246D01*
X168784042Y-75425000D01*
X169115958Y-75425000D01*
X169441496Y-75360246D01*
X169748147Y-75233228D01*
X170024125Y-75048825D01*
X170258825Y-74814125D01*
X170443228Y-74538147D01*
X170570246Y-74231496D01*
X170635000Y-73905958D01*
X170635000Y-73574042D01*
X172265000Y-73574042D01*
X172265000Y-73905958D01*
X172329754Y-74231496D01*
X172456772Y-74538147D01*
X172641175Y-74814125D01*
X172875875Y-75048825D01*
X173151853Y-75233228D01*
X173458504Y-75360246D01*
X173784042Y-75425000D01*
X174115958Y-75425000D01*
X174441496Y-75360246D01*
X174748147Y-75233228D01*
X175024125Y-75048825D01*
X175258825Y-74814125D01*
X175443228Y-74538147D01*
X175570246Y-74231496D01*
X175635000Y-73905958D01*
X175635000Y-73574042D01*
X188855000Y-73574042D01*
X188855000Y-73905958D01*
X188919754Y-74231496D01*
X189046772Y-74538147D01*
X189231175Y-74814125D01*
X189465875Y-75048825D01*
X189741853Y-75233228D01*
X190048504Y-75360246D01*
X190374042Y-75425000D01*
X190705958Y-75425000D01*
X191031496Y-75360246D01*
X191338147Y-75233228D01*
X191614125Y-75048825D01*
X191848825Y-74814125D01*
X192033228Y-74538147D01*
X192160246Y-74231496D01*
X192225000Y-73905958D01*
X192225000Y-73574042D01*
X193855000Y-73574042D01*
X193855000Y-73905958D01*
X193919754Y-74231496D01*
X194046772Y-74538147D01*
X194231175Y-74814125D01*
X194465875Y-75048825D01*
X194741853Y-75233228D01*
X195048504Y-75360246D01*
X195374042Y-75425000D01*
X195705958Y-75425000D01*
X196031496Y-75360246D01*
X196338147Y-75233228D01*
X196614125Y-75048825D01*
X196848825Y-74814125D01*
X197033228Y-74538147D01*
X197160246Y-74231496D01*
X197225000Y-73905958D01*
X197225000Y-73574042D01*
X210445000Y-73574042D01*
X210445000Y-73905958D01*
X210509754Y-74231496D01*
X210636772Y-74538147D01*
X210821175Y-74814125D01*
X211055875Y-75048825D01*
X211331853Y-75233228D01*
X211638504Y-75360246D01*
X211964042Y-75425000D01*
X212295958Y-75425000D01*
X212621496Y-75360246D01*
X212928147Y-75233228D01*
X213204125Y-75048825D01*
X213438825Y-74814125D01*
X213623228Y-74538147D01*
X213750246Y-74231496D01*
X213815000Y-73905958D01*
X213815000Y-73574042D01*
X215445000Y-73574042D01*
X215445000Y-73905958D01*
X215509754Y-74231496D01*
X215636772Y-74538147D01*
X215821175Y-74814125D01*
X216055875Y-75048825D01*
X216331853Y-75233228D01*
X216638504Y-75360246D01*
X216964042Y-75425000D01*
X217295958Y-75425000D01*
X217621496Y-75360246D01*
X217928147Y-75233228D01*
X218204125Y-75048825D01*
X218438825Y-74814125D01*
X218623228Y-74538147D01*
X218750246Y-74231496D01*
X218815000Y-73905958D01*
X218815000Y-73580542D01*
X232035000Y-73580542D01*
X232035000Y-73912458D01*
X232099754Y-74237996D01*
X232226772Y-74544647D01*
X232411175Y-74820625D01*
X232645875Y-75055325D01*
X232921853Y-75239728D01*
X233228504Y-75366746D01*
X233554042Y-75431500D01*
X233885958Y-75431500D01*
X234211496Y-75366746D01*
X234518147Y-75239728D01*
X234794125Y-75055325D01*
X235028825Y-74820625D01*
X235213228Y-74544647D01*
X235340246Y-74237996D01*
X235405000Y-73912458D01*
X235405000Y-73580542D01*
X237035000Y-73580542D01*
X237035000Y-73912458D01*
X237099754Y-74237996D01*
X237226772Y-74544647D01*
X237411175Y-74820625D01*
X237645875Y-75055325D01*
X237921853Y-75239728D01*
X238228504Y-75366746D01*
X238554042Y-75431500D01*
X238885958Y-75431500D01*
X239211496Y-75366746D01*
X239518147Y-75239728D01*
X239794125Y-75055325D01*
X240028825Y-74820625D01*
X240213228Y-74544647D01*
X240340246Y-74237996D01*
X240405000Y-73912458D01*
X240405000Y-73580542D01*
X240340246Y-73255004D01*
X240213228Y-72948353D01*
X240028825Y-72672375D01*
X239794125Y-72437675D01*
X239518147Y-72253272D01*
X239211496Y-72126254D01*
X238885958Y-72061500D01*
X238554042Y-72061500D01*
X238228504Y-72126254D01*
X237921853Y-72253272D01*
X237645875Y-72437675D01*
X237411175Y-72672375D01*
X237226772Y-72948353D01*
X237099754Y-73255004D01*
X237035000Y-73580542D01*
X235405000Y-73580542D01*
X235340246Y-73255004D01*
X235213228Y-72948353D01*
X235028825Y-72672375D01*
X234794125Y-72437675D01*
X234518147Y-72253272D01*
X234211496Y-72126254D01*
X233885958Y-72061500D01*
X233554042Y-72061500D01*
X233228504Y-72126254D01*
X232921853Y-72253272D01*
X232645875Y-72437675D01*
X232411175Y-72672375D01*
X232226772Y-72948353D01*
X232099754Y-73255004D01*
X232035000Y-73580542D01*
X218815000Y-73580542D01*
X218815000Y-73574042D01*
X218750246Y-73248504D01*
X218623228Y-72941853D01*
X218438825Y-72665875D01*
X218204125Y-72431175D01*
X217928147Y-72246772D01*
X217621496Y-72119754D01*
X217295958Y-72055000D01*
X216964042Y-72055000D01*
X216638504Y-72119754D01*
X216331853Y-72246772D01*
X216055875Y-72431175D01*
X215821175Y-72665875D01*
X215636772Y-72941853D01*
X215509754Y-73248504D01*
X215445000Y-73574042D01*
X213815000Y-73574042D01*
X213750246Y-73248504D01*
X213623228Y-72941853D01*
X213438825Y-72665875D01*
X213204125Y-72431175D01*
X212928147Y-72246772D01*
X212621496Y-72119754D01*
X212295958Y-72055000D01*
X211964042Y-72055000D01*
X211638504Y-72119754D01*
X211331853Y-72246772D01*
X211055875Y-72431175D01*
X210821175Y-72665875D01*
X210636772Y-72941853D01*
X210509754Y-73248504D01*
X210445000Y-73574042D01*
X197225000Y-73574042D01*
X197160246Y-73248504D01*
X197033228Y-72941853D01*
X196848825Y-72665875D01*
X196614125Y-72431175D01*
X196338147Y-72246772D01*
X196031496Y-72119754D01*
X195705958Y-72055000D01*
X195374042Y-72055000D01*
X195048504Y-72119754D01*
X194741853Y-72246772D01*
X194465875Y-72431175D01*
X194231175Y-72665875D01*
X194046772Y-72941853D01*
X193919754Y-73248504D01*
X193855000Y-73574042D01*
X192225000Y-73574042D01*
X192160246Y-73248504D01*
X192033228Y-72941853D01*
X191848825Y-72665875D01*
X191614125Y-72431175D01*
X191338147Y-72246772D01*
X191031496Y-72119754D01*
X190705958Y-72055000D01*
X190374042Y-72055000D01*
X190048504Y-72119754D01*
X189741853Y-72246772D01*
X189465875Y-72431175D01*
X189231175Y-72665875D01*
X189046772Y-72941853D01*
X188919754Y-73248504D01*
X188855000Y-73574042D01*
X175635000Y-73574042D01*
X175570246Y-73248504D01*
X175443228Y-72941853D01*
X175258825Y-72665875D01*
X175024125Y-72431175D01*
X174748147Y-72246772D01*
X174441496Y-72119754D01*
X174115958Y-72055000D01*
X173784042Y-72055000D01*
X173458504Y-72119754D01*
X173151853Y-72246772D01*
X172875875Y-72431175D01*
X172641175Y-72665875D01*
X172456772Y-72941853D01*
X172329754Y-73248504D01*
X172265000Y-73574042D01*
X170635000Y-73574042D01*
X170570246Y-73248504D01*
X170443228Y-72941853D01*
X170258825Y-72665875D01*
X170024125Y-72431175D01*
X169748147Y-72246772D01*
X169441496Y-72119754D01*
X169115958Y-72055000D01*
X168784042Y-72055000D01*
X168458504Y-72119754D01*
X168151853Y-72246772D01*
X167875875Y-72431175D01*
X167641175Y-72665875D01*
X167456772Y-72941853D01*
X167329754Y-73248504D01*
X167265000Y-73574042D01*
X145155000Y-73574042D01*
X145090246Y-73248504D01*
X144963228Y-72941853D01*
X144778825Y-72665875D01*
X144544125Y-72431175D01*
X144268147Y-72246772D01*
X143961496Y-72119754D01*
X143635958Y-72055000D01*
X143304042Y-72055000D01*
X142978504Y-72119754D01*
X142671853Y-72246772D01*
X142395875Y-72431175D01*
X142161175Y-72665875D01*
X141976772Y-72941853D01*
X141849754Y-73248504D01*
X141785000Y-73574042D01*
X140155000Y-73574042D01*
X140090246Y-73248504D01*
X139963228Y-72941853D01*
X139778825Y-72665875D01*
X139544125Y-72431175D01*
X139268147Y-72246772D01*
X138961496Y-72119754D01*
X138635958Y-72055000D01*
X138304042Y-72055000D01*
X137978504Y-72119754D01*
X137671853Y-72246772D01*
X137395875Y-72431175D01*
X137161175Y-72665875D01*
X136976772Y-72941853D01*
X136849754Y-73248504D01*
X136785000Y-73574042D01*
X128651682Y-73574042D01*
X128645953Y-73545244D01*
X128485012Y-73156698D01*
X128251363Y-72807017D01*
X127953983Y-72509637D01*
X127604302Y-72275988D01*
X127215756Y-72115047D01*
X126803279Y-72033000D01*
X126382721Y-72033000D01*
X125970244Y-72115047D01*
X125581698Y-72275988D01*
X125232017Y-72509637D01*
X124934637Y-72807017D01*
X124700988Y-73156698D01*
X124540047Y-73545244D01*
X124458000Y-73957721D01*
X108408000Y-73957721D01*
X108325953Y-73545244D01*
X108165012Y-73156698D01*
X107931363Y-72807017D01*
X107633983Y-72509637D01*
X107284302Y-72275988D01*
X106895756Y-72115047D01*
X106483279Y-72033000D01*
X106062721Y-72033000D01*
X105650244Y-72115047D01*
X105261698Y-72275988D01*
X104912017Y-72509637D01*
X104614637Y-72807017D01*
X104380988Y-73156698D01*
X104220047Y-73545244D01*
X104138000Y-73957721D01*
X88088000Y-73957721D01*
X88005953Y-73545244D01*
X87845012Y-73156698D01*
X87611363Y-72807017D01*
X87313983Y-72509637D01*
X86964302Y-72275988D01*
X86575756Y-72115047D01*
X86163279Y-72033000D01*
X85742721Y-72033000D01*
X85330244Y-72115047D01*
X84941698Y-72275988D01*
X84592017Y-72509637D01*
X84294637Y-72807017D01*
X84060988Y-73156698D01*
X83900047Y-73545244D01*
X83818000Y-73957721D01*
X60350000Y-73957721D01*
X60350000Y-71780000D01*
X254610001Y-71780000D01*
X254610000Y-106020000D01*
%TA.AperFunction,Conductor*%
D26*
G36*
X254610000Y-106020000D02*
G01*
X60350000Y-106020000D01*
X60350000Y-100310740D01*
X134405000Y-100310740D01*
X134405000Y-100603260D01*
X134462068Y-100890158D01*
X134574010Y-101160411D01*
X134736525Y-101403632D01*
X134943368Y-101610475D01*
X135117760Y-101727000D01*
X134943368Y-101843525D01*
X134736525Y-102050368D01*
X134574010Y-102293589D01*
X134462068Y-102563842D01*
X134405000Y-102850740D01*
X134405000Y-103143260D01*
X134462068Y-103430158D01*
X134574010Y-103700411D01*
X134736525Y-103943632D01*
X134943368Y-104150475D01*
X135186589Y-104312990D01*
X135456842Y-104424932D01*
X135743740Y-104482000D01*
X136036260Y-104482000D01*
X136323158Y-104424932D01*
X136593411Y-104312990D01*
X136836632Y-104150475D01*
X137043475Y-103943632D01*
X137160000Y-103769240D01*
X137276525Y-103943632D01*
X137483368Y-104150475D01*
X137726589Y-104312990D01*
X137996842Y-104424932D01*
X138283740Y-104482000D01*
X138576260Y-104482000D01*
X138863158Y-104424932D01*
X139133411Y-104312990D01*
X139376632Y-104150475D01*
X139583475Y-103943632D01*
X139700000Y-103769240D01*
X139816525Y-103943632D01*
X140023368Y-104150475D01*
X140266589Y-104312990D01*
X140536842Y-104424932D01*
X140823740Y-104482000D01*
X141116260Y-104482000D01*
X141403158Y-104424932D01*
X141673411Y-104312990D01*
X141916632Y-104150475D01*
X142123475Y-103943632D01*
X142240000Y-103769240D01*
X142356525Y-103943632D01*
X142563368Y-104150475D01*
X142806589Y-104312990D01*
X143076842Y-104424932D01*
X143363740Y-104482000D01*
X143656260Y-104482000D01*
X143943158Y-104424932D01*
X144213411Y-104312990D01*
X144456632Y-104150475D01*
X144663475Y-103943632D01*
X144780000Y-103769240D01*
X144896525Y-103943632D01*
X145103368Y-104150475D01*
X145346589Y-104312990D01*
X145616842Y-104424932D01*
X145903740Y-104482000D01*
X146196260Y-104482000D01*
X146483158Y-104424932D01*
X146753411Y-104312990D01*
X146996632Y-104150475D01*
X147203475Y-103943632D01*
X147365990Y-103700411D01*
X147477932Y-103430158D01*
X147535000Y-103143260D01*
X147535000Y-102850740D01*
X147477932Y-102563842D01*
X147365990Y-102293589D01*
X147203475Y-102050368D01*
X147071620Y-101918513D01*
X147144180Y-101896502D01*
X147254494Y-101837537D01*
X147351185Y-101758185D01*
X147430537Y-101661494D01*
X147489502Y-101551180D01*
X147525812Y-101431482D01*
X147538072Y-101307000D01*
X147538072Y-99607000D01*
X147525812Y-99482518D01*
X147489502Y-99362820D01*
X147430537Y-99252506D01*
X147351185Y-99155815D01*
X147254494Y-99076463D01*
X147223695Y-99060000D01*
X148718393Y-99060000D01*
X148723400Y-99110838D01*
X148723400Y-99161939D01*
X148733369Y-99212057D01*
X148738376Y-99262895D01*
X148753204Y-99311777D01*
X148763174Y-99361898D01*
X148782731Y-99409113D01*
X148797559Y-99457993D01*
X148821638Y-99503042D01*
X148841195Y-99550256D01*
X148869586Y-99592746D01*
X148893666Y-99637797D01*
X148926072Y-99677284D01*
X148954463Y-99719774D01*
X148990596Y-99755907D01*
X149023004Y-99795396D01*
X149062492Y-99827803D01*
X149098626Y-99863937D01*
X149141116Y-99892328D01*
X149180603Y-99924734D01*
X149225654Y-99948814D01*
X149268144Y-99977205D01*
X149315358Y-99996762D01*
X149360407Y-100020841D01*
X149409287Y-100035669D01*
X149456502Y-100055226D01*
X149506623Y-100065196D01*
X149555505Y-100080024D01*
X149606343Y-100085031D01*
X149656461Y-100095000D01*
X151393121Y-100095000D01*
X151337647Y-100228926D01*
X151282500Y-100506165D01*
X151282500Y-100788835D01*
X151337647Y-101066074D01*
X151445820Y-101327227D01*
X151602863Y-101562259D01*
X151802741Y-101762137D01*
X152037773Y-101919180D01*
X152298926Y-102027353D01*
X152576165Y-102082500D01*
X152858835Y-102082500D01*
X153136074Y-102027353D01*
X153397227Y-101919180D01*
X153632259Y-101762137D01*
X153832137Y-101562259D01*
X153987500Y-101329741D01*
X154142863Y-101562259D01*
X154342741Y-101762137D01*
X154577773Y-101919180D01*
X154838926Y-102027353D01*
X155116165Y-102082500D01*
X155398835Y-102082500D01*
X155676074Y-102027353D01*
X155937227Y-101919180D01*
X156172259Y-101762137D01*
X156372137Y-101562259D01*
X156527500Y-101329741D01*
X156682863Y-101562259D01*
X156882741Y-101762137D01*
X157117773Y-101919180D01*
X157378926Y-102027353D01*
X157656165Y-102082500D01*
X157938835Y-102082500D01*
X158216074Y-102027353D01*
X158477227Y-101919180D01*
X158712259Y-101762137D01*
X158912137Y-101562259D01*
X159067500Y-101329741D01*
X159222863Y-101562259D01*
X159422741Y-101762137D01*
X159657773Y-101919180D01*
X159918926Y-102027353D01*
X160196165Y-102082500D01*
X160478835Y-102082500D01*
X160756074Y-102027353D01*
X161017227Y-101919180D01*
X161252259Y-101762137D01*
X161452137Y-101562259D01*
X161607500Y-101329741D01*
X161762863Y-101562259D01*
X161962741Y-101762137D01*
X162197773Y-101919180D01*
X162458926Y-102027353D01*
X162736165Y-102082500D01*
X163018835Y-102082500D01*
X163296074Y-102027353D01*
X163557227Y-101919180D01*
X163792259Y-101762137D01*
X163992137Y-101562259D01*
X164147500Y-101329741D01*
X164302863Y-101562259D01*
X164502741Y-101762137D01*
X164737773Y-101919180D01*
X164998926Y-102027353D01*
X165276165Y-102082500D01*
X165558835Y-102082500D01*
X165836074Y-102027353D01*
X166097227Y-101919180D01*
X166332259Y-101762137D01*
X166532137Y-101562259D01*
X166687500Y-101329741D01*
X166842863Y-101562259D01*
X167042741Y-101762137D01*
X167277773Y-101919180D01*
X167538926Y-102027353D01*
X167816165Y-102082500D01*
X168098835Y-102082500D01*
X168376074Y-102027353D01*
X168637227Y-101919180D01*
X168872259Y-101762137D01*
X169072137Y-101562259D01*
X169229180Y-101327227D01*
X169337353Y-101066074D01*
X169392500Y-100788835D01*
X169392500Y-100506165D01*
X169951500Y-100506165D01*
X169951500Y-100788835D01*
X170006647Y-101066074D01*
X170114820Y-101327227D01*
X170271863Y-101562259D01*
X170471741Y-101762137D01*
X170706773Y-101919180D01*
X170967926Y-102027353D01*
X171245165Y-102082500D01*
X171527835Y-102082500D01*
X171805074Y-102027353D01*
X172066227Y-101919180D01*
X172301259Y-101762137D01*
X172380896Y-101682500D01*
X176542672Y-101682500D01*
X176593500Y-101687506D01*
X176644328Y-101682500D01*
X176644338Y-101682500D01*
X176796395Y-101667524D01*
X176991493Y-101608341D01*
X177171297Y-101512234D01*
X177328896Y-101382896D01*
X177361307Y-101343403D01*
X188088711Y-90616000D01*
X188091486Y-90616000D01*
X188349405Y-90564696D01*
X188592359Y-90464061D01*
X188811013Y-90317962D01*
X188996962Y-90132013D01*
X189143061Y-89913359D01*
X189243696Y-89670405D01*
X189295000Y-89412486D01*
X189295000Y-89149514D01*
X189243696Y-88891595D01*
X189143061Y-88648641D01*
X188996962Y-88429987D01*
X188811013Y-88244038D01*
X188592359Y-88097939D01*
X188349405Y-87997304D01*
X188091486Y-87946000D01*
X187828514Y-87946000D01*
X187570595Y-87997304D01*
X187327641Y-88097939D01*
X187108987Y-88244038D01*
X186923038Y-88429987D01*
X186776939Y-88648641D01*
X186690000Y-88858530D01*
X186603061Y-88648641D01*
X186456962Y-88429987D01*
X186271013Y-88244038D01*
X186052359Y-88097939D01*
X185809405Y-87997304D01*
X185551486Y-87946000D01*
X185288514Y-87946000D01*
X185030595Y-87997304D01*
X184787641Y-88097939D01*
X184568987Y-88244038D01*
X184383038Y-88429987D01*
X184236939Y-88648641D01*
X184136304Y-88891595D01*
X184085000Y-89149514D01*
X184085000Y-89412486D01*
X184136304Y-89670405D01*
X184236939Y-89913359D01*
X184383038Y-90132013D01*
X184568987Y-90317962D01*
X184787641Y-90464061D01*
X185030595Y-90564696D01*
X185182397Y-90594892D01*
X176164790Y-99612500D01*
X172380896Y-99612500D01*
X172301259Y-99532863D01*
X172066227Y-99375820D01*
X171805074Y-99267647D01*
X171527835Y-99212500D01*
X171245165Y-99212500D01*
X170967926Y-99267647D01*
X170706773Y-99375820D01*
X170471741Y-99532863D01*
X170271863Y-99732741D01*
X170114820Y-99967773D01*
X170006647Y-100228926D01*
X169951500Y-100506165D01*
X169392500Y-100506165D01*
X169337353Y-100228926D01*
X169229180Y-99967773D01*
X169072137Y-99732741D01*
X168872259Y-99532863D01*
X168637227Y-99375820D01*
X168376074Y-99267647D01*
X168098835Y-99212500D01*
X167816165Y-99212500D01*
X167567647Y-99261934D01*
X166669809Y-98364097D01*
X166637398Y-98324604D01*
X166479799Y-98195266D01*
X166299995Y-98099159D01*
X166104897Y-98039976D01*
X165952840Y-98025000D01*
X165952830Y-98025000D01*
X165902002Y-98019994D01*
X165851174Y-98025000D01*
X149656461Y-98025000D01*
X149606343Y-98034969D01*
X149555505Y-98039976D01*
X149506623Y-98054804D01*
X149456502Y-98064774D01*
X149409287Y-98084331D01*
X149360407Y-98099159D01*
X149315358Y-98123238D01*
X149268144Y-98142795D01*
X149225654Y-98171186D01*
X149180603Y-98195266D01*
X149141116Y-98227672D01*
X149098626Y-98256063D01*
X149062492Y-98292197D01*
X149023004Y-98324604D01*
X148990597Y-98364092D01*
X148954463Y-98400226D01*
X148926072Y-98442716D01*
X148893666Y-98482203D01*
X148869586Y-98527254D01*
X148841195Y-98569744D01*
X148821638Y-98616958D01*
X148797559Y-98662007D01*
X148782731Y-98710887D01*
X148763174Y-98758102D01*
X148753204Y-98808223D01*
X148738376Y-98857105D01*
X148733369Y-98907943D01*
X148723400Y-98958061D01*
X148723400Y-99009162D01*
X148718393Y-99060000D01*
X147223695Y-99060000D01*
X147144180Y-99017498D01*
X147024482Y-98981188D01*
X146900000Y-98968928D01*
X145445001Y-98968928D01*
X145445001Y-96625000D01*
X149137802Y-92932200D01*
X149199939Y-92932200D01*
X149399898Y-92892426D01*
X149415013Y-92886165D01*
X153822500Y-92886165D01*
X153822500Y-93168835D01*
X153877647Y-93446074D01*
X153985820Y-93707227D01*
X154142863Y-93942259D01*
X154342741Y-94142137D01*
X154577773Y-94299180D01*
X154838926Y-94407353D01*
X155116165Y-94462500D01*
X155398835Y-94462500D01*
X155676074Y-94407353D01*
X155937227Y-94299180D01*
X156172259Y-94142137D01*
X156372137Y-93942259D01*
X156527500Y-93709741D01*
X156682863Y-93942259D01*
X156882741Y-94142137D01*
X157117773Y-94299180D01*
X157378926Y-94407353D01*
X157656165Y-94462500D01*
X157938835Y-94462500D01*
X158216074Y-94407353D01*
X158477227Y-94299180D01*
X158712259Y-94142137D01*
X158912137Y-93942259D01*
X159067500Y-93709741D01*
X159222863Y-93942259D01*
X159422741Y-94142137D01*
X159657773Y-94299180D01*
X159918926Y-94407353D01*
X160196165Y-94462500D01*
X160478835Y-94462500D01*
X160756074Y-94407353D01*
X161017227Y-94299180D01*
X161252259Y-94142137D01*
X161452137Y-93942259D01*
X161607500Y-93709741D01*
X161762863Y-93942259D01*
X161962741Y-94142137D01*
X162197773Y-94299180D01*
X162458926Y-94407353D01*
X162736165Y-94462500D01*
X163018835Y-94462500D01*
X163296074Y-94407353D01*
X163557227Y-94299180D01*
X163792259Y-94142137D01*
X163992137Y-93942259D01*
X164147500Y-93709741D01*
X164302863Y-93942259D01*
X164502741Y-94142137D01*
X164737773Y-94299180D01*
X164998926Y-94407353D01*
X165276165Y-94462500D01*
X165558835Y-94462500D01*
X165836074Y-94407353D01*
X166097227Y-94299180D01*
X166332259Y-94142137D01*
X166530857Y-93943539D01*
X166531688Y-93951982D01*
X166567998Y-94071680D01*
X166626963Y-94181994D01*
X166706315Y-94278685D01*
X166803006Y-94358037D01*
X166913320Y-94417002D01*
X167033018Y-94453312D01*
X167157500Y-94465572D01*
X168757500Y-94465572D01*
X168881982Y-94453312D01*
X169001680Y-94417002D01*
X169111994Y-94358037D01*
X169208685Y-94278685D01*
X169288037Y-94181994D01*
X169347002Y-94071680D01*
X169383312Y-93951982D01*
X169395572Y-93827500D01*
X169395572Y-92227500D01*
X169383312Y-92103018D01*
X169347002Y-91983320D01*
X169288037Y-91873006D01*
X169208685Y-91776315D01*
X169111994Y-91696963D01*
X169001680Y-91637998D01*
X168881982Y-91601688D01*
X168757500Y-91589428D01*
X167157500Y-91589428D01*
X167033018Y-91601688D01*
X166913320Y-91637998D01*
X166803006Y-91696963D01*
X166706315Y-91776315D01*
X166626963Y-91873006D01*
X166567998Y-91983320D01*
X166531688Y-92103018D01*
X166530857Y-92111461D01*
X166332259Y-91912863D01*
X166097227Y-91755820D01*
X165836074Y-91647647D01*
X165558835Y-91592500D01*
X165276165Y-91592500D01*
X164998926Y-91647647D01*
X164737773Y-91755820D01*
X164502741Y-91912863D01*
X164302863Y-92112741D01*
X164147500Y-92345259D01*
X163992137Y-92112741D01*
X163792259Y-91912863D01*
X163557227Y-91755820D01*
X163296074Y-91647647D01*
X163018835Y-91592500D01*
X162736165Y-91592500D01*
X162458926Y-91647647D01*
X162197773Y-91755820D01*
X161962741Y-91912863D01*
X161762863Y-92112741D01*
X161607500Y-92345259D01*
X161452137Y-92112741D01*
X161252259Y-91912863D01*
X161017227Y-91755820D01*
X160756074Y-91647647D01*
X160478835Y-91592500D01*
X160196165Y-91592500D01*
X159918926Y-91647647D01*
X159657773Y-91755820D01*
X159422741Y-91912863D01*
X159222863Y-92112741D01*
X159067500Y-92345259D01*
X158912137Y-92112741D01*
X158712259Y-91912863D01*
X158477227Y-91755820D01*
X158216074Y-91647647D01*
X157938835Y-91592500D01*
X157656165Y-91592500D01*
X157378926Y-91647647D01*
X157117773Y-91755820D01*
X156882741Y-91912863D01*
X156682863Y-92112741D01*
X156527500Y-92345259D01*
X156372137Y-92112741D01*
X156172259Y-91912863D01*
X155937227Y-91755820D01*
X155676074Y-91647647D01*
X155398835Y-91592500D01*
X155116165Y-91592500D01*
X154838926Y-91647647D01*
X154577773Y-91755820D01*
X154342741Y-91912863D01*
X154142863Y-92112741D01*
X153985820Y-92347773D01*
X153877647Y-92608926D01*
X153822500Y-92886165D01*
X149415013Y-92886165D01*
X149588256Y-92814405D01*
X149757774Y-92701137D01*
X149901937Y-92556974D01*
X150015205Y-92387456D01*
X150093226Y-92199098D01*
X150133000Y-91999139D01*
X150133000Y-91795261D01*
X150093226Y-91595302D01*
X150015205Y-91406944D01*
X149901937Y-91237426D01*
X149757774Y-91093263D01*
X149588256Y-90979995D01*
X149399898Y-90901974D01*
X149199939Y-90862200D01*
X148996061Y-90862200D01*
X148796102Y-90901974D01*
X148607744Y-90979995D01*
X148438226Y-91093263D01*
X148294063Y-91237426D01*
X148180795Y-91406944D01*
X148102774Y-91595302D01*
X148063000Y-91795261D01*
X148063000Y-91857398D01*
X144173999Y-95746400D01*
X144145001Y-95770198D01*
X144121203Y-95799196D01*
X144121202Y-95799197D01*
X144050027Y-95885923D01*
X143979455Y-96017953D01*
X143935999Y-96161214D01*
X143921325Y-96310199D01*
X143925002Y-96347531D01*
X143925002Y-99025456D01*
X143656260Y-98972000D01*
X143363740Y-98972000D01*
X143076842Y-99029068D01*
X142806589Y-99141010D01*
X142563368Y-99303525D01*
X142356525Y-99510368D01*
X142240000Y-99684760D01*
X142123475Y-99510368D01*
X141916632Y-99303525D01*
X141673411Y-99141010D01*
X141403158Y-99029068D01*
X141116260Y-98972000D01*
X140823740Y-98972000D01*
X140536842Y-99029068D01*
X140266589Y-99141010D01*
X140023368Y-99303525D01*
X139816525Y-99510368D01*
X139700000Y-99684760D01*
X139583475Y-99510368D01*
X139376632Y-99303525D01*
X139133411Y-99141010D01*
X138863158Y-99029068D01*
X138576260Y-98972000D01*
X138283740Y-98972000D01*
X137996842Y-99029068D01*
X137726589Y-99141010D01*
X137483368Y-99303525D01*
X137276525Y-99510368D01*
X137160000Y-99684760D01*
X137043475Y-99510368D01*
X136836632Y-99303525D01*
X136593411Y-99141010D01*
X136323158Y-99029068D01*
X136036260Y-98972000D01*
X135743740Y-98972000D01*
X135456842Y-99029068D01*
X135186589Y-99141010D01*
X134943368Y-99303525D01*
X134736525Y-99510368D01*
X134574010Y-99753589D01*
X134462068Y-100023842D01*
X134405000Y-100310740D01*
X60350000Y-100310740D01*
X60350000Y-86657721D01*
X67588000Y-86657721D01*
X67588000Y-87078279D01*
X67670047Y-87490756D01*
X67830988Y-87879302D01*
X68064637Y-88228983D01*
X68362017Y-88526363D01*
X68711698Y-88760012D01*
X69100244Y-88920953D01*
X69512721Y-89003000D01*
X69933279Y-89003000D01*
X70345756Y-88920953D01*
X70734302Y-88760012D01*
X71083983Y-88526363D01*
X71381363Y-88228983D01*
X71615012Y-87879302D01*
X71775953Y-87490756D01*
X71858000Y-87078279D01*
X71858000Y-86657721D01*
X83818000Y-86657721D01*
X83818000Y-87078279D01*
X83900047Y-87490756D01*
X84060988Y-87879302D01*
X84294637Y-88228983D01*
X84592017Y-88526363D01*
X84941698Y-88760012D01*
X85330244Y-88920953D01*
X85742721Y-89003000D01*
X86163279Y-89003000D01*
X86575756Y-88920953D01*
X86964302Y-88760012D01*
X87313983Y-88526363D01*
X87611363Y-88228983D01*
X87845012Y-87879302D01*
X87998000Y-87509956D01*
X88150988Y-87879302D01*
X88384637Y-88228983D01*
X88682017Y-88526363D01*
X89031698Y-88760012D01*
X89420244Y-88920953D01*
X89832721Y-89003000D01*
X90253279Y-89003000D01*
X90665756Y-88920953D01*
X91054302Y-88760012D01*
X91403983Y-88526363D01*
X91701363Y-88228983D01*
X91935012Y-87879302D01*
X92095953Y-87490756D01*
X92178000Y-87078279D01*
X92178000Y-86657721D01*
X104138000Y-86657721D01*
X104138000Y-87078279D01*
X104220047Y-87490756D01*
X104380988Y-87879302D01*
X104614637Y-88228983D01*
X104912017Y-88526363D01*
X105261698Y-88760012D01*
X105650244Y-88920953D01*
X106062721Y-89003000D01*
X106483279Y-89003000D01*
X106895756Y-88920953D01*
X107284302Y-88760012D01*
X107633983Y-88526363D01*
X107931363Y-88228983D01*
X108165012Y-87879302D01*
X108318000Y-87509956D01*
X108470988Y-87879302D01*
X108704637Y-88228983D01*
X109002017Y-88526363D01*
X109351698Y-88760012D01*
X109740244Y-88920953D01*
X110152721Y-89003000D01*
X110573279Y-89003000D01*
X110985756Y-88920953D01*
X111374302Y-88760012D01*
X111723983Y-88526363D01*
X112021363Y-88228983D01*
X112255012Y-87879302D01*
X112415953Y-87490756D01*
X112498000Y-87078279D01*
X112498000Y-86657721D01*
X112415953Y-86245244D01*
X112255012Y-85856698D01*
X112021363Y-85507017D01*
X111723983Y-85209637D01*
X111374302Y-84975988D01*
X110985756Y-84815047D01*
X110573279Y-84733000D01*
X110152721Y-84733000D01*
X109740244Y-84815047D01*
X109351698Y-84975988D01*
X109002017Y-85209637D01*
X108704637Y-85507017D01*
X108470988Y-85856698D01*
X108318000Y-86226044D01*
X108165012Y-85856698D01*
X107931363Y-85507017D01*
X107633983Y-85209637D01*
X107284302Y-84975988D01*
X106895756Y-84815047D01*
X106483279Y-84733000D01*
X106062721Y-84733000D01*
X105650244Y-84815047D01*
X105261698Y-84975988D01*
X104912017Y-85209637D01*
X104614637Y-85507017D01*
X104380988Y-85856698D01*
X104220047Y-86245244D01*
X104138000Y-86657721D01*
X92178000Y-86657721D01*
X92095953Y-86245244D01*
X91935012Y-85856698D01*
X91701363Y-85507017D01*
X91403983Y-85209637D01*
X91054302Y-84975988D01*
X90665756Y-84815047D01*
X90253279Y-84733000D01*
X89832721Y-84733000D01*
X89420244Y-84815047D01*
X89031698Y-84975988D01*
X88682017Y-85209637D01*
X88384637Y-85507017D01*
X88150988Y-85856698D01*
X87998000Y-86226044D01*
X87845012Y-85856698D01*
X87611363Y-85507017D01*
X87313983Y-85209637D01*
X86964302Y-84975988D01*
X86575756Y-84815047D01*
X86163279Y-84733000D01*
X85742721Y-84733000D01*
X85330244Y-84815047D01*
X84941698Y-84975988D01*
X84592017Y-85209637D01*
X84294637Y-85507017D01*
X84060988Y-85856698D01*
X83900047Y-86245244D01*
X83818000Y-86657721D01*
X71858000Y-86657721D01*
X71775953Y-86245244D01*
X71615012Y-85856698D01*
X71381363Y-85507017D01*
X71083983Y-85209637D01*
X70734302Y-84975988D01*
X70345756Y-84815047D01*
X69933279Y-84733000D01*
X69512721Y-84733000D01*
X69100244Y-84815047D01*
X68711698Y-84975988D01*
X68362017Y-85209637D01*
X68064637Y-85507017D01*
X67830988Y-85856698D01*
X67670047Y-86245244D01*
X67588000Y-86657721D01*
X60350000Y-86657721D01*
X60350000Y-73957721D01*
X83818000Y-73957721D01*
X83818000Y-74378279D01*
X83900047Y-74790756D01*
X84060988Y-75179302D01*
X84294637Y-75528983D01*
X84592017Y-75826363D01*
X84941698Y-76060012D01*
X85330244Y-76220953D01*
X85742721Y-76303000D01*
X86163279Y-76303000D01*
X86575756Y-76220953D01*
X86964302Y-76060012D01*
X87313983Y-75826363D01*
X87611363Y-75528983D01*
X87845012Y-75179302D01*
X88005953Y-74790756D01*
X88088000Y-74378279D01*
X88088000Y-73957721D01*
X104138000Y-73957721D01*
X104138000Y-74378279D01*
X104220047Y-74790756D01*
X104380988Y-75179302D01*
X104614637Y-75528983D01*
X104912017Y-75826363D01*
X105261698Y-76060012D01*
X105650244Y-76220953D01*
X106062721Y-76303000D01*
X106483279Y-76303000D01*
X106895756Y-76220953D01*
X107284302Y-76060012D01*
X107633983Y-75826363D01*
X107931363Y-75528983D01*
X108165012Y-75179302D01*
X108325953Y-74790756D01*
X108408000Y-74378279D01*
X108408000Y-73957721D01*
X124458000Y-73957721D01*
X124458000Y-74378279D01*
X124540047Y-74790756D01*
X124700988Y-75179302D01*
X124934637Y-75528983D01*
X125232017Y-75826363D01*
X125581698Y-76060012D01*
X125833001Y-76164105D01*
X125833000Y-84871895D01*
X125581698Y-84975988D01*
X125232017Y-85209637D01*
X124934637Y-85507017D01*
X124700988Y-85856698D01*
X124540047Y-86245244D01*
X124458000Y-86657721D01*
X124458000Y-87078279D01*
X124540047Y-87490756D01*
X124700988Y-87879302D01*
X124934637Y-88228983D01*
X125232017Y-88526363D01*
X125581698Y-88760012D01*
X125970244Y-88920953D01*
X126382721Y-89003000D01*
X126803279Y-89003000D01*
X127215756Y-88920953D01*
X127604302Y-88760012D01*
X127953983Y-88526363D01*
X128251363Y-88228983D01*
X128485012Y-87879302D01*
X128645953Y-87490756D01*
X128728000Y-87078279D01*
X128728000Y-86657721D01*
X128645953Y-86245244D01*
X128485012Y-85856698D01*
X128251363Y-85507017D01*
X127953983Y-85209637D01*
X127604302Y-84975988D01*
X127353000Y-84871895D01*
X127353000Y-82700000D01*
X131776928Y-82700000D01*
X131776928Y-84800000D01*
X131789188Y-84924482D01*
X131825498Y-85044180D01*
X131884463Y-85154494D01*
X131963815Y-85251185D01*
X132060506Y-85330537D01*
X132170820Y-85389502D01*
X132290518Y-85425812D01*
X132415000Y-85438072D01*
X134474298Y-85438072D01*
X134471772Y-85441853D01*
X134344754Y-85748504D01*
X134280000Y-86074042D01*
X134280000Y-86405958D01*
X134344754Y-86731496D01*
X134471772Y-87038147D01*
X134656175Y-87314125D01*
X134890875Y-87548825D01*
X135166853Y-87733228D01*
X135286248Y-87782683D01*
X135165987Y-87863038D01*
X134980038Y-88048987D01*
X134833939Y-88267641D01*
X134832127Y-88272017D01*
X134767962Y-88175987D01*
X134582013Y-87990038D01*
X134363359Y-87843939D01*
X134120405Y-87743304D01*
X133862486Y-87692000D01*
X133599514Y-87692000D01*
X133341595Y-87743304D01*
X133098641Y-87843939D01*
X132879987Y-87990038D01*
X132694038Y-88175987D01*
X132547939Y-88394641D01*
X132447304Y-88637595D01*
X132396000Y-88895514D01*
X132396000Y-89158486D01*
X132447304Y-89416405D01*
X132547939Y-89659359D01*
X132694038Y-89878013D01*
X132879987Y-90063962D01*
X133098641Y-90210061D01*
X133308530Y-90297000D01*
X133098641Y-90383939D01*
X132879987Y-90530038D01*
X132694038Y-90715987D01*
X132547939Y-90934641D01*
X132447304Y-91177595D01*
X132396000Y-91435514D01*
X132396000Y-91698486D01*
X132447304Y-91956405D01*
X132547939Y-92199359D01*
X132694038Y-92418013D01*
X132879987Y-92603962D01*
X133098641Y-92750061D01*
X133341595Y-92850696D01*
X133599514Y-92902000D01*
X133862486Y-92902000D01*
X134120405Y-92850696D01*
X134363359Y-92750061D01*
X134582013Y-92603962D01*
X134767962Y-92418013D01*
X134914061Y-92199359D01*
X134915873Y-92194983D01*
X134980038Y-92291013D01*
X135165987Y-92476962D01*
X135384641Y-92623061D01*
X135627595Y-92723696D01*
X135885514Y-92775000D01*
X136148486Y-92775000D01*
X136406405Y-92723696D01*
X136649359Y-92623061D01*
X136868013Y-92476962D01*
X137053962Y-92291013D01*
X137118127Y-92194983D01*
X137119939Y-92199359D01*
X137266038Y-92418013D01*
X137451987Y-92603962D01*
X137670641Y-92750061D01*
X137913595Y-92850696D01*
X138171514Y-92902000D01*
X138434486Y-92902000D01*
X138692405Y-92850696D01*
X138935359Y-92750061D01*
X139154013Y-92603962D01*
X139339962Y-92418013D01*
X139486061Y-92199359D01*
X139487873Y-92194983D01*
X139552038Y-92291013D01*
X139737987Y-92476962D01*
X139956641Y-92623061D01*
X140199595Y-92723696D01*
X140457514Y-92775000D01*
X140720486Y-92775000D01*
X140978405Y-92723696D01*
X141221359Y-92623061D01*
X141440013Y-92476962D01*
X141625962Y-92291013D01*
X141690127Y-92194983D01*
X141691939Y-92199359D01*
X141838038Y-92418013D01*
X142023987Y-92603962D01*
X142242641Y-92750061D01*
X142485595Y-92850696D01*
X142743514Y-92902000D01*
X143006486Y-92902000D01*
X143264405Y-92850696D01*
X143507359Y-92750061D01*
X143726013Y-92603962D01*
X143911962Y-92418013D01*
X144058061Y-92199359D01*
X144059873Y-92194983D01*
X144124038Y-92291013D01*
X144309987Y-92476962D01*
X144528641Y-92623061D01*
X144771595Y-92723696D01*
X145029514Y-92775000D01*
X145292486Y-92775000D01*
X145550405Y-92723696D01*
X145793359Y-92623061D01*
X146012013Y-92476962D01*
X146197962Y-92291013D01*
X146344061Y-92072359D01*
X146444696Y-91829405D01*
X146496000Y-91571486D01*
X146496000Y-91308514D01*
X146444696Y-91050595D01*
X146345867Y-90812001D01*
X165625177Y-90812001D01*
X165662499Y-90815677D01*
X165699821Y-90812001D01*
X165699832Y-90812001D01*
X165811485Y-90801004D01*
X165954746Y-90757547D01*
X166086775Y-90686975D01*
X166202500Y-90592002D01*
X166226303Y-90562999D01*
X166448656Y-90340645D01*
X166556014Y-90362000D01*
X166818986Y-90362000D01*
X167076905Y-90310696D01*
X167319859Y-90210061D01*
X167538513Y-90063962D01*
X167724462Y-89878013D01*
X167870561Y-89659359D01*
X167971196Y-89416405D01*
X168022500Y-89158486D01*
X168022500Y-88895514D01*
X167971196Y-88637595D01*
X167870561Y-88394641D01*
X167724462Y-88175987D01*
X167538513Y-87990038D01*
X167319859Y-87843939D01*
X167147863Y-87772696D01*
X167243147Y-87733228D01*
X167519125Y-87548825D01*
X167753825Y-87314125D01*
X167938228Y-87038147D01*
X168065246Y-86731496D01*
X168130000Y-86405958D01*
X168130000Y-86074042D01*
X174770000Y-86074042D01*
X174770000Y-86405958D01*
X174834754Y-86731496D01*
X174961772Y-87038147D01*
X175146175Y-87314125D01*
X175380875Y-87548825D01*
X175656853Y-87733228D01*
X175963504Y-87860246D01*
X176289042Y-87925000D01*
X176620958Y-87925000D01*
X176638616Y-87921488D01*
X176440987Y-88053538D01*
X176255038Y-88239487D01*
X176108939Y-88458141D01*
X176008304Y-88701095D01*
X175957000Y-88959014D01*
X175957000Y-89221986D01*
X176008304Y-89479905D01*
X176108939Y-89722859D01*
X176255038Y-89941513D01*
X176440987Y-90127462D01*
X176659641Y-90273561D01*
X176902595Y-90374196D01*
X177160514Y-90425500D01*
X177423486Y-90425500D01*
X177681405Y-90374196D01*
X177924359Y-90273561D01*
X178143013Y-90127462D01*
X178328962Y-89941513D01*
X178475061Y-89722859D01*
X178562000Y-89512970D01*
X178648939Y-89722859D01*
X178795038Y-89941513D01*
X178980987Y-90127462D01*
X179199641Y-90273561D01*
X179442595Y-90374196D01*
X179700514Y-90425500D01*
X179963486Y-90425500D01*
X180221405Y-90374196D01*
X180464359Y-90273561D01*
X180683013Y-90127462D01*
X180868962Y-89941513D01*
X181015061Y-89722859D01*
X181115696Y-89479905D01*
X181167000Y-89221986D01*
X181167000Y-88959014D01*
X181115696Y-88701095D01*
X181015061Y-88458141D01*
X180868962Y-88239487D01*
X180683013Y-88053538D01*
X180464359Y-87907439D01*
X180221405Y-87806804D01*
X179963486Y-87755500D01*
X179700514Y-87755500D01*
X179442595Y-87806804D01*
X179199641Y-87907439D01*
X178980987Y-88053538D01*
X178795038Y-88239487D01*
X178648939Y-88458141D01*
X178562000Y-88668030D01*
X178475061Y-88458141D01*
X178328962Y-88239487D01*
X178143013Y-88053538D01*
X177924359Y-87907439D01*
X177681405Y-87806804D01*
X177423486Y-87755500D01*
X177199377Y-87755500D01*
X177253147Y-87733228D01*
X177529125Y-87548825D01*
X177763825Y-87314125D01*
X177948228Y-87038147D01*
X178075246Y-86731496D01*
X178140000Y-86405958D01*
X178140000Y-86074042D01*
X178075246Y-85748504D01*
X177948228Y-85441853D01*
X177763825Y-85165875D01*
X177529125Y-84931175D01*
X177253147Y-84746772D01*
X176946496Y-84619754D01*
X176620958Y-84555000D01*
X176289042Y-84555000D01*
X175963504Y-84619754D01*
X175656853Y-84746772D01*
X175380875Y-84931175D01*
X175146175Y-85165875D01*
X174961772Y-85441853D01*
X174834754Y-85748504D01*
X174770000Y-86074042D01*
X168130000Y-86074042D01*
X168065246Y-85748504D01*
X167938228Y-85441853D01*
X167753825Y-85165875D01*
X167519125Y-84931175D01*
X167243147Y-84746772D01*
X166936496Y-84619754D01*
X166610958Y-84555000D01*
X166279042Y-84555000D01*
X165953504Y-84619754D01*
X165646853Y-84746772D01*
X165633072Y-84755980D01*
X165633072Y-83584042D01*
X177270000Y-83584042D01*
X177270000Y-83915958D01*
X177334754Y-84241496D01*
X177461772Y-84548147D01*
X177646175Y-84824125D01*
X177880875Y-85058825D01*
X178156853Y-85243228D01*
X178463504Y-85370246D01*
X178789042Y-85435000D01*
X179120958Y-85435000D01*
X179446496Y-85370246D01*
X179753147Y-85243228D01*
X180029125Y-85058825D01*
X180263825Y-84824125D01*
X180448228Y-84548147D01*
X180575246Y-84241496D01*
X180640000Y-83915958D01*
X180640000Y-83584042D01*
X180575246Y-83258504D01*
X180448228Y-82951853D01*
X180279945Y-82700000D01*
X183846928Y-82700000D01*
X183846928Y-84800000D01*
X183859188Y-84924482D01*
X183895498Y-85044180D01*
X183954463Y-85154494D01*
X184033815Y-85251185D01*
X184130506Y-85330537D01*
X184240820Y-85389502D01*
X184360518Y-85425812D01*
X184485000Y-85438072D01*
X186544298Y-85438072D01*
X186541772Y-85441853D01*
X186414754Y-85748504D01*
X186350000Y-86074042D01*
X186350000Y-86405958D01*
X186414754Y-86731496D01*
X186541772Y-87038147D01*
X186726175Y-87314125D01*
X186960875Y-87548825D01*
X187236853Y-87733228D01*
X187543504Y-87860246D01*
X187869042Y-87925000D01*
X188200958Y-87925000D01*
X188526496Y-87860246D01*
X188833147Y-87733228D01*
X189109125Y-87548825D01*
X189343825Y-87314125D01*
X189528228Y-87038147D01*
X189655246Y-86731496D01*
X189720000Y-86405958D01*
X189720000Y-86074042D01*
X196360000Y-86074042D01*
X196360000Y-86405958D01*
X196424754Y-86731496D01*
X196551772Y-87038147D01*
X196736175Y-87314125D01*
X196970875Y-87548825D01*
X197246853Y-87733228D01*
X197553504Y-87860246D01*
X197879042Y-87925000D01*
X198210958Y-87925000D01*
X198254417Y-87916355D01*
X198122641Y-87970939D01*
X197903987Y-88117038D01*
X197718038Y-88302987D01*
X197571939Y-88521641D01*
X197471304Y-88764595D01*
X197420000Y-89022514D01*
X197420000Y-89285486D01*
X197471304Y-89543405D01*
X197571939Y-89786359D01*
X197718038Y-90005013D01*
X197903987Y-90190962D01*
X198122641Y-90337061D01*
X198365595Y-90437696D01*
X198623514Y-90489000D01*
X198886486Y-90489000D01*
X199144405Y-90437696D01*
X199387359Y-90337061D01*
X199606013Y-90190962D01*
X199791962Y-90005013D01*
X199938061Y-89786359D01*
X200025000Y-89576470D01*
X200111939Y-89786359D01*
X200258038Y-90005013D01*
X200443987Y-90190962D01*
X200662641Y-90337061D01*
X200905595Y-90437696D01*
X201163514Y-90489000D01*
X201426486Y-90489000D01*
X201684405Y-90437696D01*
X201927359Y-90337061D01*
X202146013Y-90190962D01*
X202331962Y-90005013D01*
X202478061Y-89786359D01*
X202578696Y-89543405D01*
X202630000Y-89285486D01*
X202630000Y-89022514D01*
X202617369Y-88959014D01*
X205357500Y-88959014D01*
X205357500Y-89221986D01*
X205408804Y-89479905D01*
X205509439Y-89722859D01*
X205655538Y-89941513D01*
X205841487Y-90127462D01*
X206060141Y-90273561D01*
X206303095Y-90374196D01*
X206561014Y-90425500D01*
X206823986Y-90425500D01*
X207081905Y-90374196D01*
X207324859Y-90273561D01*
X207543513Y-90127462D01*
X207729462Y-89941513D01*
X207875561Y-89722859D01*
X207962500Y-89512970D01*
X208049439Y-89722859D01*
X208195538Y-89941513D01*
X208381487Y-90127462D01*
X208600141Y-90273561D01*
X208843095Y-90374196D01*
X209101014Y-90425500D01*
X209103790Y-90425500D01*
X213264186Y-94585897D01*
X213296594Y-94625386D01*
X213336082Y-94657793D01*
X213454192Y-94754724D01*
X213550299Y-94806094D01*
X213633997Y-94850831D01*
X213829095Y-94910014D01*
X213981152Y-94924990D01*
X213981155Y-94924990D01*
X214031990Y-94929997D01*
X214082825Y-94924990D01*
X225160280Y-94924990D01*
X226884000Y-96648711D01*
X226884000Y-96651486D01*
X226935304Y-96909405D01*
X227035939Y-97152359D01*
X227182038Y-97371013D01*
X227367987Y-97556962D01*
X227586641Y-97703061D01*
X227796530Y-97790000D01*
X227586641Y-97876939D01*
X227367987Y-98023038D01*
X227182038Y-98208987D01*
X227035939Y-98427641D01*
X226935304Y-98670595D01*
X226884000Y-98928514D01*
X226884000Y-99191486D01*
X226935304Y-99449405D01*
X227035939Y-99692359D01*
X227182038Y-99911013D01*
X227367987Y-100096962D01*
X227586641Y-100243061D01*
X227829595Y-100343696D01*
X228087514Y-100395000D01*
X228350486Y-100395000D01*
X228608405Y-100343696D01*
X228851359Y-100243061D01*
X229070013Y-100096962D01*
X229255962Y-99911013D01*
X229402061Y-99692359D01*
X229502696Y-99449405D01*
X229554000Y-99191486D01*
X229554000Y-98928514D01*
X229552041Y-98918665D01*
X229578000Y-98918665D01*
X229578000Y-99201335D01*
X229633147Y-99478574D01*
X229741320Y-99739727D01*
X229898363Y-99974759D01*
X230098241Y-100174637D01*
X230333273Y-100331680D01*
X230594426Y-100439853D01*
X230871665Y-100495000D01*
X231154335Y-100495000D01*
X231431574Y-100439853D01*
X231692727Y-100331680D01*
X231927759Y-100174637D01*
X232127637Y-99974759D01*
X232284680Y-99739727D01*
X232392853Y-99478574D01*
X232448000Y-99201335D01*
X232448000Y-98918665D01*
X232392853Y-98641426D01*
X232284680Y-98380273D01*
X232127637Y-98145241D01*
X231927759Y-97945363D01*
X231692727Y-97788320D01*
X231431574Y-97680147D01*
X231154335Y-97625000D01*
X230871665Y-97625000D01*
X230594426Y-97680147D01*
X230333273Y-97788320D01*
X230098241Y-97945363D01*
X229898363Y-98145241D01*
X229741320Y-98380273D01*
X229633147Y-98641426D01*
X229578000Y-98918665D01*
X229552041Y-98918665D01*
X229502696Y-98670595D01*
X229402061Y-98427641D01*
X229255962Y-98208987D01*
X229070013Y-98023038D01*
X228851359Y-97876939D01*
X228641470Y-97790000D01*
X228851359Y-97703061D01*
X229070013Y-97556962D01*
X229071975Y-97555000D01*
X233124290Y-97555000D01*
X234658000Y-99088711D01*
X234658000Y-99201335D01*
X234713147Y-99478574D01*
X234821320Y-99739727D01*
X234978363Y-99974759D01*
X235178241Y-100174637D01*
X235413273Y-100331680D01*
X235674426Y-100439853D01*
X235951665Y-100495000D01*
X236234335Y-100495000D01*
X236511574Y-100439853D01*
X236772727Y-100331680D01*
X237007759Y-100174637D01*
X237087396Y-100095000D01*
X238400604Y-100095000D01*
X238480241Y-100174637D01*
X238715273Y-100331680D01*
X238976426Y-100439853D01*
X239253665Y-100495000D01*
X239536335Y-100495000D01*
X239813574Y-100439853D01*
X240074727Y-100331680D01*
X240309759Y-100174637D01*
X240509637Y-99974759D01*
X240666680Y-99739727D01*
X240774853Y-99478574D01*
X240830000Y-99201335D01*
X240830000Y-98918665D01*
X240774853Y-98641426D01*
X240666680Y-98380273D01*
X240509637Y-98145241D01*
X240309759Y-97945363D01*
X240074727Y-97788320D01*
X239813574Y-97680147D01*
X239536335Y-97625000D01*
X239253665Y-97625000D01*
X238976426Y-97680147D01*
X238715273Y-97788320D01*
X238480241Y-97945363D01*
X238400604Y-98025000D01*
X237087396Y-98025000D01*
X237007759Y-97945363D01*
X236772727Y-97788320D01*
X236511574Y-97680147D01*
X236234335Y-97625000D01*
X236121711Y-97625000D01*
X234320807Y-95824097D01*
X234288396Y-95784604D01*
X234130797Y-95655266D01*
X233950993Y-95559159D01*
X233755895Y-95499976D01*
X233603838Y-95485000D01*
X233603828Y-95485000D01*
X233553000Y-95479994D01*
X233502172Y-95485000D01*
X229071975Y-95485000D01*
X229070013Y-95483038D01*
X228851359Y-95336939D01*
X228608405Y-95236304D01*
X228350486Y-95185000D01*
X228347711Y-95185000D01*
X226356797Y-93194087D01*
X226324386Y-93154594D01*
X226166787Y-93025256D01*
X225986983Y-92929149D01*
X225791885Y-92869966D01*
X225639828Y-92854990D01*
X225639818Y-92854990D01*
X225588990Y-92849984D01*
X225538162Y-92854990D01*
X214460701Y-92854990D01*
X210818725Y-89213014D01*
X218438500Y-89213014D01*
X218438500Y-89475986D01*
X218489804Y-89733905D01*
X218590439Y-89976859D01*
X218736538Y-90195513D01*
X218922487Y-90381462D01*
X219141141Y-90527561D01*
X219384095Y-90628196D01*
X219642014Y-90679500D01*
X219904986Y-90679500D01*
X220162905Y-90628196D01*
X220405859Y-90527561D01*
X220624513Y-90381462D01*
X220810462Y-90195513D01*
X220956561Y-89976859D01*
X221043500Y-89766970D01*
X221130439Y-89976859D01*
X221276538Y-90195513D01*
X221462487Y-90381462D01*
X221681141Y-90527561D01*
X221924095Y-90628196D01*
X222182014Y-90679500D01*
X222444986Y-90679500D01*
X222702905Y-90628196D01*
X222945859Y-90527561D01*
X223164513Y-90381462D01*
X223350462Y-90195513D01*
X223496561Y-89976859D01*
X223597196Y-89733905D01*
X223648500Y-89475986D01*
X223648500Y-89213014D01*
X223597196Y-88955095D01*
X223496561Y-88712141D01*
X223350462Y-88493487D01*
X223164513Y-88307538D01*
X222945859Y-88161439D01*
X222702905Y-88060804D01*
X222444986Y-88009500D01*
X222182014Y-88009500D01*
X221924095Y-88060804D01*
X221681141Y-88161439D01*
X221462487Y-88307538D01*
X221276538Y-88493487D01*
X221130439Y-88712141D01*
X221043500Y-88922030D01*
X220956561Y-88712141D01*
X220810462Y-88493487D01*
X220624513Y-88307538D01*
X220405859Y-88161439D01*
X220162905Y-88060804D01*
X219904986Y-88009500D01*
X219642014Y-88009500D01*
X219384095Y-88060804D01*
X219141141Y-88161439D01*
X218922487Y-88307538D01*
X218736538Y-88493487D01*
X218590439Y-88712141D01*
X218489804Y-88955095D01*
X218438500Y-89213014D01*
X210818725Y-89213014D01*
X210567500Y-88961790D01*
X210567500Y-88959014D01*
X210516196Y-88701095D01*
X210415561Y-88458141D01*
X210269462Y-88239487D01*
X210083513Y-88053538D01*
X209868159Y-87909644D01*
X210116496Y-87860246D01*
X210423147Y-87733228D01*
X210699125Y-87548825D01*
X210933825Y-87314125D01*
X211118228Y-87038147D01*
X211245246Y-86731496D01*
X211310000Y-86405958D01*
X211310000Y-86074042D01*
X217950000Y-86074042D01*
X217950000Y-86405958D01*
X218014754Y-86731496D01*
X218141772Y-87038147D01*
X218326175Y-87314125D01*
X218560875Y-87548825D01*
X218836853Y-87733228D01*
X219143504Y-87860246D01*
X219469042Y-87925000D01*
X219800958Y-87925000D01*
X220126496Y-87860246D01*
X220433147Y-87733228D01*
X220709125Y-87548825D01*
X220943825Y-87314125D01*
X221128228Y-87038147D01*
X221255246Y-86731496D01*
X221320000Y-86405958D01*
X221320000Y-86074042D01*
X221255246Y-85748504D01*
X221128228Y-85441853D01*
X220943825Y-85165875D01*
X220709125Y-84931175D01*
X220433147Y-84746772D01*
X220126496Y-84619754D01*
X219800958Y-84555000D01*
X219469042Y-84555000D01*
X219143504Y-84619754D01*
X218836853Y-84746772D01*
X218560875Y-84931175D01*
X218326175Y-85165875D01*
X218141772Y-85441853D01*
X218014754Y-85748504D01*
X217950000Y-86074042D01*
X211310000Y-86074042D01*
X211245246Y-85748504D01*
X211118228Y-85441853D01*
X210933825Y-85165875D01*
X210699125Y-84931175D01*
X210423147Y-84746772D01*
X210116496Y-84619754D01*
X209790958Y-84555000D01*
X209459042Y-84555000D01*
X209133504Y-84619754D01*
X208826853Y-84746772D01*
X208813072Y-84755980D01*
X208813072Y-83584042D01*
X220450000Y-83584042D01*
X220450000Y-83915958D01*
X220514754Y-84241496D01*
X220641772Y-84548147D01*
X220826175Y-84824125D01*
X221060875Y-85058825D01*
X221336853Y-85243228D01*
X221643504Y-85370246D01*
X221969042Y-85435000D01*
X222300958Y-85435000D01*
X222626496Y-85370246D01*
X222933147Y-85243228D01*
X223209125Y-85058825D01*
X223443825Y-84824125D01*
X223628228Y-84548147D01*
X223755246Y-84241496D01*
X223820000Y-83915958D01*
X223820000Y-83584042D01*
X223755246Y-83258504D01*
X223628228Y-82951853D01*
X223464289Y-82706500D01*
X227026928Y-82706500D01*
X227026928Y-84806500D01*
X227039188Y-84930982D01*
X227075498Y-85050680D01*
X227134463Y-85160994D01*
X227213815Y-85257685D01*
X227310506Y-85337037D01*
X227420820Y-85396002D01*
X227540518Y-85432312D01*
X227665000Y-85444572D01*
X229724298Y-85444572D01*
X229721772Y-85448353D01*
X229594754Y-85755004D01*
X229530000Y-86080542D01*
X229530000Y-86412458D01*
X229594754Y-86737996D01*
X229721772Y-87044647D01*
X229906175Y-87320625D01*
X230140875Y-87555325D01*
X230397676Y-87726915D01*
X230288987Y-87799538D01*
X230103038Y-87985487D01*
X229956939Y-88204141D01*
X229870000Y-88414030D01*
X229783061Y-88204141D01*
X229636962Y-87985487D01*
X229451013Y-87799538D01*
X229232359Y-87653439D01*
X228989405Y-87552804D01*
X228731486Y-87501500D01*
X228468514Y-87501500D01*
X228210595Y-87552804D01*
X227967641Y-87653439D01*
X227748987Y-87799538D01*
X227563038Y-87985487D01*
X227416939Y-88204141D01*
X227316304Y-88447095D01*
X227265000Y-88705014D01*
X227265000Y-88967986D01*
X227316304Y-89225905D01*
X227416939Y-89468859D01*
X227563038Y-89687513D01*
X227748987Y-89873462D01*
X227967641Y-90019561D01*
X228210595Y-90120196D01*
X228468514Y-90171500D01*
X228731486Y-90171500D01*
X228989405Y-90120196D01*
X229232359Y-90019561D01*
X229451013Y-89873462D01*
X229636962Y-89687513D01*
X229783061Y-89468859D01*
X229870000Y-89258970D01*
X229956939Y-89468859D01*
X230103038Y-89687513D01*
X230288987Y-89873462D01*
X230507641Y-90019561D01*
X230601991Y-90058642D01*
X230594426Y-90060147D01*
X230333273Y-90168320D01*
X230098241Y-90325363D01*
X229898363Y-90525241D01*
X229741320Y-90760273D01*
X229633147Y-91021426D01*
X229578000Y-91298665D01*
X229578000Y-91581335D01*
X229633147Y-91858574D01*
X229741320Y-92119727D01*
X229898363Y-92354759D01*
X230098241Y-92554637D01*
X230333273Y-92711680D01*
X230594426Y-92819853D01*
X230871665Y-92875000D01*
X231154335Y-92875000D01*
X231431574Y-92819853D01*
X231692727Y-92711680D01*
X231927759Y-92554637D01*
X232127637Y-92354759D01*
X232283000Y-92122241D01*
X232438363Y-92354759D01*
X232638241Y-92554637D01*
X232873273Y-92711680D01*
X233134426Y-92819853D01*
X233411665Y-92875000D01*
X233694335Y-92875000D01*
X233971574Y-92819853D01*
X234232727Y-92711680D01*
X234467759Y-92554637D01*
X234666357Y-92356039D01*
X234667188Y-92364482D01*
X234703498Y-92484180D01*
X234762463Y-92594494D01*
X234841815Y-92691185D01*
X234938506Y-92770537D01*
X235048820Y-92829502D01*
X235168518Y-92865812D01*
X235293000Y-92878072D01*
X236893000Y-92878072D01*
X237017482Y-92865812D01*
X237137180Y-92829502D01*
X237247494Y-92770537D01*
X237344185Y-92691185D01*
X237423537Y-92594494D01*
X237482502Y-92484180D01*
X237518812Y-92364482D01*
X237531072Y-92240000D01*
X237531072Y-90640000D01*
X237518812Y-90515518D01*
X237482502Y-90395820D01*
X237423537Y-90285506D01*
X237414564Y-90274572D01*
X238290000Y-90274572D01*
X238414482Y-90262312D01*
X238534180Y-90226002D01*
X238644494Y-90167037D01*
X238741185Y-90087685D01*
X238820537Y-89990994D01*
X238879502Y-89880680D01*
X238915812Y-89760982D01*
X238928072Y-89636500D01*
X238928072Y-88036500D01*
X238915812Y-87912018D01*
X238879502Y-87792320D01*
X238820537Y-87682006D01*
X238741185Y-87585315D01*
X238644494Y-87505963D01*
X238534180Y-87446998D01*
X238414482Y-87410688D01*
X238290000Y-87398428D01*
X236690000Y-87398428D01*
X236565518Y-87410688D01*
X236445820Y-87446998D01*
X236335506Y-87505963D01*
X236238815Y-87585315D01*
X236159463Y-87682006D01*
X236100498Y-87792320D01*
X236064188Y-87912018D01*
X236051928Y-88036500D01*
X236051928Y-89636500D01*
X236064188Y-89760982D01*
X236100498Y-89880680D01*
X236159463Y-89990994D01*
X236168436Y-90001928D01*
X235293000Y-90001928D01*
X235168518Y-90014188D01*
X235048820Y-90050498D01*
X234938506Y-90109463D01*
X234841815Y-90188815D01*
X234762463Y-90285506D01*
X234703498Y-90395820D01*
X234667188Y-90515518D01*
X234666357Y-90523961D01*
X234467759Y-90325363D01*
X234313000Y-90221957D01*
X234313000Y-90127535D01*
X234359727Y-90108180D01*
X234594759Y-89951137D01*
X234794637Y-89751259D01*
X234951680Y-89516227D01*
X235059853Y-89255074D01*
X235115000Y-88977835D01*
X235115000Y-88695165D01*
X235059853Y-88417926D01*
X234951680Y-88156773D01*
X234794637Y-87921741D01*
X234594759Y-87721863D01*
X234359727Y-87564820D01*
X234098574Y-87456647D01*
X233821335Y-87401500D01*
X233538665Y-87401500D01*
X233261426Y-87456647D01*
X233000273Y-87564820D01*
X232765241Y-87721863D01*
X232565363Y-87921741D01*
X232408320Y-88156773D01*
X232355880Y-88283374D01*
X232323061Y-88204141D01*
X232176962Y-87985487D01*
X231991013Y-87799538D01*
X231944226Y-87768276D01*
X232013147Y-87739728D01*
X232289125Y-87555325D01*
X232523825Y-87320625D01*
X232708228Y-87044647D01*
X232835246Y-86737996D01*
X232900000Y-86412458D01*
X232900000Y-86080542D01*
X239540000Y-86080542D01*
X239540000Y-86412458D01*
X239604754Y-86737996D01*
X239731772Y-87044647D01*
X239916175Y-87320625D01*
X240150875Y-87555325D01*
X240426853Y-87739728D01*
X240733504Y-87866746D01*
X241059042Y-87931500D01*
X241390958Y-87931500D01*
X241716496Y-87866746D01*
X242023147Y-87739728D01*
X242299125Y-87555325D01*
X242533825Y-87320625D01*
X242718228Y-87044647D01*
X242845246Y-86737996D01*
X242910000Y-86412458D01*
X242910000Y-86080542D01*
X242845246Y-85755004D01*
X242718228Y-85448353D01*
X242533825Y-85172375D01*
X242299125Y-84937675D01*
X242023147Y-84753272D01*
X241716496Y-84626254D01*
X241390958Y-84561500D01*
X241059042Y-84561500D01*
X240733504Y-84626254D01*
X240426853Y-84753272D01*
X240150875Y-84937675D01*
X239916175Y-85172375D01*
X239731772Y-85448353D01*
X239604754Y-85755004D01*
X239540000Y-86080542D01*
X232900000Y-86080542D01*
X232835246Y-85755004D01*
X232708228Y-85448353D01*
X232523825Y-85172375D01*
X232289125Y-84937675D01*
X232013147Y-84753272D01*
X231706496Y-84626254D01*
X231380958Y-84561500D01*
X231049042Y-84561500D01*
X230723504Y-84626254D01*
X230416853Y-84753272D01*
X230403072Y-84762480D01*
X230403072Y-83590542D01*
X234535000Y-83590542D01*
X234535000Y-83922458D01*
X234599754Y-84247996D01*
X234726772Y-84554647D01*
X234911175Y-84830625D01*
X235145875Y-85065325D01*
X235421853Y-85249728D01*
X235728504Y-85376746D01*
X236054042Y-85441500D01*
X236385958Y-85441500D01*
X236711496Y-85376746D01*
X237018147Y-85249728D01*
X237294125Y-85065325D01*
X237528825Y-84830625D01*
X237713228Y-84554647D01*
X237840246Y-84247996D01*
X237905000Y-83922458D01*
X237905000Y-83590542D01*
X242040000Y-83590542D01*
X242040000Y-83922458D01*
X242104754Y-84247996D01*
X242231772Y-84554647D01*
X242416175Y-84830625D01*
X242650875Y-85065325D01*
X242926853Y-85249728D01*
X243233504Y-85376746D01*
X243559042Y-85441500D01*
X243890958Y-85441500D01*
X244216496Y-85376746D01*
X244523147Y-85249728D01*
X244799125Y-85065325D01*
X245033825Y-84830625D01*
X245218228Y-84554647D01*
X245345246Y-84247996D01*
X245410000Y-83922458D01*
X245410000Y-83590542D01*
X245345246Y-83265004D01*
X245218228Y-82958353D01*
X245033825Y-82682375D01*
X244799125Y-82447675D01*
X244523147Y-82263272D01*
X244216496Y-82136254D01*
X243890958Y-82071500D01*
X243559042Y-82071500D01*
X243233504Y-82136254D01*
X242926853Y-82263272D01*
X242650875Y-82447675D01*
X242416175Y-82682375D01*
X242231772Y-82958353D01*
X242104754Y-83265004D01*
X242040000Y-83590542D01*
X237905000Y-83590542D01*
X237840246Y-83265004D01*
X237713228Y-82958353D01*
X237528825Y-82682375D01*
X237294125Y-82447675D01*
X237018147Y-82263272D01*
X236711496Y-82136254D01*
X236385958Y-82071500D01*
X236054042Y-82071500D01*
X235728504Y-82136254D01*
X235421853Y-82263272D01*
X235145875Y-82447675D01*
X234911175Y-82682375D01*
X234726772Y-82958353D01*
X234599754Y-83265004D01*
X234535000Y-83590542D01*
X230403072Y-83590542D01*
X230403072Y-82706500D01*
X230390812Y-82582018D01*
X230354502Y-82462320D01*
X230295537Y-82352006D01*
X230216185Y-82255315D01*
X230119494Y-82175963D01*
X230009180Y-82116998D01*
X229889482Y-82080688D01*
X229765000Y-82068428D01*
X227665000Y-82068428D01*
X227540518Y-82080688D01*
X227420820Y-82116998D01*
X227310506Y-82175963D01*
X227213815Y-82255315D01*
X227134463Y-82352006D01*
X227075498Y-82462320D01*
X227039188Y-82582018D01*
X227026928Y-82706500D01*
X223464289Y-82706500D01*
X223443825Y-82675875D01*
X223209125Y-82441175D01*
X222933147Y-82256772D01*
X222626496Y-82129754D01*
X222300958Y-82065000D01*
X221969042Y-82065000D01*
X221643504Y-82129754D01*
X221336853Y-82256772D01*
X221060875Y-82441175D01*
X220826175Y-82675875D01*
X220641772Y-82951853D01*
X220514754Y-83258504D01*
X220450000Y-83584042D01*
X208813072Y-83584042D01*
X208813072Y-82700000D01*
X208800812Y-82575518D01*
X208764502Y-82455820D01*
X208705537Y-82345506D01*
X208626185Y-82248815D01*
X208529494Y-82169463D01*
X208419180Y-82110498D01*
X208299482Y-82074188D01*
X208175000Y-82061928D01*
X206075000Y-82061928D01*
X205950518Y-82074188D01*
X205830820Y-82110498D01*
X205720506Y-82169463D01*
X205623815Y-82248815D01*
X205544463Y-82345506D01*
X205485498Y-82455820D01*
X205449188Y-82575518D01*
X205436928Y-82700000D01*
X205436928Y-84800000D01*
X205449188Y-84924482D01*
X205485498Y-85044180D01*
X205544463Y-85154494D01*
X205623815Y-85251185D01*
X205720506Y-85330537D01*
X205830820Y-85389502D01*
X205950518Y-85425812D01*
X206075000Y-85438072D01*
X208134298Y-85438072D01*
X208131772Y-85441853D01*
X208004754Y-85748504D01*
X207940000Y-86074042D01*
X207940000Y-86405958D01*
X208004754Y-86731496D01*
X208131772Y-87038147D01*
X208316175Y-87314125D01*
X208550875Y-87548825D01*
X208826853Y-87733228D01*
X208952124Y-87785116D01*
X208843095Y-87806804D01*
X208600141Y-87907439D01*
X208381487Y-88053538D01*
X208195538Y-88239487D01*
X208049439Y-88458141D01*
X207962500Y-88668030D01*
X207875561Y-88458141D01*
X207729462Y-88239487D01*
X207543513Y-88053538D01*
X207324859Y-87907439D01*
X207081905Y-87806804D01*
X206823986Y-87755500D01*
X206561014Y-87755500D01*
X206303095Y-87806804D01*
X206060141Y-87907439D01*
X205841487Y-88053538D01*
X205655538Y-88239487D01*
X205509439Y-88458141D01*
X205408804Y-88701095D01*
X205357500Y-88959014D01*
X202617369Y-88959014D01*
X202578696Y-88764595D01*
X202478061Y-88521641D01*
X202331962Y-88302987D01*
X202146013Y-88117038D01*
X201927359Y-87970939D01*
X201684405Y-87870304D01*
X201426486Y-87819000D01*
X201163514Y-87819000D01*
X200905595Y-87870304D01*
X200662641Y-87970939D01*
X200443987Y-88117038D01*
X200258038Y-88302987D01*
X200111939Y-88521641D01*
X200025000Y-88731530D01*
X199938061Y-88521641D01*
X199791962Y-88302987D01*
X199606013Y-88117038D01*
X199387359Y-87970939D01*
X199144405Y-87870304D01*
X198886486Y-87819000D01*
X198636073Y-87819000D01*
X198843147Y-87733228D01*
X199119125Y-87548825D01*
X199353825Y-87314125D01*
X199538228Y-87038147D01*
X199665246Y-86731496D01*
X199730000Y-86405958D01*
X199730000Y-86074042D01*
X199665246Y-85748504D01*
X199538228Y-85441853D01*
X199353825Y-85165875D01*
X199119125Y-84931175D01*
X198843147Y-84746772D01*
X198536496Y-84619754D01*
X198210958Y-84555000D01*
X197879042Y-84555000D01*
X197553504Y-84619754D01*
X197246853Y-84746772D01*
X196970875Y-84931175D01*
X196736175Y-85165875D01*
X196551772Y-85441853D01*
X196424754Y-85748504D01*
X196360000Y-86074042D01*
X189720000Y-86074042D01*
X189655246Y-85748504D01*
X189528228Y-85441853D01*
X189343825Y-85165875D01*
X189109125Y-84931175D01*
X188833147Y-84746772D01*
X188526496Y-84619754D01*
X188200958Y-84555000D01*
X187869042Y-84555000D01*
X187543504Y-84619754D01*
X187236853Y-84746772D01*
X187223072Y-84755980D01*
X187223072Y-83584042D01*
X198860000Y-83584042D01*
X198860000Y-83915958D01*
X198924754Y-84241496D01*
X199051772Y-84548147D01*
X199236175Y-84824125D01*
X199470875Y-85058825D01*
X199746853Y-85243228D01*
X200053504Y-85370246D01*
X200379042Y-85435000D01*
X200710958Y-85435000D01*
X201036496Y-85370246D01*
X201343147Y-85243228D01*
X201619125Y-85058825D01*
X201853825Y-84824125D01*
X202038228Y-84548147D01*
X202165246Y-84241496D01*
X202230000Y-83915958D01*
X202230000Y-83584042D01*
X202165246Y-83258504D01*
X202038228Y-82951853D01*
X201853825Y-82675875D01*
X201619125Y-82441175D01*
X201343147Y-82256772D01*
X201036496Y-82129754D01*
X200710958Y-82065000D01*
X200379042Y-82065000D01*
X200053504Y-82129754D01*
X199746853Y-82256772D01*
X199470875Y-82441175D01*
X199236175Y-82675875D01*
X199051772Y-82951853D01*
X198924754Y-83258504D01*
X198860000Y-83584042D01*
X187223072Y-83584042D01*
X187223072Y-82700000D01*
X187210812Y-82575518D01*
X187174502Y-82455820D01*
X187115537Y-82345506D01*
X187036185Y-82248815D01*
X186939494Y-82169463D01*
X186829180Y-82110498D01*
X186709482Y-82074188D01*
X186585000Y-82061928D01*
X184485000Y-82061928D01*
X184360518Y-82074188D01*
X184240820Y-82110498D01*
X184130506Y-82169463D01*
X184033815Y-82248815D01*
X183954463Y-82345506D01*
X183895498Y-82455820D01*
X183859188Y-82575518D01*
X183846928Y-82700000D01*
X180279945Y-82700000D01*
X180263825Y-82675875D01*
X180029125Y-82441175D01*
X179753147Y-82256772D01*
X179446496Y-82129754D01*
X179120958Y-82065000D01*
X178789042Y-82065000D01*
X178463504Y-82129754D01*
X178156853Y-82256772D01*
X177880875Y-82441175D01*
X177646175Y-82675875D01*
X177461772Y-82951853D01*
X177334754Y-83258504D01*
X177270000Y-83584042D01*
X165633072Y-83584042D01*
X165633072Y-82700000D01*
X165620812Y-82575518D01*
X165584502Y-82455820D01*
X165525537Y-82345506D01*
X165446185Y-82248815D01*
X165349494Y-82169463D01*
X165239180Y-82110498D01*
X165119482Y-82074188D01*
X164995000Y-82061928D01*
X162895000Y-82061928D01*
X162770518Y-82074188D01*
X162650820Y-82110498D01*
X162540506Y-82169463D01*
X162443815Y-82248815D01*
X162364463Y-82345506D01*
X162305498Y-82455820D01*
X162269188Y-82575518D01*
X162256928Y-82700000D01*
X162256928Y-84800000D01*
X162269188Y-84924482D01*
X162305498Y-85044180D01*
X162364463Y-85154494D01*
X162443815Y-85251185D01*
X162540506Y-85330537D01*
X162650820Y-85389502D01*
X162770518Y-85425812D01*
X162895000Y-85438072D01*
X164954298Y-85438072D01*
X164951772Y-85441853D01*
X164824754Y-85748504D01*
X164760000Y-86074042D01*
X164760000Y-86405958D01*
X164824754Y-86731496D01*
X164951772Y-87038147D01*
X165136175Y-87314125D01*
X165370875Y-87548825D01*
X165646853Y-87733228D01*
X165953504Y-87860246D01*
X166013018Y-87872084D01*
X165836487Y-87990038D01*
X165650538Y-88175987D01*
X165504439Y-88394641D01*
X165417500Y-88604530D01*
X165330561Y-88394641D01*
X165184462Y-88175987D01*
X164998513Y-87990038D01*
X164779859Y-87843939D01*
X164536905Y-87743304D01*
X164278986Y-87692000D01*
X164016014Y-87692000D01*
X163758095Y-87743304D01*
X163515141Y-87843939D01*
X163296487Y-87990038D01*
X163110538Y-88175987D01*
X162964439Y-88394641D01*
X162863804Y-88637595D01*
X162812500Y-88895514D01*
X162812500Y-89158486D01*
X162839058Y-89292001D01*
X146443621Y-89292001D01*
X146444696Y-89289405D01*
X146496000Y-89031486D01*
X146496000Y-88768514D01*
X146444696Y-88510595D01*
X146344061Y-88267641D01*
X146197962Y-88048987D01*
X146073975Y-87925000D01*
X146140958Y-87925000D01*
X146466496Y-87860246D01*
X146773147Y-87733228D01*
X147049125Y-87548825D01*
X147283825Y-87314125D01*
X147468228Y-87038147D01*
X147595246Y-86731496D01*
X147660000Y-86405958D01*
X147660000Y-86074042D01*
X147595246Y-85748504D01*
X147468228Y-85441853D01*
X147283825Y-85165875D01*
X147049125Y-84931175D01*
X146773147Y-84746772D01*
X146466496Y-84619754D01*
X146140958Y-84555000D01*
X145809042Y-84555000D01*
X145483504Y-84619754D01*
X145176853Y-84746772D01*
X144900875Y-84931175D01*
X144666175Y-85165875D01*
X144481772Y-85441853D01*
X144354754Y-85748504D01*
X144290000Y-86074042D01*
X144290000Y-86405958D01*
X144354754Y-86731496D01*
X144481772Y-87038147D01*
X144666175Y-87314125D01*
X144900875Y-87548825D01*
X144949040Y-87581008D01*
X144771595Y-87616304D01*
X144528641Y-87716939D01*
X144309987Y-87863038D01*
X144124038Y-88048987D01*
X143977939Y-88267641D01*
X143976127Y-88272017D01*
X143911962Y-88175987D01*
X143726013Y-87990038D01*
X143507359Y-87843939D01*
X143264405Y-87743304D01*
X143006486Y-87692000D01*
X142743514Y-87692000D01*
X142485595Y-87743304D01*
X142242641Y-87843939D01*
X142023987Y-87990038D01*
X141838038Y-88175987D01*
X141773873Y-88272017D01*
X141772061Y-88267641D01*
X141625962Y-88048987D01*
X141440013Y-87863038D01*
X141221359Y-87716939D01*
X140978405Y-87616304D01*
X140720486Y-87565000D01*
X140457514Y-87565000D01*
X140199595Y-87616304D01*
X139956641Y-87716939D01*
X139737987Y-87863038D01*
X139552038Y-88048987D01*
X139405939Y-88267641D01*
X139404127Y-88272017D01*
X139339962Y-88175987D01*
X139154013Y-87990038D01*
X138935359Y-87843939D01*
X138692405Y-87743304D01*
X138434486Y-87692000D01*
X138171514Y-87692000D01*
X137913595Y-87743304D01*
X137670641Y-87843939D01*
X137451987Y-87990038D01*
X137266038Y-88175987D01*
X137201873Y-88272017D01*
X137200061Y-88267641D01*
X137053962Y-88048987D01*
X136868013Y-87863038D01*
X136707953Y-87756090D01*
X136763147Y-87733228D01*
X137039125Y-87548825D01*
X137273825Y-87314125D01*
X137458228Y-87038147D01*
X137585246Y-86731496D01*
X137650000Y-86405958D01*
X137650000Y-86074042D01*
X137585246Y-85748504D01*
X137458228Y-85441853D01*
X137273825Y-85165875D01*
X137039125Y-84931175D01*
X136763147Y-84746772D01*
X136456496Y-84619754D01*
X136130958Y-84555000D01*
X135799042Y-84555000D01*
X135473504Y-84619754D01*
X135166853Y-84746772D01*
X135153072Y-84755980D01*
X135153072Y-83584042D01*
X146790000Y-83584042D01*
X146790000Y-83915958D01*
X146854754Y-84241496D01*
X146981772Y-84548147D01*
X147166175Y-84824125D01*
X147400875Y-85058825D01*
X147676853Y-85243228D01*
X147983504Y-85370246D01*
X148309042Y-85435000D01*
X148640958Y-85435000D01*
X148966496Y-85370246D01*
X149273147Y-85243228D01*
X149549125Y-85058825D01*
X149783825Y-84824125D01*
X149968228Y-84548147D01*
X150095246Y-84241496D01*
X150160000Y-83915958D01*
X150160000Y-83584042D01*
X150095246Y-83258504D01*
X149968228Y-82951853D01*
X149783825Y-82675875D01*
X149549125Y-82441175D01*
X149273147Y-82256772D01*
X148966496Y-82129754D01*
X148640958Y-82065000D01*
X148309042Y-82065000D01*
X147983504Y-82129754D01*
X147676853Y-82256772D01*
X147400875Y-82441175D01*
X147166175Y-82675875D01*
X146981772Y-82951853D01*
X146854754Y-83258504D01*
X146790000Y-83584042D01*
X135153072Y-83584042D01*
X135153072Y-82700000D01*
X135140812Y-82575518D01*
X135104502Y-82455820D01*
X135045537Y-82345506D01*
X134966185Y-82248815D01*
X134869494Y-82169463D01*
X134759180Y-82110498D01*
X134639482Y-82074188D01*
X134515000Y-82061928D01*
X132415000Y-82061928D01*
X132290518Y-82074188D01*
X132170820Y-82110498D01*
X132060506Y-82169463D01*
X131963815Y-82248815D01*
X131884463Y-82345506D01*
X131825498Y-82455820D01*
X131789188Y-82575518D01*
X131776928Y-82700000D01*
X127353000Y-82700000D01*
X127353000Y-78559761D01*
X131635000Y-78559761D01*
X131635000Y-78920239D01*
X131705325Y-79273791D01*
X131843275Y-79606830D01*
X132043546Y-79906557D01*
X132298443Y-80161454D01*
X132598170Y-80361725D01*
X132931209Y-80499675D01*
X133284761Y-80570000D01*
X133645239Y-80570000D01*
X133998791Y-80499675D01*
X134331830Y-80361725D01*
X134631557Y-80161454D01*
X134886454Y-79906557D01*
X135086725Y-79606830D01*
X135224675Y-79273791D01*
X135295000Y-78920239D01*
X135295000Y-78559761D01*
X146645000Y-78559761D01*
X146645000Y-78920239D01*
X146715325Y-79273791D01*
X146853275Y-79606830D01*
X147053546Y-79906557D01*
X147308443Y-80161454D01*
X147608170Y-80361725D01*
X147941209Y-80499675D01*
X148294761Y-80570000D01*
X148655239Y-80570000D01*
X149008791Y-80499675D01*
X149341830Y-80361725D01*
X149641557Y-80161454D01*
X149896454Y-79906557D01*
X150096725Y-79606830D01*
X150234675Y-79273791D01*
X150305000Y-78920239D01*
X150305000Y-78559761D01*
X162115000Y-78559761D01*
X162115000Y-78920239D01*
X162185325Y-79273791D01*
X162323275Y-79606830D01*
X162523546Y-79906557D01*
X162778443Y-80161454D01*
X163078170Y-80361725D01*
X163411209Y-80499675D01*
X163764761Y-80570000D01*
X164125239Y-80570000D01*
X164478791Y-80499675D01*
X164811830Y-80361725D01*
X165111557Y-80161454D01*
X165366454Y-79906557D01*
X165566725Y-79606830D01*
X165704675Y-79273791D01*
X165775000Y-78920239D01*
X165775000Y-78559761D01*
X177125000Y-78559761D01*
X177125000Y-78920239D01*
X177195325Y-79273791D01*
X177333275Y-79606830D01*
X177533546Y-79906557D01*
X177788443Y-80161454D01*
X178088170Y-80361725D01*
X178421209Y-80499675D01*
X178774761Y-80570000D01*
X179135239Y-80570000D01*
X179488791Y-80499675D01*
X179821830Y-80361725D01*
X180121557Y-80161454D01*
X180376454Y-79906557D01*
X180576725Y-79606830D01*
X180714675Y-79273791D01*
X180785000Y-78920239D01*
X180785000Y-78559761D01*
X183705000Y-78559761D01*
X183705000Y-78920239D01*
X183775325Y-79273791D01*
X183913275Y-79606830D01*
X184113546Y-79906557D01*
X184368443Y-80161454D01*
X184668170Y-80361725D01*
X185001209Y-80499675D01*
X185354761Y-80570000D01*
X185715239Y-80570000D01*
X186068791Y-80499675D01*
X186401830Y-80361725D01*
X186701557Y-80161454D01*
X186956454Y-79906557D01*
X187156725Y-79606830D01*
X187294675Y-79273791D01*
X187365000Y-78920239D01*
X187365000Y-78559761D01*
X198715000Y-78559761D01*
X198715000Y-78920239D01*
X198785325Y-79273791D01*
X198923275Y-79606830D01*
X199123546Y-79906557D01*
X199378443Y-80161454D01*
X199678170Y-80361725D01*
X200011209Y-80499675D01*
X200364761Y-80570000D01*
X200725239Y-80570000D01*
X201078791Y-80499675D01*
X201411830Y-80361725D01*
X201711557Y-80161454D01*
X201966454Y-79906557D01*
X202166725Y-79606830D01*
X202304675Y-79273791D01*
X202375000Y-78920239D01*
X202375000Y-78559761D01*
X205295000Y-78559761D01*
X205295000Y-78920239D01*
X205365325Y-79273791D01*
X205503275Y-79606830D01*
X205703546Y-79906557D01*
X205958443Y-80161454D01*
X206258170Y-80361725D01*
X206591209Y-80499675D01*
X206944761Y-80570000D01*
X207305239Y-80570000D01*
X207658791Y-80499675D01*
X207991830Y-80361725D01*
X208291557Y-80161454D01*
X208546454Y-79906557D01*
X208746725Y-79606830D01*
X208884675Y-79273791D01*
X208955000Y-78920239D01*
X208955000Y-78559761D01*
X220305000Y-78559761D01*
X220305000Y-78920239D01*
X220375325Y-79273791D01*
X220513275Y-79606830D01*
X220713546Y-79906557D01*
X220968443Y-80161454D01*
X221268170Y-80361725D01*
X221601209Y-80499675D01*
X221954761Y-80570000D01*
X222315239Y-80570000D01*
X222668791Y-80499675D01*
X223001830Y-80361725D01*
X223301557Y-80161454D01*
X223556454Y-79906557D01*
X223756725Y-79606830D01*
X223894675Y-79273791D01*
X223965000Y-78920239D01*
X223965000Y-78566261D01*
X226885000Y-78566261D01*
X226885000Y-78926739D01*
X226955325Y-79280291D01*
X227093275Y-79613330D01*
X227293546Y-79913057D01*
X227548443Y-80167954D01*
X227848170Y-80368225D01*
X228181209Y-80506175D01*
X228534761Y-80576500D01*
X228895239Y-80576500D01*
X229248791Y-80506175D01*
X229581830Y-80368225D01*
X229881557Y-80167954D01*
X230136454Y-79913057D01*
X230336725Y-79613330D01*
X230474675Y-79280291D01*
X230545000Y-78926739D01*
X230545000Y-78566261D01*
X241895000Y-78566261D01*
X241895000Y-78926739D01*
X241965325Y-79280291D01*
X242103275Y-79613330D01*
X242303546Y-79913057D01*
X242558443Y-80167954D01*
X242858170Y-80368225D01*
X243191209Y-80506175D01*
X243544761Y-80576500D01*
X243905239Y-80576500D01*
X244258791Y-80506175D01*
X244591830Y-80368225D01*
X244891557Y-80167954D01*
X245146454Y-79913057D01*
X245346725Y-79613330D01*
X245484675Y-79280291D01*
X245555000Y-78926739D01*
X245555000Y-78566261D01*
X245484675Y-78212709D01*
X245346725Y-77879670D01*
X245146454Y-77579943D01*
X244891557Y-77325046D01*
X244591830Y-77124775D01*
X244258791Y-76986825D01*
X243905239Y-76916500D01*
X243544761Y-76916500D01*
X243191209Y-76986825D01*
X242858170Y-77124775D01*
X242558443Y-77325046D01*
X242303546Y-77579943D01*
X242103275Y-77879670D01*
X241965325Y-78212709D01*
X241895000Y-78566261D01*
X230545000Y-78566261D01*
X230474675Y-78212709D01*
X230336725Y-77879670D01*
X230136454Y-77579943D01*
X229881557Y-77325046D01*
X229581830Y-77124775D01*
X229248791Y-76986825D01*
X228895239Y-76916500D01*
X228534761Y-76916500D01*
X228181209Y-76986825D01*
X227848170Y-77124775D01*
X227548443Y-77325046D01*
X227293546Y-77579943D01*
X227093275Y-77879670D01*
X226955325Y-78212709D01*
X226885000Y-78566261D01*
X223965000Y-78566261D01*
X223965000Y-78559761D01*
X223894675Y-78206209D01*
X223756725Y-77873170D01*
X223556454Y-77573443D01*
X223301557Y-77318546D01*
X223001830Y-77118275D01*
X222668791Y-76980325D01*
X222315239Y-76910000D01*
X221954761Y-76910000D01*
X221601209Y-76980325D01*
X221268170Y-77118275D01*
X220968443Y-77318546D01*
X220713546Y-77573443D01*
X220513275Y-77873170D01*
X220375325Y-78206209D01*
X220305000Y-78559761D01*
X208955000Y-78559761D01*
X208884675Y-78206209D01*
X208746725Y-77873170D01*
X208546454Y-77573443D01*
X208291557Y-77318546D01*
X207991830Y-77118275D01*
X207658791Y-76980325D01*
X207305239Y-76910000D01*
X206944761Y-76910000D01*
X206591209Y-76980325D01*
X206258170Y-77118275D01*
X205958443Y-77318546D01*
X205703546Y-77573443D01*
X205503275Y-77873170D01*
X205365325Y-78206209D01*
X205295000Y-78559761D01*
X202375000Y-78559761D01*
X202304675Y-78206209D01*
X202166725Y-77873170D01*
X201966454Y-77573443D01*
X201711557Y-77318546D01*
X201411830Y-77118275D01*
X201078791Y-76980325D01*
X200725239Y-76910000D01*
X200364761Y-76910000D01*
X200011209Y-76980325D01*
X199678170Y-77118275D01*
X199378443Y-77318546D01*
X199123546Y-77573443D01*
X198923275Y-77873170D01*
X198785325Y-78206209D01*
X198715000Y-78559761D01*
X187365000Y-78559761D01*
X187294675Y-78206209D01*
X187156725Y-77873170D01*
X186956454Y-77573443D01*
X186701557Y-77318546D01*
X186401830Y-77118275D01*
X186068791Y-76980325D01*
X185715239Y-76910000D01*
X185354761Y-76910000D01*
X185001209Y-76980325D01*
X184668170Y-77118275D01*
X184368443Y-77318546D01*
X184113546Y-77573443D01*
X183913275Y-77873170D01*
X183775325Y-78206209D01*
X183705000Y-78559761D01*
X180785000Y-78559761D01*
X180714675Y-78206209D01*
X180576725Y-77873170D01*
X180376454Y-77573443D01*
X180121557Y-77318546D01*
X179821830Y-77118275D01*
X179488791Y-76980325D01*
X179135239Y-76910000D01*
X178774761Y-76910000D01*
X178421209Y-76980325D01*
X178088170Y-77118275D01*
X177788443Y-77318546D01*
X177533546Y-77573443D01*
X177333275Y-77873170D01*
X177195325Y-78206209D01*
X177125000Y-78559761D01*
X165775000Y-78559761D01*
X165704675Y-78206209D01*
X165566725Y-77873170D01*
X165366454Y-77573443D01*
X165111557Y-77318546D01*
X164811830Y-77118275D01*
X164478791Y-76980325D01*
X164125239Y-76910000D01*
X163764761Y-76910000D01*
X163411209Y-76980325D01*
X163078170Y-77118275D01*
X162778443Y-77318546D01*
X162523546Y-77573443D01*
X162323275Y-77873170D01*
X162185325Y-78206209D01*
X162115000Y-78559761D01*
X150305000Y-78559761D01*
X150234675Y-78206209D01*
X150096725Y-77873170D01*
X149896454Y-77573443D01*
X149641557Y-77318546D01*
X149341830Y-77118275D01*
X149008791Y-76980325D01*
X148655239Y-76910000D01*
X148294761Y-76910000D01*
X147941209Y-76980325D01*
X147608170Y-77118275D01*
X147308443Y-77318546D01*
X147053546Y-77573443D01*
X146853275Y-77873170D01*
X146715325Y-78206209D01*
X146645000Y-78559761D01*
X135295000Y-78559761D01*
X135224675Y-78206209D01*
X135086725Y-77873170D01*
X134886454Y-77573443D01*
X134631557Y-77318546D01*
X134331830Y-77118275D01*
X133998791Y-76980325D01*
X133645239Y-76910000D01*
X133284761Y-76910000D01*
X132931209Y-76980325D01*
X132598170Y-77118275D01*
X132298443Y-77318546D01*
X132043546Y-77573443D01*
X131843275Y-77873170D01*
X131705325Y-78206209D01*
X131635000Y-78559761D01*
X127353000Y-78559761D01*
X127353000Y-76164105D01*
X127604302Y-76060012D01*
X127953983Y-75826363D01*
X128251363Y-75528983D01*
X128485012Y-75179302D01*
X128645953Y-74790756D01*
X128728000Y-74378279D01*
X128728000Y-73957721D01*
X128651682Y-73574042D01*
X136785000Y-73574042D01*
X136785000Y-73905958D01*
X136849754Y-74231496D01*
X136976772Y-74538147D01*
X137161175Y-74814125D01*
X137395875Y-75048825D01*
X137671853Y-75233228D01*
X137978504Y-75360246D01*
X138304042Y-75425000D01*
X138635958Y-75425000D01*
X138961496Y-75360246D01*
X139268147Y-75233228D01*
X139544125Y-75048825D01*
X139778825Y-74814125D01*
X139963228Y-74538147D01*
X140090246Y-74231496D01*
X140155000Y-73905958D01*
X140155000Y-73574042D01*
X141785000Y-73574042D01*
X141785000Y-73905958D01*
X141849754Y-74231496D01*
X141976772Y-74538147D01*
X142161175Y-74814125D01*
X142395875Y-75048825D01*
X142671853Y-75233228D01*
X142978504Y-75360246D01*
X143304042Y-75425000D01*
X143635958Y-75425000D01*
X143961496Y-75360246D01*
X144268147Y-75233228D01*
X144544125Y-75048825D01*
X144778825Y-74814125D01*
X144963228Y-74538147D01*
X145090246Y-74231496D01*
X145155000Y-73905958D01*
X145155000Y-73574042D01*
X167265000Y-73574042D01*
X167265000Y-73905958D01*
X167329754Y-74231496D01*
X167456772Y-74538147D01*
X167641175Y-74814125D01*
X167875875Y-75048825D01*
X168151853Y-75233228D01*
X168458504Y-75360246D01*
X168784042Y-75425000D01*
X169115958Y-75425000D01*
X169441496Y-75360246D01*
X169748147Y-75233228D01*
X170024125Y-75048825D01*
X170258825Y-74814125D01*
X170443228Y-74538147D01*
X170570246Y-74231496D01*
X170635000Y-73905958D01*
X170635000Y-73574042D01*
X172265000Y-73574042D01*
X172265000Y-73905958D01*
X172329754Y-74231496D01*
X172456772Y-74538147D01*
X172641175Y-74814125D01*
X172875875Y-75048825D01*
X173151853Y-75233228D01*
X173458504Y-75360246D01*
X173784042Y-75425000D01*
X174115958Y-75425000D01*
X174441496Y-75360246D01*
X174748147Y-75233228D01*
X175024125Y-75048825D01*
X175258825Y-74814125D01*
X175443228Y-74538147D01*
X175570246Y-74231496D01*
X175635000Y-73905958D01*
X175635000Y-73574042D01*
X188855000Y-73574042D01*
X188855000Y-73905958D01*
X188919754Y-74231496D01*
X189046772Y-74538147D01*
X189231175Y-74814125D01*
X189465875Y-75048825D01*
X189741853Y-75233228D01*
X190048504Y-75360246D01*
X190374042Y-75425000D01*
X190705958Y-75425000D01*
X191031496Y-75360246D01*
X191338147Y-75233228D01*
X191614125Y-75048825D01*
X191848825Y-74814125D01*
X192033228Y-74538147D01*
X192160246Y-74231496D01*
X192225000Y-73905958D01*
X192225000Y-73574042D01*
X193855000Y-73574042D01*
X193855000Y-73905958D01*
X193919754Y-74231496D01*
X194046772Y-74538147D01*
X194231175Y-74814125D01*
X194465875Y-75048825D01*
X194741853Y-75233228D01*
X195048504Y-75360246D01*
X195374042Y-75425000D01*
X195705958Y-75425000D01*
X196031496Y-75360246D01*
X196338147Y-75233228D01*
X196614125Y-75048825D01*
X196848825Y-74814125D01*
X197033228Y-74538147D01*
X197160246Y-74231496D01*
X197225000Y-73905958D01*
X197225000Y-73574042D01*
X210445000Y-73574042D01*
X210445000Y-73905958D01*
X210509754Y-74231496D01*
X210636772Y-74538147D01*
X210821175Y-74814125D01*
X211055875Y-75048825D01*
X211331853Y-75233228D01*
X211638504Y-75360246D01*
X211964042Y-75425000D01*
X212295958Y-75425000D01*
X212621496Y-75360246D01*
X212928147Y-75233228D01*
X213204125Y-75048825D01*
X213438825Y-74814125D01*
X213623228Y-74538147D01*
X213750246Y-74231496D01*
X213815000Y-73905958D01*
X213815000Y-73574042D01*
X215445000Y-73574042D01*
X215445000Y-73905958D01*
X215509754Y-74231496D01*
X215636772Y-74538147D01*
X215821175Y-74814125D01*
X216055875Y-75048825D01*
X216331853Y-75233228D01*
X216638504Y-75360246D01*
X216964042Y-75425000D01*
X217295958Y-75425000D01*
X217621496Y-75360246D01*
X217928147Y-75233228D01*
X218204125Y-75048825D01*
X218438825Y-74814125D01*
X218623228Y-74538147D01*
X218750246Y-74231496D01*
X218815000Y-73905958D01*
X218815000Y-73580542D01*
X232035000Y-73580542D01*
X232035000Y-73912458D01*
X232099754Y-74237996D01*
X232226772Y-74544647D01*
X232411175Y-74820625D01*
X232645875Y-75055325D01*
X232921853Y-75239728D01*
X233228504Y-75366746D01*
X233554042Y-75431500D01*
X233885958Y-75431500D01*
X234211496Y-75366746D01*
X234518147Y-75239728D01*
X234794125Y-75055325D01*
X235028825Y-74820625D01*
X235213228Y-74544647D01*
X235340246Y-74237996D01*
X235405000Y-73912458D01*
X235405000Y-73580542D01*
X237035000Y-73580542D01*
X237035000Y-73912458D01*
X237099754Y-74237996D01*
X237226772Y-74544647D01*
X237411175Y-74820625D01*
X237645875Y-75055325D01*
X237921853Y-75239728D01*
X238228504Y-75366746D01*
X238554042Y-75431500D01*
X238885958Y-75431500D01*
X239211496Y-75366746D01*
X239518147Y-75239728D01*
X239794125Y-75055325D01*
X240028825Y-74820625D01*
X240213228Y-74544647D01*
X240340246Y-74237996D01*
X240405000Y-73912458D01*
X240405000Y-73580542D01*
X240340246Y-73255004D01*
X240213228Y-72948353D01*
X240028825Y-72672375D01*
X239794125Y-72437675D01*
X239518147Y-72253272D01*
X239211496Y-72126254D01*
X238885958Y-72061500D01*
X238554042Y-72061500D01*
X238228504Y-72126254D01*
X237921853Y-72253272D01*
X237645875Y-72437675D01*
X237411175Y-72672375D01*
X237226772Y-72948353D01*
X237099754Y-73255004D01*
X237035000Y-73580542D01*
X235405000Y-73580542D01*
X235340246Y-73255004D01*
X235213228Y-72948353D01*
X235028825Y-72672375D01*
X234794125Y-72437675D01*
X234518147Y-72253272D01*
X234211496Y-72126254D01*
X233885958Y-72061500D01*
X233554042Y-72061500D01*
X233228504Y-72126254D01*
X232921853Y-72253272D01*
X232645875Y-72437675D01*
X232411175Y-72672375D01*
X232226772Y-72948353D01*
X232099754Y-73255004D01*
X232035000Y-73580542D01*
X218815000Y-73580542D01*
X218815000Y-73574042D01*
X218750246Y-73248504D01*
X218623228Y-72941853D01*
X218438825Y-72665875D01*
X218204125Y-72431175D01*
X217928147Y-72246772D01*
X217621496Y-72119754D01*
X217295958Y-72055000D01*
X216964042Y-72055000D01*
X216638504Y-72119754D01*
X216331853Y-72246772D01*
X216055875Y-72431175D01*
X215821175Y-72665875D01*
X215636772Y-72941853D01*
X215509754Y-73248504D01*
X215445000Y-73574042D01*
X213815000Y-73574042D01*
X213750246Y-73248504D01*
X213623228Y-72941853D01*
X213438825Y-72665875D01*
X213204125Y-72431175D01*
X212928147Y-72246772D01*
X212621496Y-72119754D01*
X212295958Y-72055000D01*
X211964042Y-72055000D01*
X211638504Y-72119754D01*
X211331853Y-72246772D01*
X211055875Y-72431175D01*
X210821175Y-72665875D01*
X210636772Y-72941853D01*
X210509754Y-73248504D01*
X210445000Y-73574042D01*
X197225000Y-73574042D01*
X197160246Y-73248504D01*
X197033228Y-72941853D01*
X196848825Y-72665875D01*
X196614125Y-72431175D01*
X196338147Y-72246772D01*
X196031496Y-72119754D01*
X195705958Y-72055000D01*
X195374042Y-72055000D01*
X195048504Y-72119754D01*
X194741853Y-72246772D01*
X194465875Y-72431175D01*
X194231175Y-72665875D01*
X194046772Y-72941853D01*
X193919754Y-73248504D01*
X193855000Y-73574042D01*
X192225000Y-73574042D01*
X192160246Y-73248504D01*
X192033228Y-72941853D01*
X191848825Y-72665875D01*
X191614125Y-72431175D01*
X191338147Y-72246772D01*
X191031496Y-72119754D01*
X190705958Y-72055000D01*
X190374042Y-72055000D01*
X190048504Y-72119754D01*
X189741853Y-72246772D01*
X189465875Y-72431175D01*
X189231175Y-72665875D01*
X189046772Y-72941853D01*
X188919754Y-73248504D01*
X188855000Y-73574042D01*
X175635000Y-73574042D01*
X175570246Y-73248504D01*
X175443228Y-72941853D01*
X175258825Y-72665875D01*
X175024125Y-72431175D01*
X174748147Y-72246772D01*
X174441496Y-72119754D01*
X174115958Y-72055000D01*
X173784042Y-72055000D01*
X173458504Y-72119754D01*
X173151853Y-72246772D01*
X172875875Y-72431175D01*
X172641175Y-72665875D01*
X172456772Y-72941853D01*
X172329754Y-73248504D01*
X172265000Y-73574042D01*
X170635000Y-73574042D01*
X170570246Y-73248504D01*
X170443228Y-72941853D01*
X170258825Y-72665875D01*
X170024125Y-72431175D01*
X169748147Y-72246772D01*
X169441496Y-72119754D01*
X169115958Y-72055000D01*
X168784042Y-72055000D01*
X168458504Y-72119754D01*
X168151853Y-72246772D01*
X167875875Y-72431175D01*
X167641175Y-72665875D01*
X167456772Y-72941853D01*
X167329754Y-73248504D01*
X167265000Y-73574042D01*
X145155000Y-73574042D01*
X145090246Y-73248504D01*
X144963228Y-72941853D01*
X144778825Y-72665875D01*
X144544125Y-72431175D01*
X144268147Y-72246772D01*
X143961496Y-72119754D01*
X143635958Y-72055000D01*
X143304042Y-72055000D01*
X142978504Y-72119754D01*
X142671853Y-72246772D01*
X142395875Y-72431175D01*
X142161175Y-72665875D01*
X141976772Y-72941853D01*
X141849754Y-73248504D01*
X141785000Y-73574042D01*
X140155000Y-73574042D01*
X140090246Y-73248504D01*
X139963228Y-72941853D01*
X139778825Y-72665875D01*
X139544125Y-72431175D01*
X139268147Y-72246772D01*
X138961496Y-72119754D01*
X138635958Y-72055000D01*
X138304042Y-72055000D01*
X137978504Y-72119754D01*
X137671853Y-72246772D01*
X137395875Y-72431175D01*
X137161175Y-72665875D01*
X136976772Y-72941853D01*
X136849754Y-73248504D01*
X136785000Y-73574042D01*
X128651682Y-73574042D01*
X128645953Y-73545244D01*
X128485012Y-73156698D01*
X128251363Y-72807017D01*
X127953983Y-72509637D01*
X127604302Y-72275988D01*
X127215756Y-72115047D01*
X126803279Y-72033000D01*
X126382721Y-72033000D01*
X125970244Y-72115047D01*
X125581698Y-72275988D01*
X125232017Y-72509637D01*
X124934637Y-72807017D01*
X124700988Y-73156698D01*
X124540047Y-73545244D01*
X124458000Y-73957721D01*
X108408000Y-73957721D01*
X108325953Y-73545244D01*
X108165012Y-73156698D01*
X107931363Y-72807017D01*
X107633983Y-72509637D01*
X107284302Y-72275988D01*
X106895756Y-72115047D01*
X106483279Y-72033000D01*
X106062721Y-72033000D01*
X105650244Y-72115047D01*
X105261698Y-72275988D01*
X104912017Y-72509637D01*
X104614637Y-72807017D01*
X104380988Y-73156698D01*
X104220047Y-73545244D01*
X104138000Y-73957721D01*
X88088000Y-73957721D01*
X88005953Y-73545244D01*
X87845012Y-73156698D01*
X87611363Y-72807017D01*
X87313983Y-72509637D01*
X86964302Y-72275988D01*
X86575756Y-72115047D01*
X86163279Y-72033000D01*
X85742721Y-72033000D01*
X85330244Y-72115047D01*
X84941698Y-72275988D01*
X84592017Y-72509637D01*
X84294637Y-72807017D01*
X84060988Y-73156698D01*
X83900047Y-73545244D01*
X83818000Y-73957721D01*
X60350000Y-73957721D01*
X60350000Y-71780000D01*
X254610001Y-71780000D01*
X254610000Y-106020000D01*
G37*
%TD.AperFunction*%
%TD*%
M02*
