%TF.GenerationSoftware,KiCad,Pcbnew,5.1.10*%
%TF.CreationDate,2021-09-20T11:14:50+10:00*%
%TF.ProjectId,MCB1,4d434231-2e6b-4696-9361-645f70636258,rev?*%
%TF.SameCoordinates,Original*%
%TF.FileFunction,Soldermask,Bot*%
%TF.FilePolarity,Negative*%
%FSLAX46Y46*%
G04 Gerber Fmt 4.6, Leading zero omitted, Abs format (unit mm)*
G04 Created by KiCad (PCBNEW 5.1.10) date 2021-09-20 11:14:50*
%MOMM*%
%LPD*%
G01*
G04 APERTURE LIST*
%ADD10C,1.449000*%
%ADD11C,1.600000*%
%ADD12O,1.400000X1.400000*%
%ADD13C,1.400000*%
%ADD14C,2.390000*%
%ADD15C,2.100000*%
%ADD16R,2.100000X2.100000*%
%ADD17R,1.600000X1.600000*%
%ADD18O,1.600000X1.600000*%
%ADD19R,1.700000X1.700000*%
%ADD20O,1.700000X1.700000*%
%ADD21C,0.800000*%
%ADD22C,6.400000*%
%ADD23C,3.000000*%
G04 APERTURE END LIST*
D10*
%TO.C,J1*%
X134189500Y-78740000D02*
G75*
G03*
X134189500Y-78740000I-724500J0D01*
G01*
X149199500Y-78740000D02*
G75*
G03*
X149199500Y-78740000I-724500J0D01*
G01*
%TO.C,J2*%
X164669500Y-78740000D02*
G75*
G03*
X164669500Y-78740000I-724500J0D01*
G01*
X179679500Y-78740000D02*
G75*
G03*
X179679500Y-78740000I-724500J0D01*
G01*
%TO.C,J3*%
X244449500Y-78746500D02*
G75*
G03*
X244449500Y-78746500I-724500J0D01*
G01*
X229439500Y-78746500D02*
G75*
G03*
X229439500Y-78746500I-724500J0D01*
G01*
%TO.C,J4*%
X201269500Y-78740000D02*
G75*
G03*
X201269500Y-78740000I-724500J0D01*
G01*
X186259500Y-78740000D02*
G75*
G03*
X186259500Y-78740000I-724500J0D01*
G01*
%TO.C,J5*%
X207849500Y-78740000D02*
G75*
G03*
X207849500Y-78740000I-724500J0D01*
G01*
X222859500Y-78740000D02*
G75*
G03*
X222859500Y-78740000I-724500J0D01*
G01*
%TD*%
D11*
%TO.C,C1*%
X171386500Y-95647500D03*
X171386500Y-100647500D03*
%TD*%
%TO.C,C2*%
X239395000Y-99060000D03*
X239395000Y-94060000D03*
%TD*%
D12*
%TO.C,R1*%
X166687500Y-89027000D03*
D13*
X164147500Y-89027000D03*
%TD*%
%TO.C,R2*%
X179832000Y-89090500D03*
D12*
X177292000Y-89090500D03*
%TD*%
D13*
%TO.C,R3*%
X136017000Y-91440000D03*
D12*
X136017000Y-88900000D03*
%TD*%
%TO.C,R4*%
X140589000Y-88900000D03*
D13*
X140589000Y-91440000D03*
%TD*%
%TO.C,R5*%
X231140000Y-88836500D03*
D12*
X228600000Y-88836500D03*
%TD*%
D13*
%TO.C,R6*%
X145161000Y-91440000D03*
D12*
X145161000Y-88900000D03*
%TD*%
D13*
%TO.C,R7*%
X185420000Y-89281000D03*
D12*
X187960000Y-89281000D03*
%TD*%
%TO.C,R8*%
X198755000Y-89154000D03*
D13*
X201295000Y-89154000D03*
%TD*%
D12*
%TO.C,R9*%
X133731000Y-91567000D03*
D13*
X133731000Y-89027000D03*
%TD*%
%TO.C,R10*%
X138303000Y-89027000D03*
D12*
X138303000Y-91567000D03*
%TD*%
%TO.C,R11*%
X142875000Y-91567000D03*
D13*
X142875000Y-89027000D03*
%TD*%
%TO.C,R12*%
X206692500Y-89090500D03*
D12*
X209232500Y-89090500D03*
%TD*%
%TO.C,R13*%
X219773500Y-89344500D03*
D13*
X222313500Y-89344500D03*
%TD*%
D12*
%TO.C,R15*%
X228219000Y-96520000D03*
D13*
X228219000Y-99060000D03*
%TD*%
D14*
%TO.C,J1*%
X148475000Y-78740000D03*
X133465000Y-78740000D03*
D15*
X143470000Y-73740000D03*
X138470000Y-73740000D03*
X140970000Y-83750000D03*
X148475000Y-83750000D03*
D16*
X133465000Y-83750000D03*
D15*
X145975000Y-86240000D03*
X135965000Y-86240000D03*
%TD*%
D14*
%TO.C,J2*%
X178955000Y-78740000D03*
X163945000Y-78740000D03*
D15*
X173950000Y-73740000D03*
X168950000Y-73740000D03*
X171450000Y-83750000D03*
X178955000Y-83750000D03*
D16*
X163945000Y-83750000D03*
D15*
X176455000Y-86240000D03*
X166445000Y-86240000D03*
%TD*%
%TO.C,J3*%
X231215000Y-86246500D03*
X241225000Y-86246500D03*
D16*
X228715000Y-83756500D03*
D15*
X243725000Y-83756500D03*
X236220000Y-83756500D03*
X233720000Y-73746500D03*
X238720000Y-73746500D03*
D14*
X228715000Y-78746500D03*
X243725000Y-78746500D03*
%TD*%
D15*
%TO.C,J4*%
X188035000Y-86240000D03*
X198045000Y-86240000D03*
D16*
X185535000Y-83750000D03*
D15*
X200545000Y-83750000D03*
X193040000Y-83750000D03*
X190540000Y-73740000D03*
X195540000Y-73740000D03*
D14*
X185535000Y-78740000D03*
X200545000Y-78740000D03*
%TD*%
%TO.C,J5*%
X222135000Y-78740000D03*
X207125000Y-78740000D03*
D15*
X217130000Y-73740000D03*
X212130000Y-73740000D03*
X214630000Y-83750000D03*
X222135000Y-83750000D03*
D16*
X207125000Y-83750000D03*
D15*
X219635000Y-86240000D03*
X209625000Y-86240000D03*
%TD*%
D17*
%TO.C,U1*%
X167957500Y-93027500D03*
D18*
X152717500Y-100647500D03*
X165417500Y-93027500D03*
X155257500Y-100647500D03*
X162877500Y-93027500D03*
X157797500Y-100647500D03*
X160337500Y-93027500D03*
X160337500Y-100647500D03*
X157797500Y-93027500D03*
X162877500Y-100647500D03*
X155257500Y-93027500D03*
X165417500Y-100647500D03*
X152717500Y-93027500D03*
X167957500Y-100647500D03*
%TD*%
D19*
%TO.C,J10*%
X146050000Y-100457000D03*
D20*
X146050000Y-102997000D03*
X143510000Y-100457000D03*
X143510000Y-102997000D03*
X140970000Y-100457000D03*
X140970000Y-102997000D03*
X138430000Y-100457000D03*
X138430000Y-102997000D03*
X135890000Y-100457000D03*
X135890000Y-102997000D03*
X133350000Y-100457000D03*
X133350000Y-102997000D03*
%TD*%
D21*
%TO.C,H1*%
X66467056Y-74502944D03*
X64770000Y-73800000D03*
X63072944Y-74502944D03*
X62370000Y-76200000D03*
X63072944Y-77897056D03*
X64770000Y-78600000D03*
X66467056Y-77897056D03*
X67170000Y-76200000D03*
D22*
X64770000Y-76200000D03*
%TD*%
%TO.C,H2*%
X64770000Y-101600000D03*
D21*
X67170000Y-101600000D03*
X66467056Y-103297056D03*
X64770000Y-104000000D03*
X63072944Y-103297056D03*
X62370000Y-101600000D03*
X63072944Y-99902944D03*
X64770000Y-99200000D03*
X66467056Y-99902944D03*
%TD*%
%TO.C,H3*%
X157907056Y-74502944D03*
X156210000Y-73800000D03*
X154512944Y-74502944D03*
X153810000Y-76200000D03*
X154512944Y-77897056D03*
X156210000Y-78600000D03*
X157907056Y-77897056D03*
X158610000Y-76200000D03*
D22*
X156210000Y-76200000D03*
%TD*%
%TO.C,H4*%
X184150000Y-101600000D03*
D21*
X186550000Y-101600000D03*
X185847056Y-103297056D03*
X184150000Y-104000000D03*
X182452944Y-103297056D03*
X181750000Y-101600000D03*
X182452944Y-99902944D03*
X184150000Y-99200000D03*
X185847056Y-99902944D03*
%TD*%
%TO.C,H5*%
X251887056Y-74502944D03*
X250190000Y-73800000D03*
X248492944Y-74502944D03*
X247790000Y-76200000D03*
X248492944Y-77897056D03*
X250190000Y-78600000D03*
X251887056Y-77897056D03*
X252590000Y-76200000D03*
D22*
X250190000Y-76200000D03*
%TD*%
%TO.C,H6*%
X250190000Y-101600000D03*
D21*
X252590000Y-101600000D03*
X251887056Y-103297056D03*
X250190000Y-104000000D03*
X248492944Y-103297056D03*
X247790000Y-101600000D03*
X248492944Y-99902944D03*
X250190000Y-99200000D03*
X251887056Y-99902944D03*
%TD*%
D23*
%TO.C,J6*%
X110363000Y-74168000D03*
X110363000Y-86868000D03*
X126593000Y-74168000D03*
X126593000Y-86868000D03*
%TD*%
%TO.C,J7*%
X106273000Y-86868000D03*
X106273000Y-74168000D03*
X90043000Y-86868000D03*
X90043000Y-74168000D03*
%TD*%
%TO.C,J8*%
X69723000Y-74168000D03*
X69723000Y-86868000D03*
X85953000Y-74168000D03*
X85953000Y-86868000D03*
%TD*%
D17*
%TO.C,U3*%
X236093000Y-91440000D03*
D18*
X231013000Y-99060000D03*
X233553000Y-91440000D03*
X233553000Y-99060000D03*
X231013000Y-91440000D03*
X236093000Y-99060000D03*
%TD*%
D17*
%TO.C,D1*%
X237490000Y-88836500D03*
D18*
X233680000Y-88836500D03*
%TD*%
M02*
