M48
; DRILL file {KiCad 5.1.10} date Mon Sep 20 11:14:54 2021
; FORMAT={-:-/ absolute / inch / decimal}
; #@! TF.CreationDate,2021-09-20T11:14:54+10:00
; #@! TF.GenerationSoftware,Kicad,Pcbnew,5.1.10
FMAT,2
INCH
T1C0.0157
T2C0.0197
T3C0.0276
T4C0.0315
T5C0.0394
T6C0.0551
T7C0.1260
T8C0.0941
%
G90
G05
T1
X3.2Y-3.9
X3.3Y-3.9
X3.4Y-3.9
X3.5Y-3.9
X4.1Y-3.8
X4.1Y-3.9
X4.1Y-4.1
X4.2Y-3.8
X4.2Y-3.9
X4.2Y-4.1
X4.3Y-3.8
X4.3Y-3.9
X4.3Y-4.1
X4.7Y-3.6
X4.9Y-3.6
X4.9Y-4.15
X4.95Y-4.15
X5.0Y-3.75
X5.0Y-3.95
X5.0Y-4.15
X5.05Y-4.0
X5.1Y-3.6
X5.1Y-3.75
X5.1Y-4.05
X5.15Y-3.8
X5.15Y-4.1
X5.2Y-3.85
X5.35Y-4.15
X5.45Y-3.85
X5.5Y-3.85
X5.5Y-4.15
X5.55Y-3.85
X5.87Y-3.618
X5.896Y-3.9
X6.95Y-3.75
X7.0Y-3.7
X7.0Y-3.85
X7.05Y-3.65
X7.05Y-3.8
X7.1Y-3.75
X7.15Y-3.7
X7.2Y-3.65
X7.2Y-3.8
X7.25Y-3.75
X7.3Y-3.7
X7.35Y-3.65
X7.72Y-3.49
X7.93Y-3.4
X8.0Y-3.65
X8.05Y-3.65
X8.1Y-3.65
X8.11Y-3.4
X8.15Y-3.65
X8.2Y-3.65
X8.25Y-3.65
X8.5Y-3.65
X8.55Y-3.65
X8.6Y-3.65
X8.65Y-3.65
X8.7Y-3.65
T2
X2.4555Y-3.0
X2.4555Y-4.0
X2.4832Y-2.9332
X2.4832Y-3.0668
X2.4832Y-3.9332
X2.4832Y-4.0668
X2.55Y-2.9055
X2.55Y-3.0945
X2.55Y-3.9055
X2.55Y-4.0945
X2.6168Y-2.9332
X2.6168Y-3.0668
X2.6168Y-3.9332
X2.6168Y-4.0668
X2.6445Y-3.0
X2.6445Y-4.0
X6.0555Y-3.0
X6.0832Y-2.9332
X6.0832Y-3.0668
X6.15Y-2.9055
X6.15Y-3.0945
X6.2168Y-2.9332
X6.2168Y-3.0668
X6.2445Y-3.0
X7.1555Y-4.0
X7.1832Y-3.9332
X7.1832Y-4.0668
X7.25Y-3.9055
X7.25Y-4.0945
X7.3168Y-3.9332
X7.3168Y-4.0668
X7.3445Y-4.0
X9.7555Y-3.0
X9.7555Y-4.0
X9.7832Y-2.9332
X9.7832Y-3.0668
X9.7832Y-3.9332
X9.7832Y-4.0668
X9.85Y-2.9055
X9.85Y-3.0945
X9.85Y-3.9055
X9.85Y-4.0945
X9.9168Y-2.9332
X9.9168Y-3.0668
X9.9168Y-3.9332
X9.9168Y-4.0668
X9.9445Y-3.0
X9.9445Y-4.0
T3
X5.265Y-3.505
X5.265Y-3.605
X5.355Y-3.5
X5.355Y-3.6
X5.445Y-3.505
X5.445Y-3.605
X5.535Y-3.5
X5.535Y-3.6
X5.625Y-3.505
X5.625Y-3.605
X5.715Y-3.5
X5.715Y-3.6
X6.4625Y-3.505
X6.5625Y-3.505
X6.98Y-3.5075
X7.08Y-3.5075
X7.3Y-3.515
X7.4Y-3.515
X7.825Y-3.51
X7.925Y-3.51
X8.1375Y-3.5075
X8.2375Y-3.5075
X8.6525Y-3.5175
X8.7525Y-3.5175
X8.985Y-3.8
X8.985Y-3.9
X9.0Y-3.4975
X9.1Y-3.4975
T4
X6.0125Y-3.6625
X6.0125Y-3.9625
X6.1125Y-3.6625
X6.1125Y-3.9625
X6.2125Y-3.6625
X6.2125Y-3.9625
X6.3125Y-3.6625
X6.3125Y-3.9625
X6.4125Y-3.6625
X6.4125Y-3.9625
X6.5125Y-3.6625
X6.5125Y-3.9625
X6.6125Y-3.6625
X6.6125Y-3.9625
X6.7475Y-3.7656
X6.7475Y-3.9625
X9.095Y-3.6
X9.095Y-3.9
X9.195Y-3.6
X9.195Y-3.9
X9.2Y-3.4975
X9.295Y-3.6
X9.295Y-3.9
X9.35Y-3.4975
X9.425Y-3.7031
X9.425Y-3.9
T5
X5.25Y-3.955
X5.25Y-4.055
X5.35Y-3.955
X5.35Y-4.055
X5.45Y-3.955
X5.45Y-4.055
X5.55Y-3.955
X5.55Y-4.055
X5.65Y-3.955
X5.65Y-4.055
X5.75Y-3.955
X5.75Y-4.055
T6
X2.745Y-2.92
X2.745Y-3.42
X3.384Y-2.92
X3.384Y-3.42
X3.545Y-2.92
X3.545Y-3.42
X4.184Y-2.92
X4.184Y-3.42
X4.345Y-2.92
X4.345Y-3.42
X4.984Y-2.92
X4.984Y-3.42
X5.2545Y-3.2972
X5.353Y-3.3953
X5.4516Y-2.9031
X5.55Y-3.2972
X5.6484Y-2.9031
X5.747Y-3.3953
X5.8455Y-3.2972
X6.4545Y-3.2972
X6.553Y-3.3953
X6.6516Y-2.9031
X6.75Y-3.2972
X6.8484Y-2.9031
X6.947Y-3.3953
X7.0455Y-3.2972
X7.3045Y-3.2972
X7.403Y-3.3953
X7.5016Y-2.9031
X7.6Y-3.2972
X7.6984Y-2.9031
X7.797Y-3.3953
X7.8955Y-3.2972
X8.1545Y-3.2972
X8.253Y-3.3953
X8.3516Y-2.9031
X8.45Y-3.2972
X8.5484Y-2.9031
X8.647Y-3.3953
X8.7455Y-3.2972
X9.0045Y-3.2975
X9.103Y-3.3955
X9.2016Y-2.9034
X9.3Y-3.2975
X9.3984Y-2.9034
X9.497Y-3.3955
X9.5955Y-3.2975
T7
X2.55Y-3.0
X2.55Y-4.0
X6.15Y-3.0
X7.25Y-4.0
X9.85Y-3.0
X9.85Y-4.0
T8
X5.2545Y-3.1
X5.8455Y-3.1
X6.4545Y-3.1
X7.0455Y-3.1
X7.3045Y-3.1
X7.8955Y-3.1
X8.1545Y-3.1
X8.7455Y-3.1
X9.0045Y-3.1003
X9.5955Y-3.1003
T0
M30
