%TF.GenerationSoftware,KiCad,Pcbnew,5.1.10*%
%TF.CreationDate,2021-09-20T11:14:50+10:00*%
%TF.ProjectId,MCB1,4d434231-2e6b-4696-9361-645f70636258,rev?*%
%TF.SameCoordinates,Original*%
%TF.FileFunction,Legend,Top*%
%TF.FilePolarity,Positive*%
%FSLAX46Y46*%
G04 Gerber Fmt 4.6, Leading zero omitted, Abs format (unit mm)*
G04 Created by KiCad (PCBNEW 5.1.10) date 2021-09-20 11:14:50*
%MOMM*%
%LPD*%
G01*
G04 APERTURE LIST*
%ADD10C,0.120000*%
%ADD11C,0.127000*%
%ADD12C,0.200000*%
%ADD13C,0.150000*%
%ADD14C,0.015000*%
G04 APERTURE END LIST*
D10*
%TO.C,C1*%
X170016500Y-100617500D02*
X170016500Y-95677500D01*
X172756500Y-100617500D02*
X172756500Y-95677500D01*
X170016500Y-100617500D02*
X170331500Y-100617500D01*
X172441500Y-100617500D02*
X172756500Y-100617500D01*
X170016500Y-95677500D02*
X170331500Y-95677500D01*
X172441500Y-95677500D02*
X172756500Y-95677500D01*
%TO.C,C2*%
X240450000Y-94090000D02*
X240765000Y-94090000D01*
X238025000Y-94090000D02*
X238340000Y-94090000D01*
X240450000Y-99030000D02*
X240765000Y-99030000D01*
X238025000Y-99030000D02*
X238340000Y-99030000D01*
X240765000Y-99030000D02*
X240765000Y-94090000D01*
X238025000Y-99030000D02*
X238025000Y-94090000D01*
%TO.C,R1*%
X165067500Y-89027000D02*
G75*
G03*
X165067500Y-89027000I-920000J0D01*
G01*
X165067500Y-89027000D02*
X165687500Y-89027000D01*
%TO.C,R2*%
X178912000Y-89090500D02*
X178292000Y-89090500D01*
X180752000Y-89090500D02*
G75*
G03*
X180752000Y-89090500I-920000J0D01*
G01*
%TO.C,R3*%
X136017000Y-90520000D02*
X136017000Y-89900000D01*
X136937000Y-91440000D02*
G75*
G03*
X136937000Y-91440000I-920000J0D01*
G01*
%TO.C,R4*%
X141509000Y-91440000D02*
G75*
G03*
X141509000Y-91440000I-920000J0D01*
G01*
X140589000Y-90520000D02*
X140589000Y-89900000D01*
%TO.C,R5*%
X230220000Y-88836500D02*
X229600000Y-88836500D01*
X232060000Y-88836500D02*
G75*
G03*
X232060000Y-88836500I-920000J0D01*
G01*
%TO.C,R6*%
X145161000Y-90520000D02*
X145161000Y-89900000D01*
X146081000Y-91440000D02*
G75*
G03*
X146081000Y-91440000I-920000J0D01*
G01*
%TO.C,R7*%
X186340000Y-89281000D02*
X186960000Y-89281000D01*
X186340000Y-89281000D02*
G75*
G03*
X186340000Y-89281000I-920000J0D01*
G01*
%TO.C,R8*%
X202215000Y-89154000D02*
G75*
G03*
X202215000Y-89154000I-920000J0D01*
G01*
X200375000Y-89154000D02*
X199755000Y-89154000D01*
%TO.C,R9*%
X134651000Y-89027000D02*
G75*
G03*
X134651000Y-89027000I-920000J0D01*
G01*
X133731000Y-89947000D02*
X133731000Y-90567000D01*
%TO.C,R10*%
X138303000Y-89947000D02*
X138303000Y-90567000D01*
X139223000Y-89027000D02*
G75*
G03*
X139223000Y-89027000I-920000J0D01*
G01*
%TO.C,R11*%
X143795000Y-89027000D02*
G75*
G03*
X143795000Y-89027000I-920000J0D01*
G01*
X142875000Y-89947000D02*
X142875000Y-90567000D01*
%TO.C,R12*%
X207612500Y-89090500D02*
X208232500Y-89090500D01*
X207612500Y-89090500D02*
G75*
G03*
X207612500Y-89090500I-920000J0D01*
G01*
%TO.C,R13*%
X223233500Y-89344500D02*
G75*
G03*
X223233500Y-89344500I-920000J0D01*
G01*
X221393500Y-89344500D02*
X220773500Y-89344500D01*
%TO.C,R15*%
X229139000Y-99060000D02*
G75*
G03*
X229139000Y-99060000I-920000J0D01*
G01*
X228219000Y-98140000D02*
X228219000Y-97520000D01*
D11*
%TO.C,J1*%
X151170000Y-71040000D02*
X151170000Y-86740000D01*
X151170000Y-86740000D02*
X147420000Y-86740000D01*
X144470000Y-86740000D02*
X137470000Y-86740000D01*
X134520000Y-86740000D02*
X130770000Y-86740000D01*
X130770000Y-86740000D02*
X130770000Y-71040000D01*
X130770000Y-71040000D02*
X151170000Y-71040000D01*
D12*
X130470000Y-83940000D02*
G75*
G03*
X130470000Y-83940000I-100000J0D01*
G01*
D11*
%TO.C,J2*%
X181650000Y-71040000D02*
X181650000Y-86740000D01*
X181650000Y-86740000D02*
X177900000Y-86740000D01*
X174950000Y-86740000D02*
X167950000Y-86740000D01*
X165000000Y-86740000D02*
X161250000Y-86740000D01*
X161250000Y-86740000D02*
X161250000Y-71040000D01*
X161250000Y-71040000D02*
X181650000Y-71040000D01*
D12*
X160950000Y-83940000D02*
G75*
G03*
X160950000Y-83940000I-100000J0D01*
G01*
%TO.C,J3*%
X225720000Y-83946500D02*
G75*
G03*
X225720000Y-83946500I-100000J0D01*
G01*
D11*
X226020000Y-71046500D02*
X246420000Y-71046500D01*
X226020000Y-86746500D02*
X226020000Y-71046500D01*
X229770000Y-86746500D02*
X226020000Y-86746500D01*
X239720000Y-86746500D02*
X232720000Y-86746500D01*
X246420000Y-86746500D02*
X242670000Y-86746500D01*
X246420000Y-71046500D02*
X246420000Y-86746500D01*
D12*
%TO.C,J4*%
X182540000Y-83940000D02*
G75*
G03*
X182540000Y-83940000I-100000J0D01*
G01*
D11*
X182840000Y-71040000D02*
X203240000Y-71040000D01*
X182840000Y-86740000D02*
X182840000Y-71040000D01*
X186590000Y-86740000D02*
X182840000Y-86740000D01*
X196540000Y-86740000D02*
X189540000Y-86740000D01*
X203240000Y-86740000D02*
X199490000Y-86740000D01*
X203240000Y-71040000D02*
X203240000Y-86740000D01*
%TO.C,J5*%
X224830000Y-71040000D02*
X224830000Y-86740000D01*
X224830000Y-86740000D02*
X221080000Y-86740000D01*
X218130000Y-86740000D02*
X211130000Y-86740000D01*
X208180000Y-86740000D02*
X204430000Y-86740000D01*
X204430000Y-86740000D02*
X204430000Y-71040000D01*
X204430000Y-71040000D02*
X224830000Y-71040000D01*
D12*
X204130000Y-83940000D02*
G75*
G03*
X204130000Y-83940000I-100000J0D01*
G01*
D10*
%TO.C,U1*%
X169287500Y-95837500D02*
X169287500Y-94187500D01*
X169287500Y-94187500D02*
X151387500Y-94187500D01*
X151387500Y-94187500D02*
X151387500Y-99487500D01*
X151387500Y-99487500D02*
X169287500Y-99487500D01*
X169287500Y-99487500D02*
X169287500Y-97837500D01*
X169287500Y-97837500D02*
G75*
G02*
X169287500Y-95837500I0J1000000D01*
G01*
%TO.C,J10*%
X132020000Y-99127000D02*
X132020000Y-104327000D01*
X144780000Y-99127000D02*
X132020000Y-99127000D01*
X147380000Y-104327000D02*
X132020000Y-104327000D01*
X144780000Y-99127000D02*
X144780000Y-101727000D01*
X144780000Y-101727000D02*
X147380000Y-101727000D01*
X147380000Y-101727000D02*
X147380000Y-104327000D01*
X146050000Y-99127000D02*
X147380000Y-99127000D01*
X147380000Y-99127000D02*
X147380000Y-100457000D01*
%TO.C,J6*%
X112858000Y-71148000D02*
X109258000Y-71148000D01*
X114008000Y-92388000D02*
X109258000Y-92388000D01*
X114008000Y-95388000D02*
X114008000Y-92388000D01*
X122908000Y-95388000D02*
X114008000Y-95388000D01*
X127698000Y-92388000D02*
X122948000Y-92388000D01*
X109258000Y-92388000D02*
X109258000Y-88268000D01*
X109258000Y-85468000D02*
X109258000Y-75568000D01*
X127698000Y-75568000D02*
X127698000Y-85468000D01*
X127698000Y-88268000D02*
X127698000Y-92388000D01*
X127698000Y-71148000D02*
X127698000Y-72768000D01*
X109258000Y-71148000D02*
X109258000Y-72768000D01*
X127698000Y-71148000D02*
X124098000Y-71148000D01*
X122948000Y-95388000D02*
X122948000Y-92388000D01*
X124098000Y-71148000D02*
X124098000Y-62298000D01*
X124098000Y-62298000D02*
X112858000Y-62298000D01*
X112858000Y-71148000D02*
X112858000Y-62298000D01*
%TO.C,J7*%
X92538000Y-71148000D02*
X92538000Y-62298000D01*
X103778000Y-62298000D02*
X92538000Y-62298000D01*
X103778000Y-71148000D02*
X103778000Y-62298000D01*
X102628000Y-95388000D02*
X102628000Y-92388000D01*
X107378000Y-71148000D02*
X103778000Y-71148000D01*
X88938000Y-71148000D02*
X88938000Y-72768000D01*
X107378000Y-71148000D02*
X107378000Y-72768000D01*
X107378000Y-88268000D02*
X107378000Y-92388000D01*
X107378000Y-75568000D02*
X107378000Y-85468000D01*
X88938000Y-85468000D02*
X88938000Y-75568000D01*
X88938000Y-92388000D02*
X88938000Y-88268000D01*
X107378000Y-92388000D02*
X102628000Y-92388000D01*
X102588000Y-95388000D02*
X93688000Y-95388000D01*
X93688000Y-95388000D02*
X93688000Y-92388000D01*
X93688000Y-92388000D02*
X88938000Y-92388000D01*
X92538000Y-71148000D02*
X88938000Y-71148000D01*
%TO.C,J8*%
X72218000Y-71148000D02*
X68618000Y-71148000D01*
X73368000Y-92388000D02*
X68618000Y-92388000D01*
X73368000Y-95388000D02*
X73368000Y-92388000D01*
X82268000Y-95388000D02*
X73368000Y-95388000D01*
X87058000Y-92388000D02*
X82308000Y-92388000D01*
X68618000Y-92388000D02*
X68618000Y-88268000D01*
X68618000Y-85468000D02*
X68618000Y-75568000D01*
X87058000Y-75568000D02*
X87058000Y-85468000D01*
X87058000Y-88268000D02*
X87058000Y-92388000D01*
X87058000Y-71148000D02*
X87058000Y-72768000D01*
X68618000Y-71148000D02*
X68618000Y-72768000D01*
X87058000Y-71148000D02*
X83458000Y-71148000D01*
X82308000Y-95388000D02*
X82308000Y-92388000D01*
X83458000Y-71148000D02*
X83458000Y-62298000D01*
X83458000Y-62298000D02*
X72218000Y-62298000D01*
X72218000Y-71148000D02*
X72218000Y-62298000D01*
%TO.C,U3*%
X237423000Y-97900000D02*
X237423000Y-96250000D01*
X229683000Y-97900000D02*
X237423000Y-97900000D01*
X229683000Y-92600000D02*
X229683000Y-97900000D01*
X237423000Y-92600000D02*
X229683000Y-92600000D01*
X237423000Y-94250000D02*
X237423000Y-92600000D01*
X237423000Y-96250000D02*
G75*
G02*
X237423000Y-94250000I0J1000000D01*
G01*
%TO.C,D1*%
X236163629Y-88836500D02*
X234780000Y-88836500D01*
X238816371Y-88836500D02*
G75*
G03*
X238816371Y-88836500I-1326371J0D01*
G01*
%TO.C,C1*%
D13*
X171680142Y-93511666D02*
X171727761Y-93559285D01*
X171775380Y-93702142D01*
X171775380Y-93797380D01*
X171727761Y-93940238D01*
X171632523Y-94035476D01*
X171537285Y-94083095D01*
X171346809Y-94130714D01*
X171203952Y-94130714D01*
X171013476Y-94083095D01*
X170918238Y-94035476D01*
X170823000Y-93940238D01*
X170775380Y-93797380D01*
X170775380Y-93702142D01*
X170823000Y-93559285D01*
X170870619Y-93511666D01*
X171775380Y-92559285D02*
X171775380Y-93130714D01*
X171775380Y-92845000D02*
X170775380Y-92845000D01*
X170918238Y-92940238D01*
X171013476Y-93035476D01*
X171061095Y-93130714D01*
%TO.C,C2*%
X242165142Y-96813666D02*
X242212761Y-96861285D01*
X242260380Y-97004142D01*
X242260380Y-97099380D01*
X242212761Y-97242238D01*
X242117523Y-97337476D01*
X242022285Y-97385095D01*
X241831809Y-97432714D01*
X241688952Y-97432714D01*
X241498476Y-97385095D01*
X241403238Y-97337476D01*
X241308000Y-97242238D01*
X241260380Y-97099380D01*
X241260380Y-97004142D01*
X241308000Y-96861285D01*
X241355619Y-96813666D01*
X241355619Y-96432714D02*
X241308000Y-96385095D01*
X241260380Y-96289857D01*
X241260380Y-96051761D01*
X241308000Y-95956523D01*
X241355619Y-95908904D01*
X241450857Y-95861285D01*
X241546095Y-95861285D01*
X241688952Y-95908904D01*
X242260380Y-96480333D01*
X242260380Y-95861285D01*
%TO.C,R1*%
X165187333Y-91384380D02*
X164854000Y-90908190D01*
X164615904Y-91384380D02*
X164615904Y-90384380D01*
X164996857Y-90384380D01*
X165092095Y-90432000D01*
X165139714Y-90479619D01*
X165187333Y-90574857D01*
X165187333Y-90717714D01*
X165139714Y-90812952D01*
X165092095Y-90860571D01*
X164996857Y-90908190D01*
X164615904Y-90908190D01*
X166139714Y-91384380D02*
X165568285Y-91384380D01*
X165854000Y-91384380D02*
X165854000Y-90384380D01*
X165758761Y-90527238D01*
X165663523Y-90622476D01*
X165568285Y-90670095D01*
%TO.C,R2*%
X178395333Y-91462880D02*
X178062000Y-90986690D01*
X177823904Y-91462880D02*
X177823904Y-90462880D01*
X178204857Y-90462880D01*
X178300095Y-90510500D01*
X178347714Y-90558119D01*
X178395333Y-90653357D01*
X178395333Y-90796214D01*
X178347714Y-90891452D01*
X178300095Y-90939071D01*
X178204857Y-90986690D01*
X177823904Y-90986690D01*
X178776285Y-90558119D02*
X178823904Y-90510500D01*
X178919142Y-90462880D01*
X179157238Y-90462880D01*
X179252476Y-90510500D01*
X179300095Y-90558119D01*
X179347714Y-90653357D01*
X179347714Y-90748595D01*
X179300095Y-90891452D01*
X178728666Y-91462880D01*
X179347714Y-91462880D01*
%TO.C,R3*%
X135723333Y-93797380D02*
X135390000Y-93321190D01*
X135151904Y-93797380D02*
X135151904Y-92797380D01*
X135532857Y-92797380D01*
X135628095Y-92845000D01*
X135675714Y-92892619D01*
X135723333Y-92987857D01*
X135723333Y-93130714D01*
X135675714Y-93225952D01*
X135628095Y-93273571D01*
X135532857Y-93321190D01*
X135151904Y-93321190D01*
X136056666Y-92797380D02*
X136675714Y-92797380D01*
X136342380Y-93178333D01*
X136485238Y-93178333D01*
X136580476Y-93225952D01*
X136628095Y-93273571D01*
X136675714Y-93368809D01*
X136675714Y-93606904D01*
X136628095Y-93702142D01*
X136580476Y-93749761D01*
X136485238Y-93797380D01*
X136199523Y-93797380D01*
X136104285Y-93749761D01*
X136056666Y-93702142D01*
%TO.C,R4*%
X140549333Y-93797380D02*
X140216000Y-93321190D01*
X139977904Y-93797380D02*
X139977904Y-92797380D01*
X140358857Y-92797380D01*
X140454095Y-92845000D01*
X140501714Y-92892619D01*
X140549333Y-92987857D01*
X140549333Y-93130714D01*
X140501714Y-93225952D01*
X140454095Y-93273571D01*
X140358857Y-93321190D01*
X139977904Y-93321190D01*
X141406476Y-93130714D02*
X141406476Y-93797380D01*
X141168380Y-92749761D02*
X140930285Y-93464047D01*
X141549333Y-93464047D01*
%TO.C,R5*%
X230973333Y-91257380D02*
X230640000Y-90781190D01*
X230401904Y-91257380D02*
X230401904Y-90257380D01*
X230782857Y-90257380D01*
X230878095Y-90305000D01*
X230925714Y-90352619D01*
X230973333Y-90447857D01*
X230973333Y-90590714D01*
X230925714Y-90685952D01*
X230878095Y-90733571D01*
X230782857Y-90781190D01*
X230401904Y-90781190D01*
X231878095Y-90257380D02*
X231401904Y-90257380D01*
X231354285Y-90733571D01*
X231401904Y-90685952D01*
X231497142Y-90638333D01*
X231735238Y-90638333D01*
X231830476Y-90685952D01*
X231878095Y-90733571D01*
X231925714Y-90828809D01*
X231925714Y-91066904D01*
X231878095Y-91162142D01*
X231830476Y-91209761D01*
X231735238Y-91257380D01*
X231497142Y-91257380D01*
X231401904Y-91209761D01*
X231354285Y-91162142D01*
%TO.C,R6*%
X145502333Y-93797380D02*
X145169000Y-93321190D01*
X144930904Y-93797380D02*
X144930904Y-92797380D01*
X145311857Y-92797380D01*
X145407095Y-92845000D01*
X145454714Y-92892619D01*
X145502333Y-92987857D01*
X145502333Y-93130714D01*
X145454714Y-93225952D01*
X145407095Y-93273571D01*
X145311857Y-93321190D01*
X144930904Y-93321190D01*
X146359476Y-92797380D02*
X146169000Y-92797380D01*
X146073761Y-92845000D01*
X146026142Y-92892619D01*
X145930904Y-93035476D01*
X145883285Y-93225952D01*
X145883285Y-93606904D01*
X145930904Y-93702142D01*
X145978523Y-93749761D01*
X146073761Y-93797380D01*
X146264238Y-93797380D01*
X146359476Y-93749761D01*
X146407095Y-93702142D01*
X146454714Y-93606904D01*
X146454714Y-93368809D01*
X146407095Y-93273571D01*
X146359476Y-93225952D01*
X146264238Y-93178333D01*
X146073761Y-93178333D01*
X145978523Y-93225952D01*
X145930904Y-93273571D01*
X145883285Y-93368809D01*
%TO.C,R7*%
X186523333Y-87813380D02*
X186190000Y-87337190D01*
X185951904Y-87813380D02*
X185951904Y-86813380D01*
X186332857Y-86813380D01*
X186428095Y-86861000D01*
X186475714Y-86908619D01*
X186523333Y-87003857D01*
X186523333Y-87146714D01*
X186475714Y-87241952D01*
X186428095Y-87289571D01*
X186332857Y-87337190D01*
X185951904Y-87337190D01*
X186856666Y-86813380D02*
X187523333Y-86813380D01*
X187094761Y-87813380D01*
%TO.C,R8*%
X199858333Y-91526380D02*
X199525000Y-91050190D01*
X199286904Y-91526380D02*
X199286904Y-90526380D01*
X199667857Y-90526380D01*
X199763095Y-90574000D01*
X199810714Y-90621619D01*
X199858333Y-90716857D01*
X199858333Y-90859714D01*
X199810714Y-90954952D01*
X199763095Y-91002571D01*
X199667857Y-91050190D01*
X199286904Y-91050190D01*
X200429761Y-90954952D02*
X200334523Y-90907333D01*
X200286904Y-90859714D01*
X200239285Y-90764476D01*
X200239285Y-90716857D01*
X200286904Y-90621619D01*
X200334523Y-90574000D01*
X200429761Y-90526380D01*
X200620238Y-90526380D01*
X200715476Y-90574000D01*
X200763095Y-90621619D01*
X200810714Y-90716857D01*
X200810714Y-90764476D01*
X200763095Y-90859714D01*
X200715476Y-90907333D01*
X200620238Y-90954952D01*
X200429761Y-90954952D01*
X200334523Y-91002571D01*
X200286904Y-91050190D01*
X200239285Y-91145428D01*
X200239285Y-91335904D01*
X200286904Y-91431142D01*
X200334523Y-91478761D01*
X200429761Y-91526380D01*
X200620238Y-91526380D01*
X200715476Y-91478761D01*
X200763095Y-91431142D01*
X200810714Y-91335904D01*
X200810714Y-91145428D01*
X200763095Y-91050190D01*
X200715476Y-91002571D01*
X200620238Y-90954952D01*
%TO.C,R9*%
X133564333Y-93797380D02*
X133231000Y-93321190D01*
X132992904Y-93797380D02*
X132992904Y-92797380D01*
X133373857Y-92797380D01*
X133469095Y-92845000D01*
X133516714Y-92892619D01*
X133564333Y-92987857D01*
X133564333Y-93130714D01*
X133516714Y-93225952D01*
X133469095Y-93273571D01*
X133373857Y-93321190D01*
X132992904Y-93321190D01*
X134040523Y-93797380D02*
X134231000Y-93797380D01*
X134326238Y-93749761D01*
X134373857Y-93702142D01*
X134469095Y-93559285D01*
X134516714Y-93368809D01*
X134516714Y-92987857D01*
X134469095Y-92892619D01*
X134421476Y-92845000D01*
X134326238Y-92797380D01*
X134135761Y-92797380D01*
X134040523Y-92845000D01*
X133992904Y-92892619D01*
X133945285Y-92987857D01*
X133945285Y-93225952D01*
X133992904Y-93321190D01*
X134040523Y-93368809D01*
X134135761Y-93416428D01*
X134326238Y-93416428D01*
X134421476Y-93368809D01*
X134469095Y-93321190D01*
X134516714Y-93225952D01*
%TO.C,R10*%
X137660142Y-93797380D02*
X137326809Y-93321190D01*
X137088714Y-93797380D02*
X137088714Y-92797380D01*
X137469666Y-92797380D01*
X137564904Y-92845000D01*
X137612523Y-92892619D01*
X137660142Y-92987857D01*
X137660142Y-93130714D01*
X137612523Y-93225952D01*
X137564904Y-93273571D01*
X137469666Y-93321190D01*
X137088714Y-93321190D01*
X138612523Y-93797380D02*
X138041095Y-93797380D01*
X138326809Y-93797380D02*
X138326809Y-92797380D01*
X138231571Y-92940238D01*
X138136333Y-93035476D01*
X138041095Y-93083095D01*
X139231571Y-92797380D02*
X139326809Y-92797380D01*
X139422047Y-92845000D01*
X139469666Y-92892619D01*
X139517285Y-92987857D01*
X139564904Y-93178333D01*
X139564904Y-93416428D01*
X139517285Y-93606904D01*
X139469666Y-93702142D01*
X139422047Y-93749761D01*
X139326809Y-93797380D01*
X139231571Y-93797380D01*
X139136333Y-93749761D01*
X139088714Y-93702142D01*
X139041095Y-93606904D01*
X138993476Y-93416428D01*
X138993476Y-93178333D01*
X139041095Y-92987857D01*
X139088714Y-92892619D01*
X139136333Y-92845000D01*
X139231571Y-92797380D01*
%TO.C,R11*%
X142486142Y-93797380D02*
X142152809Y-93321190D01*
X141914714Y-93797380D02*
X141914714Y-92797380D01*
X142295666Y-92797380D01*
X142390904Y-92845000D01*
X142438523Y-92892619D01*
X142486142Y-92987857D01*
X142486142Y-93130714D01*
X142438523Y-93225952D01*
X142390904Y-93273571D01*
X142295666Y-93321190D01*
X141914714Y-93321190D01*
X143438523Y-93797380D02*
X142867095Y-93797380D01*
X143152809Y-93797380D02*
X143152809Y-92797380D01*
X143057571Y-92940238D01*
X142962333Y-93035476D01*
X142867095Y-93083095D01*
X144390904Y-93797380D02*
X143819476Y-93797380D01*
X144105190Y-93797380D02*
X144105190Y-92797380D01*
X144009952Y-92940238D01*
X143914714Y-93035476D01*
X143819476Y-93083095D01*
%TO.C,R12*%
X207256142Y-91638380D02*
X206922809Y-91162190D01*
X206684714Y-91638380D02*
X206684714Y-90638380D01*
X207065666Y-90638380D01*
X207160904Y-90686000D01*
X207208523Y-90733619D01*
X207256142Y-90828857D01*
X207256142Y-90971714D01*
X207208523Y-91066952D01*
X207160904Y-91114571D01*
X207065666Y-91162190D01*
X206684714Y-91162190D01*
X208208523Y-91638380D02*
X207637095Y-91638380D01*
X207922809Y-91638380D02*
X207922809Y-90638380D01*
X207827571Y-90781238D01*
X207732333Y-90876476D01*
X207637095Y-90924095D01*
X208589476Y-90733619D02*
X208637095Y-90686000D01*
X208732333Y-90638380D01*
X208970428Y-90638380D01*
X209065666Y-90686000D01*
X209113285Y-90733619D01*
X209160904Y-90828857D01*
X209160904Y-90924095D01*
X209113285Y-91066952D01*
X208541857Y-91638380D01*
X209160904Y-91638380D01*
%TO.C,R13*%
X220400642Y-91716880D02*
X220067309Y-91240690D01*
X219829214Y-91716880D02*
X219829214Y-90716880D01*
X220210166Y-90716880D01*
X220305404Y-90764500D01*
X220353023Y-90812119D01*
X220400642Y-90907357D01*
X220400642Y-91050214D01*
X220353023Y-91145452D01*
X220305404Y-91193071D01*
X220210166Y-91240690D01*
X219829214Y-91240690D01*
X221353023Y-91716880D02*
X220781595Y-91716880D01*
X221067309Y-91716880D02*
X221067309Y-90716880D01*
X220972071Y-90859738D01*
X220876833Y-90954976D01*
X220781595Y-91002595D01*
X221686357Y-90716880D02*
X222305404Y-90716880D01*
X221972071Y-91097833D01*
X222114928Y-91097833D01*
X222210166Y-91145452D01*
X222257785Y-91193071D01*
X222305404Y-91288309D01*
X222305404Y-91526404D01*
X222257785Y-91621642D01*
X222210166Y-91669261D01*
X222114928Y-91716880D01*
X221829214Y-91716880D01*
X221733976Y-91669261D01*
X221686357Y-91621642D01*
%TO.C,R15*%
X226751380Y-98432857D02*
X226275190Y-98766190D01*
X226751380Y-99004285D02*
X225751380Y-99004285D01*
X225751380Y-98623333D01*
X225799000Y-98528095D01*
X225846619Y-98480476D01*
X225941857Y-98432857D01*
X226084714Y-98432857D01*
X226179952Y-98480476D01*
X226227571Y-98528095D01*
X226275190Y-98623333D01*
X226275190Y-99004285D01*
X226751380Y-97480476D02*
X226751380Y-98051904D01*
X226751380Y-97766190D02*
X225751380Y-97766190D01*
X225894238Y-97861428D01*
X225989476Y-97956666D01*
X226037095Y-98051904D01*
X225751380Y-96575714D02*
X225751380Y-97051904D01*
X226227571Y-97099523D01*
X226179952Y-97051904D01*
X226132333Y-96956666D01*
X226132333Y-96718571D01*
X226179952Y-96623333D01*
X226227571Y-96575714D01*
X226322809Y-96528095D01*
X226560904Y-96528095D01*
X226656142Y-96575714D01*
X226703761Y-96623333D01*
X226751380Y-96718571D01*
X226751380Y-96956666D01*
X226703761Y-97051904D01*
X226656142Y-97099523D01*
%TO.C,J1*%
D14*
X151725380Y-74501333D02*
X152439666Y-74501333D01*
X152582523Y-74548952D01*
X152677761Y-74644190D01*
X152725380Y-74787047D01*
X152725380Y-74882285D01*
X152725380Y-73501333D02*
X152725380Y-74072761D01*
X152725380Y-73787047D02*
X151725380Y-73787047D01*
X151868238Y-73882285D01*
X151963476Y-73977523D01*
X152011095Y-74072761D01*
D13*
X148121904Y-89304761D02*
X148264761Y-89352380D01*
X148502857Y-89352380D01*
X148598095Y-89304761D01*
X148645714Y-89257142D01*
X148693333Y-89161904D01*
X148693333Y-89066666D01*
X148645714Y-88971428D01*
X148598095Y-88923809D01*
X148502857Y-88876190D01*
X148312380Y-88828571D01*
X148217142Y-88780952D01*
X148169523Y-88733333D01*
X148121904Y-88638095D01*
X148121904Y-88542857D01*
X148169523Y-88447619D01*
X148217142Y-88400000D01*
X148312380Y-88352380D01*
X148550476Y-88352380D01*
X148693333Y-88400000D01*
X149312380Y-88876190D02*
X149312380Y-89352380D01*
X148979047Y-88352380D02*
X149312380Y-88876190D01*
X149645714Y-88352380D01*
X149979047Y-89352380D02*
X149979047Y-88352380D01*
X150550476Y-89352380D01*
X150550476Y-88352380D01*
X151598095Y-89257142D02*
X151550476Y-89304761D01*
X151407619Y-89352380D01*
X151312380Y-89352380D01*
X151169523Y-89304761D01*
X151074285Y-89209523D01*
X151026666Y-89114285D01*
X150979047Y-88923809D01*
X150979047Y-88780952D01*
X151026666Y-88590476D01*
X151074285Y-88495238D01*
X151169523Y-88400000D01*
X151312380Y-88352380D01*
X151407619Y-88352380D01*
X151550476Y-88400000D01*
X151598095Y-88447619D01*
%TO.C,J2*%
D14*
X182205380Y-74501333D02*
X182919666Y-74501333D01*
X183062523Y-74548952D01*
X183157761Y-74644190D01*
X183205380Y-74787047D01*
X183205380Y-74882285D01*
X182300619Y-74072761D02*
X182253000Y-74025142D01*
X182205380Y-73929904D01*
X182205380Y-73691809D01*
X182253000Y-73596571D01*
X182300619Y-73548952D01*
X182395857Y-73501333D01*
X182491095Y-73501333D01*
X182633952Y-73548952D01*
X183205380Y-74120380D01*
X183205380Y-73501333D01*
D13*
X168330952Y-89352380D02*
X168330952Y-88352380D01*
X168664285Y-89066666D01*
X168997619Y-88352380D01*
X168997619Y-89352380D01*
X169473809Y-89352380D02*
X169473809Y-88352380D01*
X169950000Y-89352380D02*
X169950000Y-88352380D01*
X170188095Y-88352380D01*
X170330952Y-88400000D01*
X170426190Y-88495238D01*
X170473809Y-88590476D01*
X170521428Y-88780952D01*
X170521428Y-88923809D01*
X170473809Y-89114285D01*
X170426190Y-89209523D01*
X170330952Y-89304761D01*
X170188095Y-89352380D01*
X169950000Y-89352380D01*
X170950000Y-89352380D02*
X170950000Y-88352380D01*
X171188095Y-89447619D02*
X171950000Y-89447619D01*
X172378571Y-88352380D02*
X172569047Y-88352380D01*
X172664285Y-88400000D01*
X172759523Y-88495238D01*
X172807142Y-88685714D01*
X172807142Y-89019047D01*
X172759523Y-89209523D01*
X172664285Y-89304761D01*
X172569047Y-89352380D01*
X172378571Y-89352380D01*
X172283333Y-89304761D01*
X172188095Y-89209523D01*
X172140476Y-89019047D01*
X172140476Y-88685714D01*
X172188095Y-88495238D01*
X172283333Y-88400000D01*
X172378571Y-88352380D01*
X173235714Y-88352380D02*
X173235714Y-89161904D01*
X173283333Y-89257142D01*
X173330952Y-89304761D01*
X173426190Y-89352380D01*
X173616666Y-89352380D01*
X173711904Y-89304761D01*
X173759523Y-89257142D01*
X173807142Y-89161904D01*
X173807142Y-88352380D01*
X174140476Y-88352380D02*
X174711904Y-88352380D01*
X174426190Y-89352380D02*
X174426190Y-88352380D01*
%TO.C,J3*%
D14*
X246975380Y-74507833D02*
X247689666Y-74507833D01*
X247832523Y-74555452D01*
X247927761Y-74650690D01*
X247975380Y-74793547D01*
X247975380Y-74888785D01*
X246975380Y-74126880D02*
X246975380Y-73507833D01*
X247356333Y-73841166D01*
X247356333Y-73698309D01*
X247403952Y-73603071D01*
X247451571Y-73555452D01*
X247546809Y-73507833D01*
X247784904Y-73507833D01*
X247880142Y-73555452D01*
X247927761Y-73603071D01*
X247975380Y-73698309D01*
X247975380Y-73984023D01*
X247927761Y-74079261D01*
X247880142Y-74126880D01*
D13*
X240117619Y-89352380D02*
X240117619Y-88352380D01*
X240450952Y-89066666D01*
X240784285Y-88352380D01*
X240784285Y-89352380D01*
X241260476Y-89352380D02*
X241260476Y-88352380D01*
X241736666Y-89352380D02*
X241736666Y-88352380D01*
X241974761Y-88352380D01*
X242117619Y-88400000D01*
X242212857Y-88495238D01*
X242260476Y-88590476D01*
X242308095Y-88780952D01*
X242308095Y-88923809D01*
X242260476Y-89114285D01*
X242212857Y-89209523D01*
X242117619Y-89304761D01*
X241974761Y-89352380D01*
X241736666Y-89352380D01*
X242736666Y-89352380D02*
X242736666Y-88352380D01*
X242974761Y-89447619D02*
X243736666Y-89447619D01*
X243974761Y-89352380D02*
X243974761Y-88352380D01*
X244450952Y-89352380D02*
X244450952Y-88352380D01*
X245022380Y-89352380D01*
X245022380Y-88352380D01*
%TO.C,J4*%
D14*
X203795380Y-74501333D02*
X204509666Y-74501333D01*
X204652523Y-74548952D01*
X204747761Y-74644190D01*
X204795380Y-74787047D01*
X204795380Y-74882285D01*
X204128714Y-73596571D02*
X204795380Y-73596571D01*
X203747761Y-73834666D02*
X204462047Y-74072761D01*
X204462047Y-73453714D01*
D13*
X189920952Y-89352380D02*
X189920952Y-88352380D01*
X190254285Y-89066666D01*
X190587619Y-88352380D01*
X190587619Y-89352380D01*
X191063809Y-89352380D02*
X191063809Y-88352380D01*
X191540000Y-89352380D02*
X191540000Y-88352380D01*
X191778095Y-88352380D01*
X191920952Y-88400000D01*
X192016190Y-88495238D01*
X192063809Y-88590476D01*
X192111428Y-88780952D01*
X192111428Y-88923809D01*
X192063809Y-89114285D01*
X192016190Y-89209523D01*
X191920952Y-89304761D01*
X191778095Y-89352380D01*
X191540000Y-89352380D01*
X192540000Y-89352380D02*
X192540000Y-88352380D01*
X192778095Y-89447619D02*
X193540000Y-89447619D01*
X193968571Y-88352380D02*
X194159047Y-88352380D01*
X194254285Y-88400000D01*
X194349523Y-88495238D01*
X194397142Y-88685714D01*
X194397142Y-89019047D01*
X194349523Y-89209523D01*
X194254285Y-89304761D01*
X194159047Y-89352380D01*
X193968571Y-89352380D01*
X193873333Y-89304761D01*
X193778095Y-89209523D01*
X193730476Y-89019047D01*
X193730476Y-88685714D01*
X193778095Y-88495238D01*
X193873333Y-88400000D01*
X193968571Y-88352380D01*
X194825714Y-88352380D02*
X194825714Y-89161904D01*
X194873333Y-89257142D01*
X194920952Y-89304761D01*
X195016190Y-89352380D01*
X195206666Y-89352380D01*
X195301904Y-89304761D01*
X195349523Y-89257142D01*
X195397142Y-89161904D01*
X195397142Y-88352380D01*
X195730476Y-88352380D02*
X196301904Y-88352380D01*
X196016190Y-89352380D02*
X196016190Y-88352380D01*
%TO.C,J5*%
D14*
X225385380Y-74501333D02*
X226099666Y-74501333D01*
X226242523Y-74548952D01*
X226337761Y-74644190D01*
X226385380Y-74787047D01*
X226385380Y-74882285D01*
X225385380Y-73548952D02*
X225385380Y-74025142D01*
X225861571Y-74072761D01*
X225813952Y-74025142D01*
X225766333Y-73929904D01*
X225766333Y-73691809D01*
X225813952Y-73596571D01*
X225861571Y-73548952D01*
X225956809Y-73501333D01*
X226194904Y-73501333D01*
X226290142Y-73548952D01*
X226337761Y-73596571D01*
X226385380Y-73691809D01*
X226385380Y-73929904D01*
X226337761Y-74025142D01*
X226290142Y-74072761D01*
D13*
X211510952Y-89352380D02*
X211510952Y-88352380D01*
X211844285Y-89066666D01*
X212177619Y-88352380D01*
X212177619Y-89352380D01*
X212653809Y-89352380D02*
X212653809Y-88352380D01*
X213130000Y-89352380D02*
X213130000Y-88352380D01*
X213368095Y-88352380D01*
X213510952Y-88400000D01*
X213606190Y-88495238D01*
X213653809Y-88590476D01*
X213701428Y-88780952D01*
X213701428Y-88923809D01*
X213653809Y-89114285D01*
X213606190Y-89209523D01*
X213510952Y-89304761D01*
X213368095Y-89352380D01*
X213130000Y-89352380D01*
X214130000Y-89352380D02*
X214130000Y-88352380D01*
X214368095Y-89447619D02*
X215130000Y-89447619D01*
X215558571Y-88352380D02*
X215749047Y-88352380D01*
X215844285Y-88400000D01*
X215939523Y-88495238D01*
X215987142Y-88685714D01*
X215987142Y-89019047D01*
X215939523Y-89209523D01*
X215844285Y-89304761D01*
X215749047Y-89352380D01*
X215558571Y-89352380D01*
X215463333Y-89304761D01*
X215368095Y-89209523D01*
X215320476Y-89019047D01*
X215320476Y-88685714D01*
X215368095Y-88495238D01*
X215463333Y-88400000D01*
X215558571Y-88352380D01*
X216415714Y-88352380D02*
X216415714Y-89161904D01*
X216463333Y-89257142D01*
X216510952Y-89304761D01*
X216606190Y-89352380D01*
X216796666Y-89352380D01*
X216891904Y-89304761D01*
X216939523Y-89257142D01*
X216987142Y-89161904D01*
X216987142Y-88352380D01*
X217320476Y-88352380D02*
X217891904Y-88352380D01*
X217606190Y-89352380D02*
X217606190Y-88352380D01*
%TO.C,U1*%
X149693380Y-97916904D02*
X150502904Y-97916904D01*
X150598142Y-97869285D01*
X150645761Y-97821666D01*
X150693380Y-97726428D01*
X150693380Y-97535952D01*
X150645761Y-97440714D01*
X150598142Y-97393095D01*
X150502904Y-97345476D01*
X149693380Y-97345476D01*
X150693380Y-96345476D02*
X150693380Y-96916904D01*
X150693380Y-96631190D02*
X149693380Y-96631190D01*
X149836238Y-96726428D01*
X149931476Y-96821666D01*
X149979095Y-96916904D01*
%TO.C,J10*%
X138509476Y-105243380D02*
X138509476Y-105957666D01*
X138461857Y-106100523D01*
X138366619Y-106195761D01*
X138223761Y-106243380D01*
X138128523Y-106243380D01*
X139509476Y-106243380D02*
X138938047Y-106243380D01*
X139223761Y-106243380D02*
X139223761Y-105243380D01*
X139128523Y-105386238D01*
X139033285Y-105481476D01*
X138938047Y-105529095D01*
X140128523Y-105243380D02*
X140223761Y-105243380D01*
X140319000Y-105291000D01*
X140366619Y-105338619D01*
X140414238Y-105433857D01*
X140461857Y-105624333D01*
X140461857Y-105862428D01*
X140414238Y-106052904D01*
X140366619Y-106148142D01*
X140319000Y-106195761D01*
X140223761Y-106243380D01*
X140128523Y-106243380D01*
X140033285Y-106195761D01*
X139985666Y-106148142D01*
X139938047Y-106052904D01*
X139890428Y-105862428D01*
X139890428Y-105624333D01*
X139938047Y-105433857D01*
X139985666Y-105338619D01*
X140033285Y-105291000D01*
X140128523Y-105243380D01*
%TO.C,H1*%
X64008095Y-72452380D02*
X64008095Y-71452380D01*
X64008095Y-71928571D02*
X64579523Y-71928571D01*
X64579523Y-72452380D02*
X64579523Y-71452380D01*
X65579523Y-72452380D02*
X65008095Y-72452380D01*
X65293809Y-72452380D02*
X65293809Y-71452380D01*
X65198571Y-71595238D01*
X65103333Y-71690476D01*
X65008095Y-71738095D01*
%TO.C,H2*%
X64008095Y-97852380D02*
X64008095Y-96852380D01*
X64008095Y-97328571D02*
X64579523Y-97328571D01*
X64579523Y-97852380D02*
X64579523Y-96852380D01*
X65008095Y-96947619D02*
X65055714Y-96900000D01*
X65150952Y-96852380D01*
X65389047Y-96852380D01*
X65484285Y-96900000D01*
X65531904Y-96947619D01*
X65579523Y-97042857D01*
X65579523Y-97138095D01*
X65531904Y-97280952D01*
X64960476Y-97852380D01*
X65579523Y-97852380D01*
%TO.C,H3*%
X155448095Y-72452380D02*
X155448095Y-71452380D01*
X155448095Y-71928571D02*
X156019523Y-71928571D01*
X156019523Y-72452380D02*
X156019523Y-71452380D01*
X156400476Y-71452380D02*
X157019523Y-71452380D01*
X156686190Y-71833333D01*
X156829047Y-71833333D01*
X156924285Y-71880952D01*
X156971904Y-71928571D01*
X157019523Y-72023809D01*
X157019523Y-72261904D01*
X156971904Y-72357142D01*
X156924285Y-72404761D01*
X156829047Y-72452380D01*
X156543333Y-72452380D01*
X156448095Y-72404761D01*
X156400476Y-72357142D01*
%TO.C,H4*%
X183388095Y-97852380D02*
X183388095Y-96852380D01*
X183388095Y-97328571D02*
X183959523Y-97328571D01*
X183959523Y-97852380D02*
X183959523Y-96852380D01*
X184864285Y-97185714D02*
X184864285Y-97852380D01*
X184626190Y-96804761D02*
X184388095Y-97519047D01*
X185007142Y-97519047D01*
%TO.C,H5*%
X249428095Y-72452380D02*
X249428095Y-71452380D01*
X249428095Y-71928571D02*
X249999523Y-71928571D01*
X249999523Y-72452380D02*
X249999523Y-71452380D01*
X250951904Y-71452380D02*
X250475714Y-71452380D01*
X250428095Y-71928571D01*
X250475714Y-71880952D01*
X250570952Y-71833333D01*
X250809047Y-71833333D01*
X250904285Y-71880952D01*
X250951904Y-71928571D01*
X250999523Y-72023809D01*
X250999523Y-72261904D01*
X250951904Y-72357142D01*
X250904285Y-72404761D01*
X250809047Y-72452380D01*
X250570952Y-72452380D01*
X250475714Y-72404761D01*
X250428095Y-72357142D01*
%TO.C,H6*%
X249428095Y-97852380D02*
X249428095Y-96852380D01*
X249428095Y-97328571D02*
X249999523Y-97328571D01*
X249999523Y-97852380D02*
X249999523Y-96852380D01*
X250904285Y-96852380D02*
X250713809Y-96852380D01*
X250618571Y-96900000D01*
X250570952Y-96947619D01*
X250475714Y-97090476D01*
X250428095Y-97280952D01*
X250428095Y-97661904D01*
X250475714Y-97757142D01*
X250523333Y-97804761D01*
X250618571Y-97852380D01*
X250809047Y-97852380D01*
X250904285Y-97804761D01*
X250951904Y-97757142D01*
X250999523Y-97661904D01*
X250999523Y-97423809D01*
X250951904Y-97328571D01*
X250904285Y-97280952D01*
X250809047Y-97233333D01*
X250618571Y-97233333D01*
X250523333Y-97280952D01*
X250475714Y-97328571D01*
X250428095Y-97423809D01*
%TO.C,J6*%
X106815380Y-80851333D02*
X107529666Y-80851333D01*
X107672523Y-80898952D01*
X107767761Y-80994190D01*
X107815380Y-81137047D01*
X107815380Y-81232285D01*
X106815380Y-79946571D02*
X106815380Y-80137047D01*
X106863000Y-80232285D01*
X106910619Y-80279904D01*
X107053476Y-80375142D01*
X107243952Y-80422761D01*
X107624904Y-80422761D01*
X107720142Y-80375142D01*
X107767761Y-80327523D01*
X107815380Y-80232285D01*
X107815380Y-80041809D01*
X107767761Y-79946571D01*
X107720142Y-79898952D01*
X107624904Y-79851333D01*
X107386809Y-79851333D01*
X107291571Y-79898952D01*
X107243952Y-79946571D01*
X107196333Y-80041809D01*
X107196333Y-80232285D01*
X107243952Y-80327523D01*
X107291571Y-80375142D01*
X107386809Y-80422761D01*
X116570476Y-95972380D02*
X117141904Y-95972380D01*
X116856190Y-96972380D02*
X116856190Y-95972380D01*
X117427619Y-96686666D02*
X117903809Y-96686666D01*
X117332380Y-96972380D02*
X117665714Y-95972380D01*
X117999047Y-96972380D01*
X118332380Y-96972380D02*
X118332380Y-95972380D01*
X118713333Y-95972380D01*
X118808571Y-96020000D01*
X118856190Y-96067619D01*
X118903809Y-96162857D01*
X118903809Y-96305714D01*
X118856190Y-96400952D01*
X118808571Y-96448571D01*
X118713333Y-96496190D01*
X118332380Y-96496190D01*
X119332380Y-96448571D02*
X119665714Y-96448571D01*
X119808571Y-96972380D02*
X119332380Y-96972380D01*
X119332380Y-95972380D01*
X119808571Y-95972380D01*
X119999047Y-97067619D02*
X120760952Y-97067619D01*
X120999047Y-96972380D02*
X120999047Y-95972380D01*
X121475238Y-96972380D02*
X121475238Y-95972380D01*
X122046666Y-96972380D01*
X122046666Y-95972380D01*
%TO.C,J7*%
X86495380Y-80851333D02*
X87209666Y-80851333D01*
X87352523Y-80898952D01*
X87447761Y-80994190D01*
X87495380Y-81137047D01*
X87495380Y-81232285D01*
X86495380Y-80470380D02*
X86495380Y-79803714D01*
X87495380Y-80232285D01*
X94313809Y-95972380D02*
X94885238Y-95972380D01*
X94599523Y-96972380D02*
X94599523Y-95972380D01*
X95170952Y-96686666D02*
X95647142Y-96686666D01*
X95075714Y-96972380D02*
X95409047Y-95972380D01*
X95742380Y-96972380D01*
X96075714Y-96972380D02*
X96075714Y-95972380D01*
X96456666Y-95972380D01*
X96551904Y-96020000D01*
X96599523Y-96067619D01*
X96647142Y-96162857D01*
X96647142Y-96305714D01*
X96599523Y-96400952D01*
X96551904Y-96448571D01*
X96456666Y-96496190D01*
X96075714Y-96496190D01*
X97075714Y-96448571D02*
X97409047Y-96448571D01*
X97551904Y-96972380D02*
X97075714Y-96972380D01*
X97075714Y-95972380D01*
X97551904Y-95972380D01*
X97742380Y-97067619D02*
X98504285Y-97067619D01*
X98932857Y-95972380D02*
X99123333Y-95972380D01*
X99218571Y-96020000D01*
X99313809Y-96115238D01*
X99361428Y-96305714D01*
X99361428Y-96639047D01*
X99313809Y-96829523D01*
X99218571Y-96924761D01*
X99123333Y-96972380D01*
X98932857Y-96972380D01*
X98837619Y-96924761D01*
X98742380Y-96829523D01*
X98694761Y-96639047D01*
X98694761Y-96305714D01*
X98742380Y-96115238D01*
X98837619Y-96020000D01*
X98932857Y-95972380D01*
X99790000Y-95972380D02*
X99790000Y-96781904D01*
X99837619Y-96877142D01*
X99885238Y-96924761D01*
X99980476Y-96972380D01*
X100170952Y-96972380D01*
X100266190Y-96924761D01*
X100313809Y-96877142D01*
X100361428Y-96781904D01*
X100361428Y-95972380D01*
X100694761Y-95972380D02*
X101266190Y-95972380D01*
X100980476Y-96972380D02*
X100980476Y-95972380D01*
%TO.C,J8*%
X66175380Y-80851333D02*
X66889666Y-80851333D01*
X67032523Y-80898952D01*
X67127761Y-80994190D01*
X67175380Y-81137047D01*
X67175380Y-81232285D01*
X66603952Y-80232285D02*
X66556333Y-80327523D01*
X66508714Y-80375142D01*
X66413476Y-80422761D01*
X66365857Y-80422761D01*
X66270619Y-80375142D01*
X66223000Y-80327523D01*
X66175380Y-80232285D01*
X66175380Y-80041809D01*
X66223000Y-79946571D01*
X66270619Y-79898952D01*
X66365857Y-79851333D01*
X66413476Y-79851333D01*
X66508714Y-79898952D01*
X66556333Y-79946571D01*
X66603952Y-80041809D01*
X66603952Y-80232285D01*
X66651571Y-80327523D01*
X66699190Y-80375142D01*
X66794428Y-80422761D01*
X66984904Y-80422761D01*
X67080142Y-80375142D01*
X67127761Y-80327523D01*
X67175380Y-80232285D01*
X67175380Y-80041809D01*
X67127761Y-79946571D01*
X67080142Y-79898952D01*
X66984904Y-79851333D01*
X66794428Y-79851333D01*
X66699190Y-79898952D01*
X66651571Y-79946571D01*
X66603952Y-80041809D01*
X73208095Y-96972380D02*
X73208095Y-95972380D01*
X73541428Y-96686666D01*
X73874761Y-95972380D01*
X73874761Y-96972380D01*
X74350952Y-96448571D02*
X74684285Y-96448571D01*
X74827142Y-96972380D02*
X74350952Y-96972380D01*
X74350952Y-95972380D01*
X74827142Y-95972380D01*
X75112857Y-95972380D02*
X75684285Y-95972380D01*
X75398571Y-96972380D02*
X75398571Y-95972380D01*
X76589047Y-96972380D02*
X76255714Y-96496190D01*
X76017619Y-96972380D02*
X76017619Y-95972380D01*
X76398571Y-95972380D01*
X76493809Y-96020000D01*
X76541428Y-96067619D01*
X76589047Y-96162857D01*
X76589047Y-96305714D01*
X76541428Y-96400952D01*
X76493809Y-96448571D01*
X76398571Y-96496190D01*
X76017619Y-96496190D01*
X77208095Y-95972380D02*
X77398571Y-95972380D01*
X77493809Y-96020000D01*
X77589047Y-96115238D01*
X77636666Y-96305714D01*
X77636666Y-96639047D01*
X77589047Y-96829523D01*
X77493809Y-96924761D01*
X77398571Y-96972380D01*
X77208095Y-96972380D01*
X77112857Y-96924761D01*
X77017619Y-96829523D01*
X76970000Y-96639047D01*
X76970000Y-96305714D01*
X77017619Y-96115238D01*
X77112857Y-96020000D01*
X77208095Y-95972380D01*
X78065238Y-96972380D02*
X78065238Y-95972380D01*
X78636666Y-96972380D01*
X78636666Y-95972380D01*
X79303333Y-95972380D02*
X79493809Y-95972380D01*
X79589047Y-96020000D01*
X79684285Y-96115238D01*
X79731904Y-96305714D01*
X79731904Y-96639047D01*
X79684285Y-96829523D01*
X79589047Y-96924761D01*
X79493809Y-96972380D01*
X79303333Y-96972380D01*
X79208095Y-96924761D01*
X79112857Y-96829523D01*
X79065238Y-96639047D01*
X79065238Y-96305714D01*
X79112857Y-96115238D01*
X79208095Y-96020000D01*
X79303333Y-95972380D01*
X80160476Y-96972380D02*
X80160476Y-95972380D01*
X80493809Y-96686666D01*
X80827142Y-95972380D01*
X80827142Y-96972380D01*
X81303333Y-96448571D02*
X81636666Y-96448571D01*
X81779523Y-96972380D02*
X81303333Y-96972380D01*
X81303333Y-95972380D01*
X81779523Y-95972380D01*
%TO.C,U3*%
X228179380Y-94360904D02*
X228988904Y-94360904D01*
X229084142Y-94313285D01*
X229131761Y-94265666D01*
X229179380Y-94170428D01*
X229179380Y-93979952D01*
X229131761Y-93884714D01*
X229084142Y-93837095D01*
X228988904Y-93789476D01*
X228179380Y-93789476D01*
X228179380Y-93408523D02*
X228179380Y-92789476D01*
X228560333Y-93122809D01*
X228560333Y-92979952D01*
X228607952Y-92884714D01*
X228655571Y-92837095D01*
X228750809Y-92789476D01*
X228988904Y-92789476D01*
X229084142Y-92837095D01*
X229131761Y-92884714D01*
X229179380Y-92979952D01*
X229179380Y-93265666D01*
X229131761Y-93360904D01*
X229084142Y-93408523D01*
%TO.C,D1*%
X236878904Y-91511380D02*
X236878904Y-90511380D01*
X237117000Y-90511380D01*
X237259857Y-90559000D01*
X237355095Y-90654238D01*
X237402714Y-90749476D01*
X237450333Y-90939952D01*
X237450333Y-91082809D01*
X237402714Y-91273285D01*
X237355095Y-91368523D01*
X237259857Y-91463761D01*
X237117000Y-91511380D01*
X236878904Y-91511380D01*
X238402714Y-91511380D02*
X237831285Y-91511380D01*
X238117000Y-91511380D02*
X238117000Y-90511380D01*
X238021761Y-90654238D01*
X237926523Y-90749476D01*
X237831285Y-90797095D01*
X234941904Y-88203166D02*
X235418095Y-88203166D01*
X234846666Y-88488880D02*
X235180000Y-87488880D01*
X235513333Y-88488880D01*
%TD*%
M02*
